<svg width="126" height="40" viewBox="0 0 126 40" fill="none" xmlns="http://www.w3.org/2000/svg">
<g clip-path="url(#clip0_1610_2856)">
<path d="M13.1581 2.67505C14.5825 1.09528 17.0901 1.12123 18.4794 2.7522L21.0624 5.78638C23.5714 8.73479 26.2554 11.894 27.3778 13.2336L27.6435 13.552L27.6806 13.5959V13.5969L27.7792 13.718V13.719C29.8243 16.2701 31.0448 19.4891 31.0448 22.9885C31.0448 31.2675 24.2133 37.9817 15.7841 37.9817C7.35497 37.9815 0.524336 31.2674 0.524323 22.9885L0.538971 22.3254C0.684964 19.0286 1.91453 16.008 3.88663 13.5989L3.8876 13.5969L3.92569 13.551L3.93057 13.5442L3.9296 13.5432C5.13564 12.0924 9.96172 6.42232 13.0878 2.75317L13.0888 2.75415L13.1571 2.67407L13.1581 2.67505Z" fill="black" stroke="white" stroke-width="0.5"/>
<path d="M17.405 12.9384L15.5354 21.4394H11.7762L13.7196 12.9384H17.405Z" fill="url(#paint0_linear_1610_2856)"/>
<path d="M15.971 22.8346L19.7244 22.8347L18.1302 31.7478H14.1726L15.971 22.8346Z" fill="url(#paint1_linear_1610_2856)"/>
<path d="M15.7353 19.9779C15.7353 22.9856 13.2839 25.4239 10.26 25.4239C7.23607 25.4239 4.7847 22.9856 4.7847 19.9779C4.7847 16.9702 7.23607 14.532 10.26 14.532C13.2839 14.532 15.7353 16.9702 15.7353 19.9779ZM8.45821 19.9779C8.45821 20.9677 9.26489 21.77 10.26 21.77C11.2551 21.77 12.0618 20.9677 12.0618 19.9779C12.0618 18.9882 11.2551 18.1858 10.26 18.1858C9.26489 18.1858 8.45821 18.9882 8.45821 19.9779Z" fill="#FFE700"/>
<mask id="mask0_1610_2856" style="mask-type:alpha" maskUnits="userSpaceOnUse" x="4" y="14" width="12" height="12">
<path d="M15.7341 19.9747C15.7341 22.9824 13.2827 25.4207 10.2588 25.4207C7.23485 25.4207 4.78348 22.9824 4.78348 19.9747C4.78348 16.967 7.23485 14.5288 10.2588 14.5288C13.2827 14.5288 15.7341 16.967 15.7341 19.9747ZM8.45699 19.9747C8.45699 20.9645 9.26367 21.7669 10.2588 21.7669C11.2539 21.7669 12.0606 20.9645 12.0606 19.9747C12.0606 18.985 11.2539 18.1826 10.2588 18.1826C9.26367 18.1826 8.45699 18.985 8.45699 19.9747Z" fill="url(#paint2_linear_1610_2856)"/>
</mask>
<g mask="url(#mask0_1610_2856)">
<g filter="url(#filter0_f_1610_2856)">
<path d="M12.4098 20.2043L17.7657 23.5363L19.5773 25.0683L16.682 27.2837L12.4098 20.2043Z" fill="black" fill-opacity="0.15"/>
</g>
</g>
<path d="M26.7853 23.9637C26.7853 26.9715 24.3338 29.4098 21.31 29.4098C18.2861 29.4098 15.8347 26.9715 15.8347 23.9637C15.8347 20.956 18.2861 18.5178 21.31 18.5178C24.3338 18.5178 26.7853 20.956 26.7853 23.9637ZM19.5397 23.9637C19.5397 24.9362 20.3323 25.7245 21.31 25.7245C22.2877 25.7245 23.0802 24.9362 23.0802 23.9637C23.0802 22.9913 22.2877 22.203 21.31 22.203C20.3323 22.203 19.5397 22.9913 19.5397 23.9637Z" fill="#4AECBE"/>
<mask id="mask1_1610_2856" style="mask-type:alpha" maskUnits="userSpaceOnUse" x="15" y="18" width="12" height="12">
<path d="M26.785 23.9661C26.785 26.9738 24.3336 29.4121 21.3097 29.4121C18.2858 29.4121 15.8345 26.9738 15.8345 23.9661C15.8345 20.9583 18.2858 18.5201 21.3097 18.5201C24.3336 18.5201 26.785 20.9583 26.785 23.9661ZM19.5395 23.9661C19.5395 24.9385 20.3321 25.7268 21.3097 25.7268C22.2874 25.7268 23.08 24.9385 23.08 23.9661C23.08 22.9936 22.2874 22.2053 21.3097 22.2053C20.3321 22.2053 19.5395 22.9936 19.5395 23.9661Z" fill="url(#paint3_linear_1610_2856)"/>
</mask>
<g mask="url(#mask1_1610_2856)">
<g filter="url(#filter1_f_1610_2856)">
<path d="M19.253 24.0496L15.0087 22.27L13.2269 20.7039L16.164 18.5438L19.253 24.0496Z" fill="black" fill-opacity="0.15"/>
</g>
</g>
<path d="M16.027 12.129C17.0556 12.129 17.8895 11.2996 17.8895 10.2765C17.8895 9.25336 17.0556 8.42395 16.027 8.42395C14.9984 8.42395 14.1645 9.25336 14.1645 10.2765C14.1645 11.2996 14.9984 12.129 16.027 12.129Z" fill="#FFE701"/>
<path d="M11.9658 19.3511L15.1577 17.5052L19.76 24.8885L16.8647 27.1039L11.9658 19.3511Z" fill="url(#paint4_linear_1610_2856)"/>
<path d="M45.629 13.2301C47.5775 13.2301 49.1196 13.8819 50.2551 15.1854C51.4036 16.489 51.9778 18.4377 51.9778 21.0319C51.9778 23.5744 51.4165 25.491 50.2938 26.7816C49.1712 28.0593 47.5646 28.6982 45.4741 28.6982H39.1253V13.2301H45.629ZM44.6225 25.5813C45.8483 25.5813 46.8033 25.2136 47.4872 24.4778C48.184 23.7293 48.5324 22.5806 48.5324 21.0319C48.5324 19.509 48.1775 18.3409 47.4678 17.5279C46.771 16.7018 45.8226 16.2889 44.6225 16.2889H42.4545V25.5813H44.6225Z" fill="white"/>
<path d="M57.6982 28.6979H54.4658V12.9781H57.6982V28.6979Z" fill="white"/>
<path d="M68.0725 13.1907C69.2082 13.1907 70.1179 13.3584 70.8018 13.6941C71.4857 14.0296 71.9825 14.5781 72.2922 15.3396C72.6148 16.0882 72.7762 17.1012 72.7762 18.379C72.7762 20.2504 72.4019 21.5991 71.6535 22.425C70.918 23.2511 69.7307 23.6641 68.092 23.6641H64.2013V28.6976H60.7559V13.1907H68.0725ZM67.2789 20.5666C68.0145 20.5666 68.5371 20.4117 68.8468 20.102C69.1565 19.7922 69.3113 19.2179 69.3113 18.379C69.3113 17.7724 69.2469 17.3207 69.1177 17.0239C68.9887 16.7141 68.7823 16.5076 68.4984 16.4043C68.2145 16.3011 67.8016 16.2494 67.2595 16.2494H64.2013V20.5666H67.2789Z" fill="white"/>
<path d="M88.3015 23.1017C88.0047 24.9602 87.2821 26.3863 86.1335 27.3801C84.998 28.3739 83.5204 28.8708 81.701 28.8708C80.2557 28.8708 78.9911 28.5482 77.9071 27.9029C76.836 27.2446 76.0037 26.3218 75.4102 25.1344C74.8295 23.9341 74.5392 22.5403 74.5392 20.9528C74.5392 19.3783 74.8295 18.0037 75.4102 16.8293C76.0037 15.6548 76.836 14.7449 77.9071 14.0996C78.9911 13.4543 80.2557 13.1317 81.701 13.1317C83.3785 13.1317 84.785 13.5963 85.9206 14.5255C87.0562 15.4419 87.7918 16.7131 88.1272 18.3393L84.9721 19.0362C84.8044 18.0683 84.4302 17.3327 83.8495 16.8293C83.2818 16.313 82.5655 16.0549 81.701 16.0549C80.5396 16.0549 79.6233 16.4937 78.9524 17.3714C78.2813 18.2489 77.9459 19.4428 77.9459 20.9528C77.9459 21.882 78.1071 22.7146 78.4297 23.4502C78.7523 24.1729 79.1976 24.7408 79.7653 25.1538C80.3331 25.5539 80.9783 25.754 81.701 25.754C82.6559 25.754 83.4043 25.5023 83.9462 24.9989C84.5011 24.4827 84.8754 23.6502 85.0689 22.5016L88.3015 23.1017Z" fill="white"/>
<path d="M104.527 20.9922C104.527 23.0185 104.301 24.5995 103.849 25.7352C103.397 26.8709 102.662 27.6841 101.642 28.1745C100.636 28.6521 99.2488 28.8908 97.4809 28.8908C95.7001 28.8908 94.3001 28.6262 93.2806 28.0971C92.2612 27.555 91.532 26.7161 91.0934 25.5803C90.6675 24.4317 90.4545 22.9023 90.4545 20.9922C90.4545 18.9917 90.6675 17.4172 91.0934 16.2685C91.532 15.1069 92.2547 14.2616 93.2612 13.7324C94.2806 13.2032 95.6872 12.9387 97.4809 12.9387C99.1584 12.9387 100.507 13.2032 101.526 13.7324C102.546 14.2616 103.301 15.1134 103.791 16.2879C104.281 17.4623 104.527 19.0305 104.527 20.9922ZM101.042 20.9922C101.042 19.7145 100.92 18.7272 100.675 18.0302C100.442 17.3204 100.068 16.8235 99.5521 16.5396C99.0487 16.2426 98.3584 16.0942 97.4809 16.0942C96.5776 16.0942 95.8744 16.2233 95.3711 16.4815C94.8678 16.7395 94.4935 17.2236 94.2484 17.9335C94.0161 18.6304 93.9 19.6499 93.9 20.9922C93.9 22.2054 94.0097 23.154 94.229 23.838C94.4613 24.522 94.8355 25.0125 95.3517 25.3094C95.8679 25.6062 96.5776 25.7546 97.4809 25.7546C98.4229 25.7546 99.1455 25.619 99.6487 25.3481C100.152 25.0641 100.507 24.5866 100.713 23.9155C100.933 23.2314 101.042 22.257 101.042 20.9922Z" fill="white"/>
<path d="M110.36 28.6979H107.128V12.9781H110.36V28.6979Z" fill="white"/>
<path d="M122.187 28.0397C121.296 26.5426 119.464 23.5225 116.69 18.9796V28.6786H113.438V13.2104H115.799C116.16 13.2104 116.406 13.2363 116.534 13.2879C116.677 13.3395 116.812 13.4621 116.942 13.6557L122.632 22.7933V13.2104H126V28.6786H123.329C122.981 28.6786 122.748 28.6463 122.632 28.5818C122.516 28.5044 122.368 28.3236 122.187 28.0397Z" fill="white"/>
</g>
<defs>
<filter id="filter0_f_1610_2856" x="11.5459" y="19.3404" width="8.89528" height="8.80721" filterUnits="userSpaceOnUse" color-interpolation-filters="sRGB">
<feFlood flood-opacity="0" result="BackgroundImageFix"/>
<feBlend mode="normal" in="SourceGraphic" in2="BackgroundImageFix" result="shape"/>
<feGaussianBlur stdDeviation="0.431966" result="effect1_foregroundBlur_1610_2856"/>
</filter>
<filter id="filter1_f_1610_2856" x="12.3629" y="17.6799" width="7.75399" height="7.2336" filterUnits="userSpaceOnUse" color-interpolation-filters="sRGB">
<feFlood flood-opacity="0" result="BackgroundImageFix"/>
<feBlend mode="normal" in="SourceGraphic" in2="BackgroundImageFix" result="shape"/>
<feGaussianBlur stdDeviation="0.431966" result="effect1_foregroundBlur_1610_2856"/>
</filter>
<linearGradient id="paint0_linear_1610_2856" x1="14.5907" y1="12.9384" x2="14.5249" y2="17.2163" gradientUnits="userSpaceOnUse">
<stop stop-color="#FFE700"/>
<stop offset="1" stop-color="#FFD621"/>
</linearGradient>
<linearGradient id="paint1_linear_1610_2856" x1="16.9485" y1="22.8346" x2="16.8753" y2="29.577" gradientUnits="userSpaceOnUse">
<stop stop-color="#0A946D"/>
<stop offset="1" stop-color="#4AECBE"/>
</linearGradient>
<linearGradient id="paint2_linear_1610_2856" x1="12.5337" y1="19.5428" x2="12.6039" y2="28.0617" gradientUnits="userSpaceOnUse">
<stop stop-color="#FFE700"/>
<stop offset="1" stop-color="#17B852"/>
</linearGradient>
<linearGradient id="paint3_linear_1610_2856" x1="19.9508" y1="24.9672" x2="19.7304" y2="18.4698" gradientUnits="userSpaceOnUse">
<stop stop-color="#FFE700"/>
<stop offset="1" stop-color="#FFAA00"/>
</linearGradient>
<linearGradient id="paint4_linear_1610_2856" x1="18.2227" y1="25.5566" x2="13.929" y2="18.0022" gradientUnits="userSpaceOnUse">
<stop stop-color="#4AECBE"/>
<stop offset="1" stop-color="#FFE701"/>
</linearGradient>
<clipPath id="clip0_1610_2856">
<rect width="126" height="40" fill="white"/>
</clipPath>
</defs>
</svg>
