<svg width="120" height="120" viewBox="0 0 120 120" fill="none" xmlns="http://www.w3.org/2000/svg">
<g clip-path="url(#clip0_1746_4403)">
<path d="M59.9999 0C93.1372 0 120 26.863 120 60C120 93.137 93.1372 120 59.9999 120C26.8629 120 0 93.137 0 60C0 26.863 26.8629 0 59.9999 0Z" fill="white"/>
<path d="M84.8397 48.1933C80.4976 50.8791 77.8157 55.4836 77.8157 60.5998C77.8157 66.3555 81.2639 71.5995 86.5 73.7738C85.4783 77.0995 83.9457 80.1691 82.0301 82.983C79.2204 86.948 76.2831 91.0409 71.941 91.0409C67.5987 91.0409 66.3217 88.4827 61.2133 88.4827C56.2326 88.4827 54.4446 91.1688 50.3577 91.1688C46.271 91.1688 43.4614 87.4596 40.2687 82.8551C36.0543 76.4599 33.6277 69.0415 33.5 61.2394C33.5 48.577 41.6734 41.798 49.847 41.798C54.1891 41.798 57.765 44.6119 60.447 44.6119C63.0013 44.6119 67.088 41.6702 71.941 41.6702C77.0494 41.5422 81.9024 43.9723 84.8397 48.1933ZM69.6423 36.2981C71.8133 33.7401 72.9627 30.5425 73.0903 27.217C73.0903 26.8333 73.0904 26.3217 72.9627 25.938C69.259 26.3217 65.8109 28.1123 63.3843 30.9262C61.2133 33.3564 59.9361 36.4261 59.8084 39.7516C59.8084 40.1353 59.8084 40.519 59.9361 40.9027C60.1916 40.9027 60.5747 41.0306 60.8301 41.0306C64.2783 40.7747 67.471 38.9841 69.6423 36.2981Z" fill="black"/>
</g>
<defs>
<clipPath id="clip0_1746_4403">
<path d="M0 60C0 26.8629 26.8629 0 60 0V0C93.1371 0 120 26.8629 120 60V60C120 93.1371 93.1371 120 60 120V120C26.8629 120 0 93.1371 0 60V60Z" fill="white"/>
</clipPath>
</defs>
</svg>
