<svg width="120" height="120" viewBox="0 0 120 120" fill="none" xmlns="http://www.w3.org/2000/svg">
<g clip-path="url(#clip0_1746_4399)">
<path d="M59.9999 0C93.1372 0 120 26.863 120 60C120 93.137 93.1372 120 59.9999 120C26.8629 120 0 93.137 0 60C0 26.863 26.8629 0 59.9999 0Z" fill="white"/>
<path d="M46.6562 73.3438H70.4922L53.4668 90.3691H29.6309V66.5332L46.6562 49.5078V73.3438ZM90.3711 89.8164L73.8057 73.3438V46.1943H46.6572L30.1836 29.6289H90.3711V89.8164Z" fill="black"/>
</g>
<defs>
<clipPath id="clip0_1746_4399">
<path d="M0 60C0 26.8629 26.8629 0 60 0V0C93.1371 0 120 26.8629 120 60V60C120 93.1371 93.1371 120 60 120V120C26.8629 120 0 93.1371 0 60V60Z" fill="white"/>
</clipPath>
</defs>
</svg>
