<svg width="120" height="120" viewBox="0 0 120 120" fill="none" xmlns="http://www.w3.org/2000/svg">
<g clip-path="url(#clip0_1746_4404)">
<path d="M59.9999 0C93.1372 0 120 26.863 120 60C120 93.137 93.1372 120 59.9999 120C26.8629 120 0 93.137 0 60C0 26.863 26.8629 0 59.9999 0Z" fill="#FF9900"/>
<path d="M21.4435 54.8506C21.7059 54.6446 22.0437 54.6166 22.4562 54.7666C22.8871 54.9166 23.4494 55.2632 24.1427 55.8066C28.9031 59.63 34.3671 62.4419 40.5333 64.2412C46.6994 66.0404 53.0903 66.9394 59.7062 66.9395C65.0477 66.9395 70.1747 66.3966 75.0851 65.3096C80.0142 64.2412 84.1935 62.807 87.6232 61.0078C88.3354 60.633 88.8887 60.3982 89.2823 60.3047C89.6756 60.2112 90.013 60.3051 90.2941 60.5859C90.5002 60.8296 90.6036 61.0737 90.6036 61.3174C90.6034 61.9734 89.9753 62.8544 88.7198 63.96C85.14 67.0522 80.6794 69.4516 75.338 71.1572C69.9966 72.8816 64.3735 73.7431 58.4698 73.7432C53.8593 73.7432 49.342 73.1908 44.9191 72.085C40.5146 70.9979 36.3815 69.3111 32.5206 67.0244C28.6596 64.7379 25.3326 61.8704 22.5402 58.4219C21.8468 57.5597 21.4064 56.8379 21.2189 56.2568C21.0127 55.6008 21.0876 55.1319 21.4435 54.8506ZM92.4581 53.3594C93.6764 53.3594 94.8856 53.528 96.0851 53.8652C97.303 54.2024 98.0903 54.6336 98.4464 55.1582C98.8213 55.7018 98.9621 56.6019 98.8683 57.8574C98.7746 59.1132 98.5217 60.3126 98.1095 61.4561C97.3596 63.6676 96.0569 65.5796 94.2013 67.1914C93.1707 68.1471 92.3837 68.625 91.84 68.625C91.634 68.625 91.4461 68.5406 91.2775 68.3721C91.0153 68.1285 90.9213 67.8285 90.9962 67.4727C91.0712 67.1164 91.2962 66.629 91.671 66.0107C92.6455 64.4739 93.4146 62.8901 93.9767 61.2598C94.5577 59.6291 94.6791 58.561 94.3419 58.0547C94.117 57.7362 93.555 57.5112 92.6554 57.3799C91.7559 57.2676 90.6968 57.2484 89.4786 57.3232C88.2603 57.4169 87.0885 57.5855 85.964 57.8291C85.2706 57.9602 84.736 57.9985 84.3614 57.9424C83.9867 57.9048 83.7339 57.7354 83.6027 57.4355C83.4154 57.0234 83.5187 56.6297 83.9122 56.2549C84.306 55.8801 84.8966 55.4769 85.6837 55.0459C87.8199 53.9216 90.0781 53.3594 92.4581 53.3594Z" fill="white"/>
</g>
<defs>
<clipPath id="clip0_1746_4404">
<path d="M0 60C0 26.8629 26.8629 0 60 0V0C93.1371 0 120 26.8629 120 60V60C120 93.1371 93.1371 120 60 120V120C26.8629 120 0 93.1371 0 60V60Z" fill="white"/>
</clipPath>
</defs>
</svg>
