<svg width="120" height="120" viewBox="0 0 120 120" fill="none" xmlns="http://www.w3.org/2000/svg">
<g clip-path="url(#clip0_1746_4405)">
<path d="M59.9999 0C93.1372 0 120 26.863 120 60C120 93.137 93.1372 120 59.9999 120C26.8629 120 0 93.137 0 60C0 26.863 26.8629 0 59.9999 0Z" fill="#0090BF"/>
<path d="M29.3604 47.3401C32.0235 47.3403 34.3224 48.2292 36.1582 49.6624V47.3508H42.5957V72.6604H36.1582V70.0198C34.3226 71.4527 32.0233 72.3399 29.3604 72.3401C22.2438 72.3401 17.7197 66.0083 17.7197 59.8401C17.72 53.672 22.244 47.3401 29.3604 47.3401ZM93.5801 47.3459C101.21 47.5756 102.271 54.6779 102.279 54.7336V72.5295L96.1406 72.6594V55.9026C96.1299 55.8886 94.6238 53.9262 92.0674 53.926C89.5247 53.9262 88.1551 55.8679 88.1309 55.9026V72.5295H82.2764V55.9026C82.2619 55.8865 80.8476 54.3198 78.2646 54.3196C75.698 54.3197 74.5848 55.8671 74.5596 55.9026V72.5295H67.7285V47.345H74.5596V50.8479C74.5733 50.8009 75.5988 47.345 79.959 47.345C83.9447 47.4127 85.1878 49.5553 86.2695 51.0667C86.6997 50.4608 88.5005 47.1933 93.5801 47.3459ZM54.3174 50.6702C54.3418 50.6616 55.2385 50.3435 55.9248 49.6506C56.615 48.9535 57.075 47.6339 57.082 47.6135H64.126C64.1178 47.6322 62.7101 50.8321 60.0781 52.6418C57.4559 54.4446 54.359 54.4167 54.3174 54.4163V72.5247H47.4727V47.3401H54.3174V50.6702ZM29.3604 52.9905C26.0521 52.9905 23.3694 56.0573 23.3691 59.8401L23.3721 60.0168C23.4529 63.6593 26.0197 66.5953 29.2051 66.6877L29.3604 66.6897C32.6167 66.6892 35.2665 63.7178 35.3486 60.0168L35.3506 59.8401C35.3503 56.0576 32.6683 52.991 29.3604 52.9905Z" fill="white"/>
</g>
<defs>
<clipPath id="clip0_1746_4405">
<path d="M0 60C0 26.8629 26.8629 0 60 0V0C93.1371 0 120 26.8629 120 60V60C120 93.1371 93.1371 120 60 120V120C26.8629 120 0 93.1371 0 60V60Z" fill="white"/>
</clipPath>
</defs>
</svg>
