<svg width="120" height="120" viewBox="0 0 120 120" fill="none" xmlns="http://www.w3.org/2000/svg">
<path d="M0 60C0 26.8629 26.8629 0 60 0V0C93.1371 0 120 26.8629 120 60V60C120 93.1371 93.1371 120 60 120V120C26.8629 120 0 93.1371 0 60V60Z" fill="#F3BA2F"/>
<path d="M44.4634 53.6166L60 38.08L75.544 53.6234L84.584 44.5834L60 20L35.424 44.576L44.4634 53.6166Z" fill="white"/>
<path d="M20 60L29.0403 50.9584L38.08 59.9981L29.0397 69.0384L20 60Z" fill="white"/>
<path d="M60 81.92L44.4634 66.3843L35.4112 75.4112L60 100L84.584 75.417L84.5885 75.4122L75.5437 66.377L60 81.92Z" fill="white"/>
<path d="M81.92 60.0038L90.9603 50.9635L100 60.0032L90.96 69.0435L81.92 60.0038Z" fill="white"/>
<path d="M69.1727 59.9954H69.1688L69.1778 59.9999L69.1733 60.005L60.0002 69.1781L50.8351 60.0117L50.8223 59.9986L50.8351 59.9861L60.0002 50.8223L69.1727 59.9954Z" fill="white"/>
</svg>
