<svg width="120" height="120" viewBox="0 0 120 120" fill="none" xmlns="http://www.w3.org/2000/svg">
<path d="M0 60C0 26.8629 26.8629 0 60 0V0C93.1371 0 120 26.8629 120 60V60C120 93.1371 93.1371 120 60 120V120C26.8629 120 0 93.1371 0 60V60Z" fill="#F7931A"/>
<path fill-rule="evenodd" clip-rule="evenodd" d="M83.5947 45.3036C82.8218 37.268 75.8855 34.5751 67.1204 33.8071V22.6562H60.3377V33.5095C58.5568 33.5095 56.7328 33.5431 54.9231 33.5815V22.6562H48.1404L48.1356 33.7975L48.0629 33.7989H48.0629C46.6191 33.8272 45.1987 33.8551 43.8155 33.8551V33.8215L34.4599 33.8167V41.065C34.4599 41.065 39.4713 40.969 39.3849 41.0602C42.1354 41.0602 43.0282 42.6539 43.2874 44.0315V56.7328C43.4794 56.7328 43.7242 56.7424 44.0027 56.7808H43.2874L43.2826 74.5751C43.1626 75.4392 42.6538 76.8168 40.7337 76.8216C40.8201 76.8984 35.8039 76.8216 35.8039 76.8216L34.4551 84.9243H43.2874C44.2834 84.9243 45.2705 84.9349 46.2466 84.9454H46.2467L46.2492 84.9454C46.8812 84.9522 47.5086 84.959 48.1308 84.9627L48.1356 96.2384H54.9135V85.0827C56.7712 85.1212 58.5712 85.1355 60.3329 85.1355L60.3281 96.2384H67.1108V84.9867C78.516 84.3339 86.5084 81.4586 87.4972 70.7446C88.2988 62.1186 84.2427 58.2641 77.7672 56.7088C81.7082 54.7119 84.1707 51.1838 83.5947 45.3036ZM74.0999 69.4101C74.0999 77.1479 61.9305 76.9726 56.3799 76.8927C55.8874 76.8856 55.447 76.8792 55.0719 76.8792V61.9362C55.5408 61.9372 56.1115 61.9244 56.7585 61.9099C62.464 61.7817 74.0999 61.5205 74.0999 69.4101ZM56.2065 55.118C60.8509 55.1913 70.9413 55.3507 70.9413 48.3325C70.9457 41.1496 61.2223 41.4069 56.4686 41.5327C55.9329 41.5469 55.4603 41.5594 55.0719 41.5594V55.1055C55.3956 55.1051 55.7778 55.1112 56.2065 55.118Z" fill="white"/>
</svg>
