<svg width="120" height="120" viewBox="0 0 120 120" fill="none" xmlns="http://www.w3.org/2000/svg">
<g clip-path="url(#clip0_1746_4400)">
<path d="M59.9999 0C93.1372 0 120 26.863 120 60C120 93.137 93.1372 120 59.9999 120C26.8629 120 0 93.137 0 60C0 26.863 26.8629 0 59.9999 0Z" fill="white"/>
<path d="M90.6225 20.395C81.9196 13.6263 71.1621 10 60.1625 10C32.4824 10 10 32.4824 10 60.2833C10 68.9862 12.2967 77.5683 16.5272 85.0624L18.7029 88.8094C19.3072 89.8975 20.6368 90.26 21.7246 89.6557C21.8456 89.5347 22.0874 89.4139 22.2082 89.2929L27.164 84.3373C27.8893 83.612 28.0101 82.4032 27.4058 81.5571C25.5927 78.7771 24.1423 75.7552 23.0542 72.6124C16.1645 52.1849 27.164 30.065 47.5916 23.1752C51.5804 21.8456 55.8112 21.1203 60.0417 21.1203C66.448 21.1203 72.7334 22.6917 78.2936 25.7137L69.8325 34.1748C55.4484 28.7354 39.3722 35.9877 33.933 50.3718C32.7242 53.5145 32.1199 56.899 32.1199 60.2833C32.1199 60.7668 32.2407 62.8217 32.2407 63.1842C32.6034 66.327 33.4495 69.4697 34.8999 72.3707C35.3834 73.4585 36.713 73.942 37.9218 73.4585C38.1636 73.3377 38.4054 73.2167 38.5261 72.9752L43.6028 67.8983C44.2073 67.294 44.3281 66.5687 44.2073 65.8437L43.8445 64.0305C41.7896 55.0859 47.3498 46.0202 56.2945 43.9655C60.4043 42.9985 64.7556 43.6028 68.3819 45.7787L70.5575 47.1083C71.4038 47.5916 72.4917 47.4708 73.2167 46.7455L93.7653 26.197C94.6116 25.3509 94.6116 23.9005 93.7653 23.0542C93.6445 22.9335 93.6445 22.9335 93.5235 22.8127L90.6225 20.395Z" fill="url(#paint0_linear_1746_4400)"/>
<path d="M102.607 34.7673L100.432 31.02C99.8273 29.9322 98.4977 29.5696 97.4099 30.1739C97.2889 30.2949 97.0471 30.4157 96.9263 30.5367L91.9705 35.4923C91.2452 36.2176 91.1244 37.4265 91.7287 38.2725C93.5418 41.0525 94.9922 44.0745 96.0803 47.2172C102.97 67.6447 91.9705 89.7646 71.5429 96.6544C67.5541 97.984 63.3236 98.7093 59.0928 98.7093C52.6865 98.7093 46.4011 97.1379 40.8409 94.116L49.302 85.6548C63.6861 91.0942 79.7623 83.8419 85.2015 69.4579C87.8607 62.3263 87.4981 54.3487 84.2346 47.459C83.7511 46.3711 82.4215 45.8876 81.2127 46.3711C80.9709 46.4919 80.7291 46.6129 80.6084 46.8544L75.5317 51.8103C74.9272 52.4148 74.8064 53.1399 74.9272 53.8652L75.4107 55.6783C77.4656 64.623 71.9055 73.6884 62.9608 75.7433C58.8512 76.7104 54.4997 76.1059 50.8734 73.9302L48.6978 72.6006C47.8517 72.1171 46.7638 72.2381 46.0385 72.9631L25.49 93.5117C24.644 94.3577 24.644 95.8083 25.49 96.6544C25.611 96.7754 25.611 96.7754 25.7318 96.8962L28.7538 99.1928C37.3356 106.203 48.0934 109.83 59.0928 109.83C86.7728 109.83 109.255 87.3472 109.255 59.5464C109.255 50.8435 106.959 42.3823 102.607 34.7673Z" fill="url(#paint1_linear_1746_4400)"/>
</g>
<defs>
<linearGradient id="paint0_linear_1746_4400" x1="7.21721" y1="77.4292" x2="77.8439" y2="6.80676" gradientUnits="userSpaceOnUse">
<stop stop-color="#68D7FA"/>
<stop offset="1" stop-color="#4EE498"/>
</linearGradient>
<linearGradient id="paint1_linear_1746_4400" x1="41.4001" y1="113.021" x2="112.017" y2="42.4037" gradientUnits="userSpaceOnUse">
<stop stop-color="#B090F5"/>
<stop offset="1" stop-color="#5FBFFF"/>
</linearGradient>
<clipPath id="clip0_1746_4400">
<path d="M0 60C0 26.8629 26.8629 0 60 0V0C93.1371 0 120 26.8629 120 60V60C120 93.1371 93.1371 120 60 120V120C26.8629 120 0 93.1371 0 60V60Z" fill="white"/>
</clipPath>
</defs>
</svg>
