<svg width="120" height="120" viewBox="0 0 120 120" fill="none" xmlns="http://www.w3.org/2000/svg">
<circle cx="60" cy="60" r="60" fill="#988430"/>
<circle cx="60" cy="60" r="58.0781" fill="#7A6A2A"/>
<circle cx="59.9999" cy="60" r="56.8544" fill="#BA9F33"/>
<path fill-rule="evenodd" clip-rule="evenodd" d="M26.2332 53.5923C25.8933 53.2819 25.5343 52.9709 25.204 52.6605C24.8738 52.3501 24.5346 52.0391 24.1948 51.7287L23.1848 50.7687C23.0197 50.6035 22.845 50.4583 22.6799 50.2925C22.5148 50.1472 22.3208 49.9821 22.1557 49.8362C20.8156 48.5645 19.4677 47.2928 18.1461 46.0205C19.5151 47.273 20.8552 48.5165 22.2242 49.7875L22.6997 50.2637C22.8648 50.4282 23.0396 50.5741 23.2047 50.7392L24.214 51.6711C24.5538 51.9815 24.884 52.2925 25.2239 52.6311C25.5637 52.9696 25.894 53.2813 26.2338 53.5911L26.2332 53.5923ZM8.44693 53.4003C8.44693 53.4003 13.3205 53.9047 15.6994 54.2445C17.9029 54.5555 24.7964 55.6135 24.7964 55.6135L8.44693 53.4003ZM8.44693 53.4003C9.81589 53.5168 11.1848 53.6621 12.5538 53.808C13.2527 53.8759 13.9228 53.9533 14.5928 54.0211L15.6213 54.1383C15.9612 54.1863 16.2914 54.2349 16.6312 54.2835L20.7093 54.9338L22.7477 55.2736C23.4178 55.3901 24.0879 55.5168 24.7868 55.6333C24.1167 55.5655 23.4178 55.4682 22.7477 55.3709L20.7093 55.0797L16.6312 54.4781C16.2914 54.4295 15.9612 54.361 15.6213 54.313L14.5922 54.1946C13.9221 54.1267 13.2232 54.0295 12.5532 53.9514C11.1842 53.7869 9.81525 53.6115 8.44629 53.3984L8.44693 53.4003ZM24.3112 56.8832C24.3112 56.8832 19.1074 58.2042 17.35 58.7091C15.622 59.1847 10.3887 60.777 10.3887 60.777L24.3106 56.8839L24.3112 56.8832Z" fill="#CFB66C"/>
<path fill-rule="evenodd" clip-rule="evenodd" d="M24.3106 56.8833C23.1554 57.2231 22.0066 57.5534 20.8348 57.8644L17.3589 58.7963C16.2037 59.1361 15.0549 59.4663 13.9029 59.8062L12.1749 60.2817C11.6021 60.4468 11.0197 60.5921 10.4277 60.7579C10.9999 60.5659 11.5829 60.3694 12.1557 60.2043L13.8837 59.6513C15.0389 59.2916 16.1877 58.9518 17.3397 58.5927C18.5141 58.3015 19.67 57.9905 20.8444 57.7089C21.9605 57.4273 23.1356 57.1463 24.3106 56.8839V56.8839V56.8833ZM11.117 63.9809C11.6892 63.7671 18.2914 60.69 19.8255 59.9713C20.5935 59.6116 22.8258 58.8193 22.8258 58.8193L11.117 63.9809Z" fill="#CFB66C"/>
<path fill-rule="evenodd" clip-rule="evenodd" d="M11.1169 63.9808C11.6212 63.7888 12.0973 63.5539 12.5825 63.3306L14.0193 62.6605L16.9031 61.2723C17.8631 60.816 18.7962 60.3123 19.7863 59.8835C20.2913 59.6704 20.7962 59.4957 21.3005 59.3306L22.0685 59.088C22.3303 59.0202 22.5735 58.9421 22.8365 58.8743C21.8765 59.3306 20.866 59.7191 19.9047 60.1651C18.9447 60.6413 17.9629 61.0298 16.9722 61.4567L14.0404 62.7475C13.0561 63.1463 12.0961 63.5731 11.1162 63.9808V63.9808H11.1169ZM11.7569 66.6688C11.7569 66.6688 17.737 63.1642 19.7953 62.0378C20.873 61.4362 24.3585 59.7075 24.3585 59.7075L11.7569 66.6688Z" fill="#CFB66C"/>
<path fill-rule="evenodd" clip-rule="evenodd" d="M11.7578 66.6702C12.7671 66.0487 13.7962 65.4177 14.8253 64.7771L16.3613 63.8446C16.8855 63.5342 17.3905 63.243 17.9249 62.9326C18.449 62.6215 18.954 62.3111 19.4877 62.0199C19.7418 61.863 20.0081 61.7267 20.2839 61.6123L21.0993 61.2046C22.177 60.6804 23.2548 60.146 24.3908 59.6897C23.3617 60.3406 22.3031 60.8942 21.2452 61.4663C20.721 61.7575 20.1866 62.0199 19.6625 62.3111C19.1383 62.6023 18.6333 62.9134 18.0989 63.195C17.5748 63.5054 17.0698 63.7966 16.5361 64.0782L14.9533 64.9422L11.7591 66.6702V66.6702H11.7578ZM24.3108 60.4756C24.3108 60.4756 20.5924 63.33 19.3885 64.2427C18.1847 65.1553 14.641 67.7185 14.641 67.7185L24.3108 60.4756V60.4756Z" fill="#CFB66C"/>
<path fill-rule="evenodd" clip-rule="evenodd" d="M45.6508 83.4951L43.748 79.8932L44.8546 75.3882L52.7477 72.3399L49.3884 65.4471L51.0485 58.4858L54.1653 52.2522L63.7967 50.738L70.8738 43.9905L86.1557 45.1457L89.1554 61.4855L83.3788 82.0583L80.0879 92.7092L66.7477 93.2142L60.5538 88.923L53.3013 85.8932L45.6508 83.4951V83.4951Z" fill="#E2CC85"/>
<path fill-rule="evenodd" clip-rule="evenodd" d="M69.049 83.3784C69.049 83.3784 67.2039 84.2232 64.057 84.0287C63.1463 82.8056 56.7681 82.2328 56.7681 82.2328C56.7681 82.2328 55.9719 81.9903 54.5639 82.5727C53.147 83.1487 51.8068 83.0776 50.5543 83.388C49.3018 83.6984 48.0583 82.0677 47.0983 81.7279C46.1383 81.3688 44.8654 80.5048 44.8654 80.5048L42.1774 80.2424L36.7796 77.9608L28.2042 69.4175L25.874 73.0655L25.1553 77.58L27.7479 82.9298L34.7284 89.2888L48.3399 92.7448L56.4078 90.3679L66.5146 86.0959L69.049 83.3778V83.3784Z" fill="#F1D789"/>
<path fill-rule="evenodd" clip-rule="evenodd" d="M20.6889 53.1847L22.4169 47.9521L24.4757 44.5729L31.1061 44.0193L29.1157 49.8254L23.5727 59.6897L25.8735 68.4954L21.7961 70.5338L20.5429 68.6119L19.5337 64.2042L19.4658 59.2526L20.6889 53.1847V53.1847Z" fill="#F4ECB4"/>
<path fill-rule="evenodd" clip-rule="evenodd" d="M28.1256 83.0195L26.854 81.2428C26.854 81.2428 26.5141 80.398 26.7087 79.6601C26.9007 78.9126 26.8732 78.8639 26.7765 78.5823C26.6799 78.3007 25.8639 77.3299 25.9125 76.4947C25.9605 75.6499 25.8447 75.3683 26.4655 74.6988C27.1157 74.0486 26.9218 72.9222 26.9218 72.9222L27.7666 73.4464L27.9586 73.1551C27.9586 73.1551 28.269 73.3977 28.269 73.7766C28.3368 73.2524 28.0552 70.8249 28.6959 70.2719C29.3365 69.719 30.4725 72.864 30.4725 72.864L29.7736 68.3007L27.9772 63.6217L24.7829 59.3497L24.5909 54.6406V54.2329C24.5909 54.2329 23.1247 56.4857 22.717 58.2649C22.4258 59.488 23.1247 60.9734 22.9794 62.7308C22.8623 64.4787 22.717 64.3424 23.1439 65.0348C23.5708 65.7273 24.6101 67.1513 24.2024 68.1804C23.8434 69.0643 22.6197 68.4428 22.6197 68.4428C22.6197 68.4428 22.3772 69.1609 22.0469 69.4233C21.9304 68.9964 21.8044 68.7244 21.5714 68.4633C21.5516 68.6284 21.5036 68.8518 21.5036 68.8518C21.5036 68.8518 21.2898 68.1817 21.076 67.3369C20.7855 66.2112 20.4744 64.7257 20.1928 63.9296C20.0764 64.3859 19.7852 65.774 19.7852 65.774L19.9503 67.9103L20.7464 70.8422L21.5144 72.7622L22.262 75.1116L22.9116 76.6899L23.4357 77.8937L23.892 80.6028L26.0956 82.9324L27.2706 83.4572L28.1244 83.0201V83.0201L28.1256 83.0195Z" fill="#F3E19D"/>
<path fill-rule="evenodd" clip-rule="evenodd" d="M21.8443 48.9127C21.8443 48.9127 20.2616 51.6007 19.8059 54.3104C19.3502 57.0202 18.9419 59.8836 19.2299 63.5725C19.5211 67.2916 20.0747 69.5725 20.5214 71.2039C21.2894 73.913 23.2785 77.68 23.2785 77.68L23.3464 77.5341C23.012 76.9004 22.7452 76.2332 22.5502 75.5437C22.2878 74.5146 22.1905 73.2916 21.948 72.738C21.7342 72.185 21.3752 71.7088 21.2005 71.0292C21.0353 70.3789 21.0085 69.3498 20.5016 68.5831C20.2878 68.272 20.0254 67.4567 19.948 66.6413C19.8507 65.4176 19.9966 64.0487 19.8801 62.9229C19.6664 61.049 19.5211 59.7773 19.715 58.7962C19.9089 57.8151 20.9195 55.0298 21.5409 52.816C21.9486 51.3984 21.7054 50.2042 22.4529 48.9709C23.2005 47.7479 23.6574 46.6701 23.8219 45.9226C24.0139 45.2429 21.8417 48.9127 21.8417 48.9127V48.9127H21.8443Z" fill="#F2E8B0"/>
<path fill-rule="evenodd" clip-rule="evenodd" d="M29.3493 47.835C29.3493 47.835 28.534 48.0782 28.1455 48.505C27.757 48.9127 27.5919 49.2526 27.0677 49.9418C26.5436 50.6311 26.5141 51.1943 26.0866 52.0583C25.6597 52.9031 24.7177 54.1748 24.6012 54.6311C24.4847 55.0874 24.2908 57.2231 24.0482 58.233C23.8345 59.243 24.2908 60.4858 24.2908 60.4858L24.8437 60.3687C24.8437 60.3687 24.8437 61.0874 25.3973 61.5732C25.9503 62.0487 26.0476 59.961 26.0476 59.961L28.1154 52.9806L31.2316 50.8641L31.5714 49.1553L29.3481 47.835V47.835H29.3493Z" fill="#F5EEC0"/>
<path fill-rule="evenodd" clip-rule="evenodd" d="M30.8642 51.0003C30.8642 51.0003 29.398 51.0969 28.6799 51.6217C28.3887 51.8349 28.2722 52.0096 27.9618 52.272C27.389 52.7475 26.806 53.1846 26.525 53.808C26.214 54.4288 25.8742 55.3709 25.6412 57.1475C25.5439 57.895 25.5439 58.5843 25.4761 59.1865C25.3788 60.0019 25.2335 60.6521 25.311 61.1065C25.4082 62.0384 26.3695 62.5241 26.463 63.5821L28.4534 62.5728L30.3273 55.184L34.3081 52.688L32.0553 50.1638L30.8617 50.9958V50.9958L30.8642 51.0003Z" fill="#E6DB9D"/>
<path fill-rule="evenodd" clip-rule="evenodd" d="M20.3639 100.754C20.3722 100.681 20.3806 100.609 20.3889 100.534C20.6794 98.0376 20.7287 96.1458 20.9418 94.9612C21.2522 93.2818 21.466 92.6572 21.4174 92.0287C21.3495 91.0194 21.2721 90.2815 21.3694 89.5045C21.5146 88.4754 22.5246 87.2524 22.4958 86.4076C22.4759 85.7375 22.1361 85.301 21.8449 84.8933C21.5537 84.4856 21.3207 84.1458 21.3207 84.1458C21.3207 84.1458 23.3111 82.7768 23.2919 77.262C23.3326 77.2734 23.3717 77.2898 23.4084 77.3106L24.3889 80.0965L25.059 80.9119L27.6318 85.708L30.9425 88.9221L35.8353 92.213L38.9034 95.5519L39.2138 104.455L35.2042 109.659L34.5476 110.848C29.3308 108.229 24.5469 104.825 20.3633 100.754L20.3639 100.754Z" fill="#E5CB7A"/>
<path fill-rule="evenodd" clip-rule="evenodd" d="M32.6123 109.272C32.6123 109.272 32.6801 108.165 33.5928 107.446C33.7387 107.689 33.8353 107.923 33.8065 108.097C33.9717 107.806 35.1269 105.942 37.7387 105.456C40.3505 104.981 40.9816 103.078 40.9816 103.078L46.5246 98.0391L52.8645 92.2042L60.5733 89.4951L64.1758 88.6112C64.1758 88.6112 64.2437 88.8736 64.108 89.456C64.7774 89.408 66.2629 89.0682 67.8065 88.5242C68.428 88.2816 69.011 88.1844 69.3214 88.505C69.7777 88.9319 69.8456 89.9418 69.8744 90.5434C70.6219 90.3783 71.4859 89.6602 72.1784 89.728C73.2856 89.8445 74.2661 91.1456 75.3925 91.1456C76.8779 91.1456 77.5473 90.233 78.5867 89.5143C79.2081 89.0874 80.1009 88.5543 80.6059 88.194C81.8097 87.3101 94.5477 83.417 94.5477 83.417L99.0136 83.7082L99.7323 88.5044L99.3483 101.042C99.3009 101.087 99.2536 101.135 99.2056 101.18L78.8997 111.786L50.7525 116.101C44.4474 115.07 38.3629 112.978 32.7582 109.911L32.6142 109.271V109.271L32.6123 109.272Z" fill="#D8C173"/>
<path fill-rule="evenodd" clip-rule="evenodd" d="M22.0703 102.349C22.4703 101.513 22.83 100.813 22.8934 100.563C22.9433 101.068 23.0348 102.174 23.2191 103.35C22.8321 103.021 22.4492 102.688 22.0703 102.349V102.349Z" fill="#F1D789"/>
<path fill-rule="evenodd" clip-rule="evenodd" d="M42.6314 114.148L46.2718 113.136L46.5822 113.233C46.5822 113.233 46.7473 113.331 46.7473 113.66C47.2036 113.398 47.5921 113.446 47.8737 113.272C48.019 113.583 48.1642 114.612 48.8055 114.738C49.475 114.884 50.1937 114.447 50.922 113.894C51.6401 113.321 52.458 112.602 53.0769 112.311C53.3039 112.729 53.5051 113.16 53.6791 113.602C54.4945 112.952 55.9121 110.311 57.9313 110.359C58.5149 108.98 59.4899 107.802 60.7358 106.971C62.6097 105.699 63.7841 105.602 65.2503 105.718C65.8327 104.962 66.5503 104.32 67.3668 103.825C67.6094 103.923 68.2794 104.33 69.1146 103.942C69.9594 103.554 70.9105 102.049 72.163 101.855C72.8379 101.762 73.5241 101.906 74.1047 102.262C74.1047 102.262 77.7527 98.6406 80.2698 97.4368C80.1726 97.1456 79.9786 96.0486 82.9297 93.6211C83.0948 93.767 82.9783 94.1747 83.0948 94.1971C83.1428 94.1971 83.8628 93.8867 84.7742 93.1872C85.9006 92.343 87.2497 91.4592 88.065 91.2166C89.601 90.7603 91.2305 91.6921 91.2305 91.6921C91.369 91.595 91.5234 91.5226 91.6868 91.4784C92.0746 91.4105 92.3562 91.3619 92.57 91.2864C92.5508 91.7913 92.8324 92.6553 92.57 93.4029C92.8739 93.5738 93.1959 93.7105 93.53 93.8105C93.3655 94.1696 93.0058 95.0822 92.4042 95.5193C92.9086 95.7619 92.9764 96.0435 93.6951 96.2873C93.4039 96.695 92.9271 97.3945 92.7146 97.8233C92.5009 98.2797 91.7335 100.173 91.3937 100.891C91.0346 101.61 90.5495 102.93 90.3159 103.195C90.0823 103.46 89.2382 104.583 88.5879 105.136C89.1639 104.922 91.5204 104.204 92.5201 103.932C92.2225 104.369 90.714 106.607 89.2638 108.759C75.2168 117.178 58.226 119.145 42.627 114.158L42.6314 114.148Z" fill="#E0CD81"/>
<path fill-rule="evenodd" clip-rule="evenodd" d="M31.1036 50.738C31.1036 50.738 30.2594 50.738 30.0943 50.8545C29.9292 50.971 30.9391 51.2142 31.2495 51.3306C31.5599 51.4471 32.23 51.9809 32.4047 52.4084C32.5698 52.8161 38.4725 55.1943 38.4725 55.1943L42.6472 54.9806L44.0866 52.9921L41.3487 50.594L43.2687 44.9338L40.7253 45.3415L34.6088 48.9895L31.5407 50.1646L31.1036 50.738V50.738Z" fill="#DFC57C"/>
<path fill-rule="evenodd" clip-rule="evenodd" d="M40.2716 52.6118C40.3944 52.8106 40.6139 52.9289 40.8476 52.9222C41.7116 52.9222 42.5071 53.1359 42.8373 53.5724C43.3909 54.2719 44.925 56.5049 44.925 56.5049L48.5948 57.8252L48.8316 53.5039L44.822 50.718L40.2588 52.3974V52.6111H40.269L40.2716 52.6118Z" fill="#E5CC7C"/>
<path fill-rule="evenodd" clip-rule="evenodd" d="M39.5521 54.2137C39.5521 54.2137 40.2215 54.2624 41.0663 53.9513C41.9111 53.6403 43.2993 52.9709 43.9015 53.2333C44.7457 53.5923 44.5709 54.7187 45.4842 55.7293C46.0372 56.3507 47.0471 56.3315 47.6199 57.0016C48.1927 57.6717 50.1633 57.3606 50.1633 57.3606L50.9108 61.3926L47.9111 65.2377L46.93 70.0141H42.8737L39.1681 68.544L37.3428 64.128L38.2554 59.6621L39.5521 54.2137V54.2137Z" fill="#D2C281"/>
<path fill-rule="evenodd" clip-rule="evenodd" d="M47.3982 54.4076C47.4988 54.4386 47.6034 54.455 47.7086 54.4562C47.5922 54.5535 47.349 54.7666 47.4462 55.3202C47.5435 55.8738 47.8539 56.5727 47.5922 56.9996C47.8011 57.2281 47.9569 57.5 48.0485 57.7958C48.2136 58.2719 48.2622 58.7084 49.3394 58.7769C49.1839 58.8726 49.0406 58.9867 48.9125 59.1167C48.9125 59.1167 49.66 59.767 50.0389 60.3686C50.4267 60.3519 51.4558 60.0319 51.4558 60.0319L51.6696 60.1778L52.1259 59.9858C52.1259 59.9858 51.699 59.8207 52.0094 58.782C52.3006 57.8694 52.563 57.918 52.5854 57.8502C52.6078 57.7823 52.7992 56.821 52.7992 56.4326C52.9445 55.9282 53.061 54.3942 53.061 54.3942L52.7506 51.006L51.0034 49.9474L49.5826 48.5759L48.2424 51.1001L47.3598 51.9801L47.292 54.1644L47.3982 54.4076V54.4076Z" fill="#E2C270"/>
<path fill-rule="evenodd" clip-rule="evenodd" d="M51.6016 51.5731C51.6016 51.5731 51.912 52.4563 52.0291 53.1359C52.0704 53.0038 52.0932 52.8666 52.0969 52.7283C52.0969 52.7283 52.3395 54.0684 52.3875 54.622C52.4848 54.6022 52.5795 54.5734 52.6012 54.67C52.623 54.7667 52.8444 55.8451 52.7932 56.4467C53.1975 55.7797 53.757 55.2202 54.424 54.8159C54.8124 54.5727 55.2688 54.311 55.7449 54.2911C56.4924 54.2719 57.0358 54.7673 57.9292 54.7673C60.0841 54.7673 62.0361 53.1846 63.4729 52.6995C64.5308 52.3398 65.4435 52.078 66.0841 51.495C66.3952 51.2332 66.9488 50.6508 67.4531 49.7862C68.1232 48.6342 68.822 47.6313 69.5216 47.5052C69.2051 47.5634 68.8831 47.5861 68.5616 47.5731C68.5616 47.5731 68.7753 47.3593 69.1376 47.0681C69.4998 46.7769 69.9337 46.4179 70.5545 46.4179C71.6617 46.4179 72.2147 46.5823 72.8361 46.5823C73.4576 46.5631 73.8166 46.4179 73.8166 46.4179C73.8166 46.4179 74.4675 46.8742 75.9331 46.8742C77.3993 46.8934 78.3798 47.0195 79.1472 47.0879C79.9145 47.1564 82.4867 46.8742 83.2246 46.8959C83.7057 46.9145 84.1781 47.0301 84.6134 47.2358L82.2345 40.3238L73.6892 32.855L68.6019 36.4569L60.776 44.2822L53.2035 47.0879L51.6208 48.8646V51.5731H51.6016Z" fill="#CCB360"/>
<path fill-rule="evenodd" clip-rule="evenodd" d="M68.593 47.6114C68.593 47.6114 68.8068 47.3983 69.1652 47.1071C69.5236 46.8159 69.962 46.4562 70.5828 46.4562C71.6894 46.4562 72.243 46.6213 72.8644 46.6213C73.4858 46.6021 73.8449 46.4562 73.8449 46.4562C73.8449 46.4562 74.4964 46.9119 75.9614 46.9119C77.4276 46.9311 78.4081 47.0572 79.1754 47.125C79.9428 47.1929 82.515 46.9119 83.2529 46.933C83.7338 46.9511 84.2061 47.0667 84.641 47.2729L83.5633 44.1561L82.3114 41.7778L78.7383 37.8649C78.7383 37.8649 74.4503 35.3407 74.4177 35.3215C74.3985 35.3023 72.9322 34.9138 72.9322 34.9138L69.0487 37.2633L65.5249 46.3801L65.457 48.3001L67.738 49.3778C68.3108 48.4178 68.9425 47.6498 69.5345 47.5525C69.0001 47.6108 68.5924 47.6108 68.5924 47.6108V47.6108L68.593 47.6114Z" fill="#D5B457"/>
<path fill-rule="evenodd" clip-rule="evenodd" d="M68.5443 48.2624C68.2045 48.2816 67.9235 48.2137 67.8454 47.9712C67.5542 47.1558 67.3213 47.0393 67.0774 47.0393C66.8336 47.0393 66.5046 47.5635 66.3094 47.6115C66.1142 47.6595 65.8826 47.0099 65.8826 47.0099L65.6688 46.9126C65.6688 46.9126 64.4163 47.728 63.5331 48.6892C62.6499 49.6505 61.2029 51.2819 60.5526 51.5724C59.9024 51.863 57.6688 51.9609 56.9046 52.126C56.1405 52.2912 55.2931 52.8448 55.1766 52.9708C55.0602 53.0969 55.5171 53.2326 55.585 53.3587C55.6528 53.4752 54.8368 53.4265 54.769 53.5507C54.721 53.648 54.961 54.2009 55.08 54.4825C55.2883 54.3789 55.5169 54.3226 55.7494 54.3174C56.497 54.2982 57.041 54.7936 57.9338 54.7936C60.0893 54.7936 62.0406 53.2108 63.4774 52.7251C64.536 52.366 65.4486 52.1036 66.0893 51.5212C66.3997 51.2595 66.9533 50.6764 67.4582 49.8124C67.8269 49.2204 68.1866 48.6668 68.5462 48.2592V48.2592L68.5443 48.2624Z" fill="#D2B257"/>
<path fill-rule="evenodd" clip-rule="evenodd" d="M37.6316 96.311C37.6316 96.311 37.4396 95.5923 35.6604 93.7382C35.1555 93.214 34.8451 92.7782 34.5052 92.4665C33.6604 91.6697 33.1651 91.4566 32.5635 91.0003C31.2432 90.0198 29.8064 90.0198 28.6998 88.8159C27.5933 87.6121 26.3037 85.3119 25.4076 82.9612C24.5245 80.6118 24.2812 79.8643 24.2812 79.7964C24.2812 79.7286 24.5245 79.2723 24.8349 79.3401C25.1453 79.4079 25.1453 80.0095 25.2233 80.1555C25.378 80.3936 25.5534 80.6176 25.7475 80.8249C26.2038 81.3497 26.854 81.9769 27.1843 82.9126C27.1164 82.1164 26.8444 81.2332 26.8444 81.2332C26.8444 81.2332 28.5533 82.311 30.0093 83.4367C31.4755 84.5631 32.0771 84.9516 32.5052 85.6697C32.9334 86.3878 33.9421 88.2815 34.4253 88.8351C34.9085 89.3887 41.5292 91.4758 41.5292 91.4758L44.6787 93.8239L46.2422 97.2511L45.0185 99.1711L42.6691 99.6761L38.8534 97.9673L37.6316 96.3103V96.3103V96.311Z" fill="#D2B159"/>
<path fill-rule="evenodd" clip-rule="evenodd" d="M29.1553 84.505C29.1553 84.505 29.9514 85.7767 31.8932 86.9805C33.641 88.0391 36.4078 89.0004 38.8743 89.5732C40.2913 89.913 41.7089 90.1748 42.9806 90.1946C46.4078 90.2426 48.7668 89.2628 51.6897 88.9421C53.2724 88.777 55.2142 88.6509 57.2334 88.1741C59.8254 87.5527 61.3594 86.8532 63.4471 85.8701C64.9614 85.1712 66.3502 84.6471 67.4759 83.977C69.0586 83.0452 70.2138 82.0064 71.554 81.696C71.3889 82.1524 71.2142 82.9677 69.8938 83.8125C70.5927 83.7927 71.554 83.7447 71.554 83.7447C71.554 83.7447 70.6222 84.2976 68.9812 85.5405C67.9713 86.3085 66.6318 87.6084 65.2628 88.4724C64.379 89.026 63.4177 89.4324 62.7866 89.7639C61.2506 90.6087 60.6311 91.0356 59.6218 92.0679C59.9809 92.0487 60.0103 92.0679 60.0103 92.0679C60.0103 92.0679 58.738 92.233 57.826 92.7181C57.634 92.7181 57.3012 92.6503 56.7188 92.8154C56.2625 92.9607 55.6602 93.2916 55.0394 93.4656C54.1556 93.728 53.865 93.6116 53.865 93.6116L54.0103 93.9028C54.0103 93.9028 52.8583 93.8829 52.4743 93.922C52.5422 93.9412 52.523 93.9706 52.523 93.9706C52.4555 93.9819 52.3905 94.0049 52.331 94.0384C52.1462 94.1582 51.9429 94.2466 51.7294 94.3002C51.6129 94.3194 51.5156 94.3194 51.3697 94.3488C51.4183 94.4653 51.7972 95.1168 51.9719 95.5008C51.8266 95.5981 49.6417 97.2487 49.6417 97.2487C49.7094 97.3553 49.7648 97.4693 49.8068 97.5885C49.8746 97.8016 49.9041 98.1127 49.9719 98.258C50.1364 98.5492 50.2337 98.5978 50.2337 98.5978C50.2337 98.5978 49.9719 98.6464 49.515 98.7629C49.1271 98.8602 48.651 99.0247 47.979 99.122C47.7728 99.1488 47.5654 99.165 47.3575 99.1706C47.4548 99.3844 47.8817 100.2 47.0951 101.141C46.3086 102.083 46.066 102.22 45.8234 102.821C45.7013 102.729 45.5713 102.647 45.435 102.578C45.1732 102.461 44.8135 102.287 44.6874 102.054C44.6139 102.365 44.5166 102.67 44.3962 102.966C44.1537 103.617 43.7946 104.258 43.7268 104.743C43.4644 104.452 42.9793 103.879 42.3092 103.996C41.6391 104.112 41.1054 105.025 40.9889 105.287C40.9889 105.122 40.8724 104.996 40.8436 105.19C40.8238 105.404 40.4551 107.636 38.3969 109.442C38.3777 108.986 38.3777 107.976 38.329 107.646C38.137 107.838 37.9022 108.122 36.5038 108.724C35.1348 109.325 35.3518 109.928 35.3518 109.928C35.3518 109.928 35.2353 108.968 35.9732 107.957C36.7207 106.947 37.177 106.471 37.177 106.394C37.165 106.315 37.1313 106.241 37.0798 106.18C36.9825 106.083 36.7886 105.966 36.7886 105.889C36.905 105.841 38.0602 105.287 37.9924 104.141C37.9246 103.112 37.4881 102.578 37.177 102.2C37.129 102.151 37.634 101.792 37.5655 101.676C37.5169 101.608 36.8961 101.151 36.818 100.908C36.8363 100.762 36.8689 100.619 36.9153 100.481C36.9831 100.267 37.0318 100.121 37.0126 99.9757C36.9639 99.7332 36.7015 99.0631 36.6241 98.9952C36.6919 99.0144 37.177 98.9952 37.177 98.9952C37.177 98.9952 36.7892 98.3738 36.7207 98.0826C36.6522 97.7914 36.507 97.024 36.4295 96.8788C36.5946 96.898 37.0023 96.9268 37.0023 96.8788C37.0222 96.7328 36.6433 96.4903 36.8103 96.3028C36.9268 96.322 37.1502 96.4192 37.3633 96.6912C37.2468 96.3802 37.0529 95.7786 36.6446 95.536C36.8366 95.4682 37.4894 95.2928 38.0622 95.6327C38.635 95.9725 38.8302 96.448 38.8302 96.448C38.8302 96.448 39.17 96.7104 39.6948 97.0989C40.2964 97.5744 41.0631 98.2509 42.2868 98.7296C42.5492 98.8756 43.2186 98.8756 43.7044 98.7783C43.9159 98.7279 44.1187 98.6461 44.306 98.5357C44.3736 98.4959 44.4453 98.4633 44.5198 98.4384C44.4154 98.229 44.2954 98.0276 44.1607 97.8362C44.3258 97.8362 44.5198 97.856 44.5198 97.856C44.5198 97.856 44.6362 97.5936 44.1121 97.088C44.2286 96.9716 44.3745 96.896 44.3745 96.6996C44.2094 96.6804 43.9182 96.4378 43.8503 96.3405C43.947 96.2727 44.0929 96.0493 44.258 95.9815C44.1121 95.865 43.753 95.3792 43.5879 95.3312C43.7457 95.2727 43.8983 95.2012 44.0442 95.1175C44.0442 95.1175 43.2289 94.9037 42.9665 94.729C42.7041 94.537 42.3162 94.2048 42.0833 94.1076C41.8401 94.0103 41.4132 93.9623 41.2385 93.7677C41.403 93.8164 41.6654 93.7677 41.8599 93.7677C42.0052 93.7677 42.0737 93.7869 42.1217 93.7869C42.1025 93.7191 42.1025 93.5732 42.4814 93.5252C42.6636 93.4977 42.8404 93.442 43.0055 93.36C43.0055 93.36 42.6458 93.3408 42.2375 92.9524C41.8292 92.5639 41.49 92.2535 41.257 92.2048C41.0145 92.1562 40.5582 92.37 40.2766 92.3501C39.8881 92.3021 39.723 92.1076 39.723 92.1076C39.723 92.1076 38.4321 92.224 35.5681 90.4768C33.0919 88.962 32.0142 87.6224 32.0142 87.6224C31.7824 87.5383 31.5584 87.4343 31.3447 87.3114C30.4129 86.8263 29.1214 85.8164 29.1604 84.4954V84.4954L29.1553 84.505Z" fill="#C2A44D"/>
<path fill-rule="evenodd" clip-rule="evenodd" d="M64.8732 26.233C65.0978 26.3059 65.2974 26.4406 65.4492 26.6215C65.9055 27.1456 66.1967 28.1357 65.158 29.1943C65.5657 29.3395 65.734 29.3863 66.0898 29.3395C65.7308 29.7671 64.9154 30.6797 64.8668 31.4759C64.8182 32.1261 65.2258 32.3207 65.2258 32.3207C65.2258 32.3207 64.6044 33.0387 64.5756 34.2407C64.8691 33.9097 65.1902 33.6044 65.5356 33.328C66.2543 32.7552 67.2444 32.105 67.9145 31.6973C67.9054 31.8682 67.9284 32.0392 67.9823 32.2016C67.9823 32.2016 69.2342 31.1725 70.2863 31.6295C70.7618 31.8432 70.5481 32.5127 70.5481 32.5127C70.5481 32.5127 71.199 32.2701 71.6553 32.7264C72.1116 33.1827 72.7567 34.3597 73.0876 34.816C73.2329 35.0298 73.6118 35.4375 73.9996 36.0685C74.5295 36.952 74.9719 37.885 75.3206 38.8544C75.3398 38.3495 75.4658 37.5635 76.9033 38.0583C78.3401 38.5632 79.9708 39.6218 81.3398 41.7063C82.7087 43.7907 83.0479 46.144 83.7372 47.04C84.4361 47.904 85.1548 49.3408 85.2034 49.9431C85.2521 50.5453 84.9897 52.4864 86.4265 57.7389C86.8342 56.1082 87.4556 52.4864 87.4556 52.4864L87.7954 49.2922L88.1839 39.4087L77.8633 30.8346L69.7954 24.9799L64.543 25.4848L64.8726 26.2323V26.2323L64.8732 26.233Z" fill="#CAA13E"/>
<path fill-rule="evenodd" clip-rule="evenodd" d="M84.0482 40.9415C84.0482 40.9415 83.9023 39.9815 81.4754 38.3495C79.0479 36.738 77.1548 36.738 75.4076 35.369C74.0674 34.2912 72.6697 31.8151 71.7596 30.9997C70.8757 30.194 70.7305 27.8637 70.7305 27.8637L73.7109 25.3677L78.1436 18.9607L81.8908 14.8346L83.6866 17.3306L86.1826 20.2624L87.5708 26.146L88.0757 34.7578L84.0437 40.9421L84.0482 40.9415Z" fill="#B59544"/>
<path fill-rule="evenodd" clip-rule="evenodd" d="M87.0487 51.264C87.1221 49.958 86.9609 48.6494 86.5725 47.4004C85.9325 45.41 84.5341 41.8759 83.8845 40.5524C83.6221 39.0861 83.8167 38.9696 84.0983 38.8045C84.3799 38.6394 85.4384 38.0365 86.0183 35.9213C86.5981 33.8061 88.3972 33.737 88.3972 33.737L89.5037 32.9216L91.1837 37.1252L92.6493 40.9216L93.1056 43.8247L93.4455 46.3002L92.6493 51.5335L88.7178 55.0868L87.048 51.264V51.264H87.0487Z" fill="#C89D3A"/>
<path fill-rule="evenodd" clip-rule="evenodd" d="M32.1846 109.593V109.486C32.2663 109.434 32.3384 109.369 32.3977 109.294C32.4655 109.196 32.5148 109.08 32.5628 109.051C32.6601 109.002 33.1164 108.859 33.359 108.905C33.6015 108.951 34.2428 109.215 34.5827 109.196C35.2815 109.177 36.0969 108.643 37.3884 108.886C39.3302 109.245 39.7865 110.565 40.9129 111.313C41.6809 111.838 42.4758 111.604 42.5922 111.604H42.854C42.9027 111.604 43.2617 111.196 43.4563 111.216C43.8447 111.235 43.8831 111.556 44.1257 111.575C44.6985 111.643 45.8057 111.284 46.3593 111.43C46.6925 111.534 46.9535 111.795 47.0582 112.128C47.1747 112.487 47.0774 112.943 46.7958 113.206C46.1942 113.759 45.6214 114.284 45.5049 114.742C45.653 114.855 45.7953 114.975 45.9311 115.103C41.1274 113.879 36.5056 112.028 32.1846 109.599V109.593Z" fill="#CEB052"/>
<path fill-rule="evenodd" clip-rule="evenodd" d="M83.8838 90.1946C83.8838 90.1946 85.398 88.1754 85.9228 87.175C86.447 86.144 84.2627 73.088 84.2627 73.088L88.6511 58.7098L88.534 54.0301C88.534 54.0301 88.7478 49.7094 89.2527 47.8355C89.855 48.9133 91.7289 50.2144 92.1366 50.9037C92.3286 49.5827 92.9807 46.7968 92.8841 43.8259C93.2431 44.3789 94.1071 49.9424 94.1071 49.9424L94.9711 53.6896L96.0975 57.6704L97.35 61.8746L98.0975 64.7776L98.5244 65.4765L98.8841 66.6995L99.2239 68.0205L100.204 71.1174L100.78 73.6608L101.237 78.2726C101.336 78.6258 101.407 78.9861 101.451 79.3504C101.47 79.8554 101.383 80.1466 101.383 80.2342C101.383 80.3219 101.548 81.3408 101.48 82.1082C101.383 82.8762 101.383 83.4771 100.78 84.0282C100.178 84.5792 99.7999 87.8726 99.7999 87.8726L98.7222 87.1546C98.7222 87.1546 98.9359 86.1734 98.431 85.2806C97.926 84.3878 96.9455 84.2029 96.3919 84.3488C95.839 84.4653 94.7324 84.6394 94.3727 84.9504C94.0329 85.2608 93.1983 86.2221 92.431 86.6592C91.471 87.2352 89.9068 87.2806 89.0723 87.4746C88.2275 87.6666 87.2956 88.2426 86.3145 88.9114C85.5453 89.4094 84.7331 89.8378 83.8876 90.1914V90.1914L83.8838 90.1946Z" fill="#CCA847"/>
<path fill-rule="evenodd" clip-rule="evenodd" d="M83.8838 111.408C83.8838 111.408 83.9478 111.45 84.0713 111.518C90.9689 108.286 97.1492 103.705 102.247 98.0455C102.192 96.0807 102.119 94.0666 102.04 93.3204C101.875 91.7377 101.992 90.1262 101.943 89.1943C101.895 88.2625 101.371 84.466 101.128 83.4855C100.866 82.505 100.36 82.0193 100.283 82.0193C100.215 82.0391 99.807 83.8644 99.807 84.3233C99.807 84.7822 99.7097 85.8868 99.7097 86.1684C99.6419 86.1486 99.6131 85.9764 99.6131 85.906C99.5158 86.1486 99.3993 86.5761 99.3507 86.6247C99.302 86.6734 99.4185 86.217 99.3507 86.1198C99.2828 86.0225 99.1587 86.0711 99.1855 85.8286C99.197 85.6847 99.2197 85.542 99.2534 85.4017C99.2534 85.4017 98.9622 85.8286 98.7491 86.9159C98.5353 87.9937 98.5353 88.0231 98.4579 88.1198C98.39 88.2369 98.0015 88.6247 97.9817 88.7706C97.9625 89.0324 98.3414 89.2948 98.3702 89.4401C98.3894 89.6833 98.0303 90.809 97.9139 91.3601C97.7974 91.9111 97.846 92.9908 97.7219 93.5444C97.6246 94.0494 97.5299 94.3406 97.1977 94.5537C97.4403 94.6023 97.6732 94.6702 97.6732 94.6702C97.6732 94.6702 98.0131 96.107 97.1491 97.3306C96.8387 97.7575 96.7612 97.9521 96.431 98.3406C95.7801 99.0586 95.2751 99.8766 95.2265 100.408C95.1929 100.251 95.1703 100.092 95.1587 99.9322C95.1587 99.9322 94.1494 101.107 93.7219 101.777C93.1689 102.641 92.4015 102.593 92.1859 102.806C91.9702 103.02 91.9235 103.408 91.9939 103.719C91.8019 103.767 91.4409 103.836 91.1977 104.583C91.0812 104.971 90.79 105.351 90.3337 105.612C89.8774 105.873 89.3238 105.952 89.0422 106.02C89.2847 106.088 89.382 106.088 89.4985 106.165C89.3532 106.408 88.6831 106.787 87.9356 107.272C87.1881 107.729 86.8284 108.398 86.6441 108.835C86.4521 109.243 86.1686 109.505 85.7123 109.554C85.9043 109.67 86.1884 109.942 86.3337 110.03C86.1199 110.078 85.7577 110.078 85.1107 110.632C84.431 111.195 84.198 111.36 83.887 111.409V111.409L83.8838 111.408Z" fill="#C39D3C"/>
<path fill-rule="evenodd" clip-rule="evenodd" d="M70.3743 115.907C70.7461 115.646 71.1487 115.433 71.573 115.272C73.0873 114.67 74.6892 114.553 75.3202 114.36C75.9225 114.168 76.398 113.903 77.1455 113.757C77.1257 113.928 77.109 114.088 77.0911 114.239C74.8873 114.931 72.6431 115.489 70.3711 115.907H70.3743Z" fill="#D2BA6B"/>
<path fill-rule="evenodd" clip-rule="evenodd" d="M98.3043 76.078C98.3043 76.078 97.9939 77.7574 97.4403 78.816C96.8867 79.8745 96.2883 81.3401 96.2883 81.3401C96.2919 81.0099 96.331 80.6809 96.4048 80.359C95.7059 80.7667 94.0067 81.7478 93.5248 82.1843C93.0684 82.592 92.3011 83.3107 92.1072 83.6505C92.5635 82.311 93.039 81.1072 93.1171 80.5536C92.4182 81.0585 89.1555 83.7478 87.4569 85.5244L82.1654 89.806C81.5548 90.1355 80.9259 90.4299 80.2819 90.688C79.3699 91.0758 78.2921 91.406 77.496 91.7171C77.7097 91.1443 78.0489 90.6387 78.5251 90.1536C79.03 89.678 80.5443 88.0371 80.7772 87.2736C80.991 86.4774 81.0396 86.0019 80.758 85.3318C80.4956 85.3996 79.894 85.4291 79.4864 85.5456C79.0787 85.662 78.6416 86.0985 78.6416 86.0985C78.6416 86.0985 78.952 84.3219 79.622 82.6425C79.1171 82.6617 78.2531 82.807 78.2531 82.807C78.2531 82.807 79.4569 80.7878 81.5171 79.3804C80.8862 79.5147 80.2688 79.7062 79.6726 79.9526C78.4688 80.4576 77.1484 81.2051 76.168 81.6128C76.7209 80.8448 80.6044 75.3024 82.9155 70.1369C85.2195 64.9817 86.0803 63.6614 86.5852 60.8947C86.847 59.5257 86.7772 57.5027 86.847 55.6908C86.9148 53.8944 87.1382 52.2828 86.9929 51.2051C87.5945 51.9526 89.8473 54.0595 89.9248 58.7686C89.9926 63.4771 87.7699 69.8368 85.4102 73.2633C85.9862 73.4284 87.4787 73.623 89.0121 70.9593C90.5456 68.2956 90.527 67.552 91.0806 66.4448C91.1484 66.9984 91.1286 67.1923 91.1286 67.1923C91.1286 67.1923 93.3622 64.4838 94.4201 61.0758C94.6339 62.542 95.2649 63.8336 94.2742 66.5228C93.391 68.9497 92.2358 69.5424 92.2358 69.5424C92.2358 69.5424 92.8086 69.4451 93.6528 68.9401C93.7987 69.2992 93.7699 69.7081 94.0124 69.8528C94.255 69.9974 94.5852 70.2412 94.6339 70.4742C94.8956 70.0857 95.3033 69.5904 95.43 69.2217C95.3328 69.9897 95.2649 73.3478 95.622 75.0566C96.3702 74.9888 97.1369 74.9401 97.6611 73.5904C97.302 74.9113 97.302 75.7068 97.5446 76.8332C97.9427 76.5619 98.3017 76.0761 98.3017 76.0761V76.0761L98.3043 76.078Z" fill="#C0993A"/>
<path fill-rule="evenodd" clip-rule="evenodd" d="M73.0773 22.5633C73.0773 22.5633 72.3298 22.8737 71.0581 22.8737C69.9516 22.8737 70.262 22.4468 68.534 22.4468C65.8741 22.4468 56.5826 23.9828 54.9512 23.961C53.8927 23.9418 58.5237 24.4173 58.5237 24.4173L70.3592 24.5825L72.7375 24.3905L73.6213 22.5921L73.0773 22.5633Z" fill="#A88F33"/>
<path fill-rule="evenodd" clip-rule="evenodd" d="M42.3887 45.6991C42.3887 45.6991 40.8739 46.8543 40.2332 47.7382C39.5926 48.622 39.2527 49.2038 38.5244 49.9225C38.6954 49.929 38.8662 49.9061 39.0294 49.8546C39.0294 49.8546 39.0294 50.0466 38.9129 50.0972C39.1168 50.0744 39.32 50.145 39.4659 50.2892C39.2521 50.4057 38.6697 50.9887 39.126 51.678C39.4659 52.2022 40.1846 52.2502 40.1846 52.2502C40.1846 52.2502 40.0195 52.7263 40.7087 52.6777C42.1942 52.6098 43.8543 51.959 44.6211 52.1241C45.3891 52.3161 45.8255 52.3865 46.3689 53.3286C46.9449 54.2604 47.4467 54.4063 47.4467 54.4063C47.4467 54.4063 47.7865 53.5417 47.7091 52.2508C47.9877 51.555 48.1421 50.8157 48.1654 50.0665L47.6604 46.3481L45.4569 43.5615L42.6025 45.1442L42.3887 45.6972V45.6991Z" fill="#E3C571"/>
<path fill-rule="evenodd" clip-rule="evenodd" d="M45.0967 45.1457C45.0967 45.1457 45.3104 45.6507 46.2039 45.6987C46.1066 45.9124 46.1066 45.9419 46.136 46.1063C46.1552 46.2715 46.184 46.514 46.184 46.514C46.2824 46.4664 46.3713 46.4014 46.4464 46.322C46.4951 46.5358 46.3978 46.875 46.4464 47.1182C46.4765 47.2661 46.5253 47.4096 46.5917 47.5451C46.6059 47.5119 46.6221 47.4796 46.6404 47.4484C46.6596 47.3998 46.8324 47.9726 47.3104 48.4084C47.31 48.3414 47.3265 48.2754 47.3584 48.2164C47.3658 48.3382 47.406 48.4556 47.4749 48.5563C47.4391 48.5392 47.4065 48.5163 47.3783 48.4884C47.3783 48.4884 47.4263 50.0244 47.6887 50.8187C47.7325 50.7673 47.7715 50.7121 47.8052 50.6535C47.8052 50.6055 47.786 51.0811 47.7373 51.4215C47.6695 51.7614 47.7181 52.2369 47.7181 52.2369C47.8932 52.0991 48.0855 51.9848 48.2903 51.8971C48.5815 51.7799 49.0583 51.4209 49.3488 50.6247C49.5174 50.1739 49.6474 49.7095 49.7373 49.2366C49.8312 49.4173 49.896 49.6117 49.9293 49.8126C49.9492 50.0551 50.4055 49.9291 50.4055 49.9291L50.5028 48.8705L51.0788 46.4724L51.6029 44.987L54.1271 41.0555L58.6877 37.5431L62.6685 38.4558L66.0272 33.8926L60.241 30.4167L54.7652 30.9895L49.7956 37.8727L45.8154 44.1159L45.0967 45.1451V45.1451L45.0967 45.1457Z" fill="#D8B65B"/>
<path fill-rule="evenodd" clip-rule="evenodd" d="M73.7765 35.1847C73.7765 35.1847 73.4367 35.2525 72.4562 35.7607C71.4757 36.2688 70.7961 36.4301 70.4172 37.1776C70.0383 37.9252 70.0095 38.5178 70.0095 38.5178C70.0095 38.5178 70.6796 38.2266 71.0681 38.1293C71.4757 38.0327 71.9321 38.0615 71.8834 38.2266C71.8367 38.3398 71.7719 38.4447 71.6914 38.537C71.6914 38.537 72.4594 38.5178 72.4389 38.8967C72.4185 39.2756 72.2937 39.6928 72.1484 39.8772C72.0025 40.0692 71.4009 40.3533 71.333 40.5767C71.1679 41.033 71.4009 41.0522 71.3132 41.4208C71.2453 41.7805 70.9253 42.4794 69.8764 43.7024C68.7986 44.9261 68.3404 45.7901 68.3404 45.7901C68.3404 45.7901 67.8162 44.8096 67.5442 43.9648C67.3522 44.0615 66.3212 44.6343 66.3212 44.6343L63.9327 36.3143L63.9807 35.7607C63.9807 35.7607 64.1945 35.4989 64.2431 35.0132C63.8841 34.8967 63.8354 34.7994 63.3593 34.3437C62.8831 33.888 62.4953 33.3338 61.6997 32.9549C61.5833 32.7412 61.4373 32.4506 60.8549 32.3335C60.2725 32.2164 59.9231 32.1204 59.9231 32.1204C59.9231 32.1204 60.2335 32.0032 60.3794 31.7607C60.0197 31.8093 59.7292 31.9258 58.9426 31.9066C58.1465 31.8868 58.0588 31.858 57.6223 31.9258C57.1858 31.9936 56.6623 32.1882 56.4671 31.5181C56.2533 31.353 55.797 31.4989 55.4085 32.0711C55.0201 32.6432 54.8844 33.1002 54.1369 33.3236C54.0843 33.6531 53.9689 33.9694 53.797 34.2554C53.5833 34.6151 53.2434 34.9741 52.7871 35.5079C52.0684 36.3527 52.1849 37.7408 51.0393 38.7994C49.8841 39.8573 51.2313 35.8669 51.2313 35.8669L53.0757 31.4509L58.3282 26.3149L66.4837 25.762L67.2799 29.986L71.2607 31.3549L73.7753 35.1898V35.1898L73.7765 35.1847Z" fill="#D3AE4D"/>
<path fill-rule="evenodd" clip-rule="evenodd" d="M75.0683 36.1165L71.6411 31.1751L69.243 29.33C69.243 29.33 67.5342 26.185 67.4177 26.0877C67.3205 26.0199 65.7089 25.8452 64.6798 25.7773L64.8718 26.2529C65.0964 26.3258 65.296 26.4604 65.4478 26.6413C65.9041 27.1655 66.1953 28.1556 65.1566 29.2141C65.5643 29.3594 65.7326 29.4061 66.0885 29.3594C65.7294 29.7869 64.9141 30.6996 64.8654 31.4957C64.8168 32.146 65.2245 32.3399 65.2245 32.3399C65.2245 32.3399 64.603 33.0586 64.5742 34.2599C64.8677 33.929 65.1889 33.6236 65.5342 33.3473C66.2529 32.7713 67.243 32.1236 67.9131 31.7159C67.904 31.887 67.927 32.0583 67.9809 32.2209C67.9809 32.2209 69.2328 31.1917 70.2849 31.6481C70.7605 31.8618 70.5467 32.5319 70.5467 32.5319C70.5467 32.5319 71.1976 32.2893 71.6539 32.7457C72.1102 33.202 72.7605 34.3764 73.0907 34.8333C73.236 35.0471 73.6149 35.4548 74.0027 36.0852C74.5327 36.9688 74.9751 37.9021 75.3237 38.8717C75.3429 38.4833 75.4209 37.9399 76.0917 37.9399L75.0721 36.1146L75.0683 36.1165Z" fill="#CAA13E"/>
<path fill-rule="evenodd" clip-rule="evenodd" d="M23.6898 50.1554C23.6898 50.1554 23.4473 49.5532 23.6898 48.3788C23.9324 47.2044 24.3113 46.6508 24.4374 44.9228C24.5634 43.1948 25.6898 41.0393 25.6898 41.0393L28.806 39.6223L31.0102 40.2239L31.6604 43.1756L28.8738 44.7116C28.8738 44.7116 28.7286 45.3618 27.942 45.886C27.1554 46.4102 26.0681 46.8178 25.8063 47.3522C25.6498 47.6795 25.5356 48.0253 25.4665 48.3814C25.4665 48.3814 24.6703 48.2162 24.1948 48.7404C23.6898 49.2748 23.709 49.7503 23.6898 50.158V50.1554Z" fill="#F4EFC8"/>
<path fill-rule="evenodd" clip-rule="evenodd" d="M29.9806 49.3691C29.9806 49.3691 29.7182 49.5342 29.5243 49.9451C29.3323 49.6347 28.8734 47.7896 28.8542 46.1294C28.835 44.4692 28.7358 44.0577 29.1198 43.4856C29.5038 42.9134 31.0097 42.3105 30.7959 41.2801C30.5822 40.2996 29.6887 39.892 28.5918 40.1736C27.8238 40.3656 27.2523 41.9988 26.4561 42.8142C25.8539 43.4356 25.1358 43.3384 24.9419 43.6782C24.6795 44.1345 24.922 44.5908 24.8446 44.882C24.8247 44.9793 24.5822 45.5035 24.1451 46.1345C23.2619 47.4062 21.7668 49.2027 21.5723 50.8142C21.6401 49.9016 21.5921 49.8824 21.8347 48.8724L21.6887 48.6299L22.6487 45.4843L23.2702 42.8923L24.659 38.5518L27.1051 34.1153L29.4839 31.4548L31.9595 31.62L32.2507 35.3384L33.6683 42.3195L36.6487 45.9892L31.8718 49.204L29.9787 49.3691V49.3691H29.9806Z" fill="#EBCC73"/>
<path fill-rule="evenodd" clip-rule="evenodd" d="M31.4662 50.6879C31.4662 50.6879 31.0585 50.7852 30.9126 50.7078C30.7667 50.6303 30.622 50.5427 30.67 50.4454C30.718 50.3481 30.9804 50.1836 30.9804 50.1055C30.9916 49.9589 30.8842 49.8298 30.7379 49.8143C30.5145 49.7855 30.4467 49.9308 30.4467 49.9308C30.4467 49.9308 30.2329 49.7663 30.0588 49.7388C30.1618 49.7262 30.2655 49.7196 30.3692 49.719C30.1009 49.5975 29.8163 49.5157 29.5244 49.4764C29.767 49.3311 30.2431 48.9036 30.5535 48.9036C30.8639 48.9036 31.0585 48.8556 31.0099 48.6905C30.9612 48.5254 30.7187 48.2828 30.4569 48.1855C30.5535 48.0691 30.622 47.8943 30.3891 47.4175C30.1459 46.942 30.2431 46.6214 30.3212 46.5055C30.3891 46.3596 30.6316 46.0979 30.7481 45.9327C30.8646 45.7676 30.9619 45.5443 31.1558 45.4278C31.2531 45.3599 31.5635 45.2358 31.8745 45.1174C32.2143 45.0009 32.4959 44.855 32.6899 45.0009C32.9036 45.1462 32.8063 45.3407 32.8063 45.3407C32.8063 45.3407 33.4764 45.0975 34.078 45.4086C34.6803 45.6991 36.1465 45.8841 36.1465 45.8841L36.6719 46.9427L33.1961 49.9231L31.7593 50.6419L31.4681 50.6899V50.6899L31.4662 50.6879Z" fill="#E5C66B"/>
<path fill-rule="evenodd" clip-rule="evenodd" d="M36.2913 45.8158C36.2913 45.8158 35.2135 46.5345 34.971 46.7963C35.1162 46.8161 35.3588 46.9134 35.2615 47.0587C35.145 47.204 34.4462 47.7089 34.0577 48.1851C33.65 48.6606 33.2615 49.2628 33.1258 49.554C32.9806 49.8158 31.8734 50.5832 31.4951 50.6798C32.2913 50.6798 33.8932 49.6993 34.4948 49.6993C34.4756 49.9905 34.6599 50.3208 34.9998 50.3496C35.3396 50.3784 36.3201 50.5633 37.6404 49.748C38.9607 48.9518 38.5242 48.3592 39.0772 47.9713C40.1358 47.2718 40.5626 46.6504 41.145 46.2625C41.7274 45.8747 42.0289 45.7864 42.0289 45.7864C42.0289 45.7864 42.0481 45.4952 42.2209 45.5246C42.3173 45.5356 42.3996 45.5992 42.4346 45.6897C42.4346 45.6897 43.4446 44.971 44.7386 44.7771C44.7084 44.7636 44.6843 44.7394 44.6708 44.7092C44.6708 44.7092 44.7674 44.6606 44.7873 44.612C44.7873 44.612 44.8551 44.5147 44.9038 44.5633C44.9524 44.612 45.0202 44.971 45.1175 45.1169C45.3313 45.0196 45.739 44.107 45.739 44.107L46.7201 41.3012V38.738L45.9521 38.884L40.1921 41.33L36.6964 44.9518L36.2887 45.8158H36.2913Z" fill="#E6BD62"/>
<path fill-rule="evenodd" clip-rule="evenodd" d="M52.874 33.2428C53.1856 33.1672 53.4843 33.046 53.7604 32.8831C53.6439 33.1942 53.6439 33.534 53.139 34.2719C52.634 35.0099 52.6148 35.1167 52.2071 35.8835C51.7994 36.6796 51.7508 37.8252 51.3623 38.3295C51.5364 38.2449 51.7232 38.1894 51.9153 38.1651C51.9153 38.1651 51.5274 38.5049 51.3623 38.8639C51.1972 39.223 50.906 39.9705 50.1879 40.4275C49.4698 40.8844 48.5566 41.175 47.5761 42.2527C46.595 43.3107 45.5857 44.6508 45.0801 45.1327C45.3425 44.6764 45.7015 43.7638 45.7988 43.1622C45.8961 42.5606 45.779 41.8412 45.9441 41.0457C46.1092 40.2502 46.1092 39.6767 46.9041 38.2879C47.699 36.8991 49.0596 32.0742 49.0596 32.0742L51.9914 31.1423L52.8753 33.2396V33.2396L52.874 33.2428Z" fill="#B6933F"/>
<path fill-rule="evenodd" clip-rule="evenodd" d="M50.7574 31.4663C50.7574 31.4663 49.8742 32.7379 49.6317 33.8643C49.3891 34.9907 49.6118 34.8935 49.4665 35.4471C49.3796 35.7846 49.3796 36.1387 49.4665 36.4762C49.7724 35.9834 50.1912 35.5705 50.6883 35.2717C51.5235 34.7674 52.2032 34.4077 52.6083 33.9808C53.016 33.5245 53.3558 32.777 54.239 32.2042C53.88 32.1555 53.375 31.9904 53.279 32.0122C53.6387 31.6045 54.7158 30.9831 55.8032 30.2355C56.8809 29.4675 56.8131 29.1578 58.5609 28.3911C57.9881 28.4883 57.7161 28.3424 57.24 28.3911C57.432 27.9834 58.104 27.7888 58.776 27.1194C59.448 26.4499 58.3491 25.4592 58.3491 25.4592L53.2291 28.5562L50.7536 31.4688L50.7574 31.4663Z" fill="#C49937"/>
<path fill-rule="evenodd" clip-rule="evenodd" d="M36.8643 29.1553L36.9807 28.2234L38.447 25.874L39.9811 21.7479V16.1069L39.8646 12.8448L40.1071 10.7085L40.2915 10.0295L40.486 9.76709L41.7379 10.4173L43.4665 12.7668L43.6316 17.3012L41.9516 24.4564L37.1555 29.6896L36.8643 29.1553V29.1553Z" fill="#DFC068"/>
<path fill-rule="evenodd" clip-rule="evenodd" d="M40.6796 9.50465C40.6796 9.50465 39.9116 9.52449 39.7478 12.7187C39.5839 15.913 39.5046 17.5923 39.3881 19.1751C39.2716 20.7578 39.0002 21.7184 38.8639 22.6509C38.7276 23.5834 38.6502 24.8544 38.2137 25.6314C38.0217 25.9904 37.6114 27.1168 36.6502 27.9616C35.5724 28.8935 33.9622 29.5443 33.7183 29.593C33.2908 29.6896 31.1257 29.9034 30.2425 30.3891C29.9321 30.5543 29.3977 30.7482 28.8057 31.3018C27.6306 32.3597 26.0678 34.2528 24.9414 36.5344C23.2134 39.9424 21.4854 49.5635 21.4854 49.5635L21.8738 48.9133C21.8738 48.9133 21.9225 48.0493 22.7865 46.5344C23.6313 45.0202 23.3887 43.321 24.5631 40.4179C25.0194 39.3114 25.5922 37.8746 26.2911 36.6509C27.3983 34.6605 28.7378 32.9517 30.0876 32.0199C32.2911 30.5056 34.7186 30.1754 34.7186 30.1754L37.3305 28.4474C37.3305 28.4474 37.7868 27.5642 38.389 26.5543C39.2332 25.1373 40.309 23.5546 40.5439 21.2538C40.9036 17.8458 40.039 15.6128 40.0876 13.5936C40.1362 11.5744 40.1554 10.089 40.5638 9.72929C40.9721 9.36961 40.6802 9.50593 40.6802 9.50593V9.50593L40.6796 9.50465Z" fill="#A88F33"/>
<path fill-rule="evenodd" clip-rule="evenodd" d="M40.68 24.7475C40.68 24.7475 41.832 21.9123 42.3593 19.3978C42.4566 18.8928 42.6505 18.3885 42.6992 17.9808C42.9417 15.6019 43.0096 14.6214 42.6992 13.3203C42.4566 12.3603 41.5248 11.495 41.039 10.8243C40.5635 10.1248 40.3401 9.86432 40.4374 9.71712C40.5347 9.56992 40.9129 9.32928 41.2816 9.35808C42.0735 9.38113 42.8212 9.72817 43.3501 10.3181C44.0976 11.1821 44.6896 14.1146 44.6896 14.1146L45.3123 17.984L46.895 22.8576L40.6813 24.7514V24.7514L40.68 24.7475Z" fill="#C99E3D"/>
<path fill-rule="evenodd" clip-rule="evenodd" d="M51.5045 21.7965C51.5045 21.7965 51.2907 21.8932 50.9029 21.7965C50.9366 22.1197 50.7866 22.4345 50.5144 22.6119C50.1067 22.4468 46.2904 22.777 46.2904 22.777C46.2904 22.777 44.5138 22.466 43.9602 20.1165C43.5723 18.553 44.2514 16.3981 44.028 14.9805C43.6882 12.8929 43.2126 12.4845 43.164 11.8349C43.1154 11.1853 43.0667 11.0196 43.0667 10.6119C42.853 10.5633 42.7269 10.4954 42.5138 10.4954C42.4651 10.3034 42.5618 10.1357 42.3486 9.7959C42.4651 9.84454 43.2613 9.94182 44.1931 10.825C44.9611 11.5437 44.9611 11.8055 45.077 11.9514C45.2222 12.0967 46.3973 13.1034 46.9022 14.1069C47.4072 15.1105 48.3877 18.3105 48.611 18.8346C48.6789 19.0484 48.8248 19.2621 49.187 19.7473C49.7502 20.4468 50.5752 21.6033 51.507 21.7953V21.7953L51.5045 21.7965Z" fill="#B58634"/>
<path fill-rule="evenodd" clip-rule="evenodd" d="M45.2139 12C45.802 12.9501 46.3304 13.9359 46.7959 14.9517C47.3687 16.2426 47.7086 17.3011 48.4273 18.1651C48.0388 17.0394 47.3495 14.8256 46.9419 14.039C46.4855 13.207 45.5537 12.311 45.2139 12.0006V12.0006V12Z" fill="#A88F33"/>
<path fill-rule="evenodd" clip-rule="evenodd" d="M38.6122 27.9616C38.6122 27.9616 37.6317 28.2041 35.8064 29.1654C35.2042 29.4758 34.632 29.7376 34.0784 29.9808C32.6403 30.631 31.0979 31.232 29.8743 31.5635C29.9715 31.68 30.0195 31.728 30.0195 31.728C30.0195 31.728 30.0195 32.2041 30.2819 32.4755C30.1367 32.6214 28.1943 33.9417 28.7677 38.359C29.1555 38.2137 29.6119 38.0192 29.6797 38.0192C29.7968 38.039 29.8256 38.359 29.9709 38.359C30.1162 38.359 30.5923 38.167 31.0973 37.5142C31.0781 37.7766 30.7869 40.4173 32.3498 42.1939C32.641 41.8541 33.3789 40.7277 33.3789 40.7277L33.3981 40.3686C33.3981 40.3686 33.4659 39.1161 33.8743 37.9705C34.2826 36.8249 35.0781 35.9801 35.0781 35.9801L39.2323 30.048L38.6109 27.9609V27.9609L38.6122 27.9616Z" fill="#E6C367"/>
<path fill-rule="evenodd" clip-rule="evenodd" d="M34.7282 36.672C34.538 36.8064 34.3285 36.911 34.1068 36.9824C34.0389 36.7398 33.9417 35.9046 34.5145 35.0892C35.1845 34.1081 36.6501 32.8364 37.0578 31.8252C37.3202 31.1744 37.2037 29.5436 39.534 27.456C41.8642 25.3683 42.7762 24.6502 42.7762 24.6502L46.5433 22.7571L51.1743 24.5824L48.8735 33.6L47.0873 37.824L39.9833 36.4844L34.7276 36.672V36.672H34.7282Z" fill="#DCBA5A"/>
<path fill-rule="evenodd" clip-rule="evenodd" d="M37.4404 34.2234L38.3243 33.1168V32.3303C38.3243 32.3303 39.3047 32.0679 40.3627 30.9901C41.4206 29.9124 42.8868 27.8445 44.1783 27.9706C45.4699 28.1165 45.5959 30.7764 45.6446 31.5245C45.6932 32.2727 45.8583 33.9706 46.1201 34.8839C46.4113 35.7965 42.9745 39.2525 42.9745 39.2525L40.6404 41.0292L37.4404 34.2234V34.2234Z" fill="#E9CE77"/>
<path fill-rule="evenodd" clip-rule="evenodd" d="M40.1748 43.4368C40.1748 43.4368 40.8935 42.3104 40.3668 42.0678C40.6772 41.369 41.25 40.631 41.25 40.631C41.25 40.631 41.6577 39.6218 42.978 38.3789C44.2983 37.136 45.1143 36.3104 45.3281 35.4758C45.4599 34.9319 45.5315 34.3752 45.5418 33.8157C45.6846 33.9323 45.8373 34.0362 45.9982 34.1261C46.2119 34.2234 47.2212 35.0579 47.0759 36.7379C46.9306 38.4179 46.3079 39.1168 46.3079 39.1168C46.3079 39.1168 45.7063 39.7184 45.2794 40.0294C44.8225 40.3398 44.658 40.6989 43.8906 40.7283C43.9695 40.6656 44.0582 40.6163 44.153 40.5824C44.153 40.5824 43.3569 40.4858 42.9294 40.8736C42.5018 41.2614 41.593 42.4563 41.1367 42.816C40.6804 43.1072 40.1767 43.4374 40.1767 43.4374V43.4374L40.1748 43.4368Z" fill="#CDAE50"/>
<path fill-rule="evenodd" clip-rule="evenodd" d="M72.4561 24.5529C71.3091 24.1349 70.1036 23.8991 68.8836 23.8541C66.8446 23.7862 63.8641 23.9027 60.9418 23.9219C57.7962 23.9411 54.9418 22.8441 50.9809 22.6502C50.3306 22.2617 48.6769 20.5626 43.5146 24.1645C43.825 24.1453 47.2625 23.3683 48.4561 24.864C49.6599 26.3494 49.3201 28.8736 49.1556 29.4752C48.8446 30.8154 47.8346 32.7667 47.4276 34.1357C47.0206 35.5046 47.1166 36.224 46.8254 37.184C46.5342 38.144 45.8935 38.6208 46.2718 39.7274C46.7767 39.417 47.0398 39.417 47.8833 37.5238C48.7268 35.6307 48.5534 34.281 49.9518 32.679C51.3207 31.0675 53.5998 28.8634 54.4663 28.3098C55.3329 27.7562 62.2135 24.1837 69.418 27.5917C71.1556 27.4074 72.4567 24.5523 72.4567 24.5523V24.5523L72.4561 24.5529Z" fill="#D2A83E"/>
<path fill-rule="evenodd" clip-rule="evenodd" d="M46.4177 23.232C46.4106 23.159 46.3945 23.0872 46.3697 23.0182C46.3024 22.8762 46.2139 22.7453 46.1073 22.6297C46.1073 22.6297 44.3985 22.3193 43.5345 22.416C42.0197 22.5811 40.6507 24.455 40.0101 25.4163C39.3694 26.3776 38.5733 27.8624 37.7093 28.6297C37.7187 28.555 37.7015 28.4793 37.6606 28.416C37.6606 28.416 37.7093 28.4838 37.6126 28.5811C37.516 28.6784 37.5153 28.7264 37.564 28.7731L37.7099 28.9184C37.7579 28.9184 39.0981 28.3161 40.9233 26.6144C42.8651 24.8377 44.3505 23.9264 45.1275 23.6141C45.5418 23.438 45.9749 23.3098 46.4184 23.232V23.232H46.4177Z" fill="#C29637"/>
<path fill-rule="evenodd" clip-rule="evenodd" d="M79.5637 15.9321C79.5637 15.9321 79.2527 16.32 78.8642 16.7475C78.0002 17.6601 76.8738 18.6886 75.9125 19.7472C75.0005 20.7571 73.9714 21.5436 72.8156 22.864C71.6597 24.1843 70.3196 25.6499 69.9804 26.0774C69.67 26.5049 69.4274 27.2038 69.4274 27.5628C69.2623 27.4464 69.0684 27.3203 69.0684 27.3203C69.15 27.4727 69.2476 27.616 69.3596 27.7478C69.6021 28.0876 69.9804 28.5158 70.1749 28.7769C70.4136 29.1093 70.5849 29.4853 70.6792 29.8835C70.7957 29.9027 71.5432 30.0486 72.4757 28.5145C73.4082 26.9804 74.6306 25.3011 74.6306 25.3011L76.5724 22.4172L77.796 19.9712L79.332 17.2332L79.5656 15.9321V15.9321H79.5637Z" fill="#AC8132"/>
<path fill-rule="evenodd" clip-rule="evenodd" d="M81.5541 13.9712C81.5541 13.9712 80.379 14.9312 79.9227 15.5072C79.4664 16.0832 78.3867 17.5949 78.3867 17.5949L78.7752 17.5462L80.7464 15.799L81.5144 14.4301L81.5534 13.9738L81.5541 13.9712Z" fill="#A88F33"/>
<path fill-rule="evenodd" clip-rule="evenodd" d="M81.1946 91.1264C81.1946 91.1264 81.1754 90.3303 81.6221 89.8548C82.0784 89.3786 83.2336 88.6797 84.36 86.0583C85.4864 83.4368 85.6119 82.8448 85.6119 82.8448C85.6119 82.8448 83.5927 84.5728 82.3479 84.9805C82.6391 84.3783 82.8042 83.9514 82.9501 83.6404C82.785 83.4951 82.0861 83.33 82.0183 83.2525C82.4061 82.864 82.6199 81.9124 83.4064 81.2813C84.4163 80.5133 86.2608 79.1936 87.6944 78.0173C89.128 76.841 91.9466 74.105 92.3063 73.3088C92.52 73.6192 92.568 73.8132 92.568 73.8132C92.568 73.8132 91.1511 75.6583 90.4131 76.8327C89.7623 77.8426 89.8109 78.4154 89.8109 78.4154L91.1511 77.8394C91.1511 77.8394 91.5389 79.2762 89.7821 81.4612C90.5501 81.17 90.8599 81.3447 91.2963 81.1015C90.5776 81.5584 89.5875 82.1799 88.6557 83.888C87.7431 85.5968 86.5002 87.5872 84.4035 88.8295C82.3645 90.1402 81.1895 91.1207 81.1895 91.1207V91.1207L81.1946 91.1264Z" fill="#A67A2E"/>
<path fill-rule="evenodd" clip-rule="evenodd" d="M75.9319 25.5635C75.9319 25.5635 75.1357 27.2231 75.0193 28.5146C75.0001 28.8256 74.922 29.0682 74.922 29.4272C74.9028 30.5824 74.9898 31.8739 74.73 32.4755C74.6327 32.233 74.5841 32.0679 74.4868 31.9712C74.3415 32.3789 74.0791 33.6506 73.8653 34.1261C73.7687 33.8157 73.5549 32.7379 73.5748 31.4663C73.5946 30.1946 73.6228 29.9514 73.6228 29.6896C73.5748 30.0775 73.3124 30.6023 73.2151 30.9127C73.0698 30.6509 72.9047 30.3111 72.7101 30.0295C72.5937 30.2215 72.4484 30.505 72.3223 30.6509C72.3025 30.5344 72.2545 30.2234 72.225 29.7869C72.2058 29.2819 72.1764 28.6317 72.2058 28.4954C72.2538 28.2336 72.6621 27.2045 73.5261 26.2624C74.5553 25.136 75.6138 22.9715 75.9242 22.3015C76.2346 21.6314 77.5549 18.8455 77.5549 18.8455H78.5649L77.0986 22.185C77.0986 22.185 76.2154 24.0103 75.7591 24.681C75.3028 25.3517 74.3415 27.2736 73.914 28.0211C74.2244 27.6135 74.4868 27.3997 74.7978 27.0112C75.0986 26.7392 75.9332 25.5648 75.9332 25.5648V25.5648L75.9319 25.5635Z" fill="#8C6228"/>
<path fill-rule="evenodd" clip-rule="evenodd" d="M81.573 13.8445C81.408 14.3522 81.1473 14.8236 80.805 15.2333C80.2028 15.952 78.9112 16.9126 78.2808 17.6794C77.7048 18.4269 76.5528 20.4659 77.0764 22.8832C77.2684 22.359 77.63 21.3203 78.5912 20.1453C79.5525 18.9702 80.5816 17.6211 81.0872 16.5728C81.5916 15.5142 81.6594 14.6797 81.6594 14.6797L81.8514 14.4371L81.7349 13.8835L81.5698 13.8445L81.573 13.8445Z" fill="#CBA94C"/>
<path fill-rule="evenodd" clip-rule="evenodd" d="M101.233 78.2425C101.233 78.2425 100.845 77.1846 100.728 76.2233C100.612 75.262 100.92 75.0713 100.563 73.9712C100.349 73.3011 99.9613 73.3952 99.864 73.3011C99.7667 73.207 99.6989 72.1945 99.7181 71.6409C99.7373 71.0873 99.6989 70.3692 99.6016 70.0582C99.4563 69.9417 99.3591 69.8444 99.1453 69.1264C98.9027 68.4076 98.7863 68.0486 98.6698 67.8355C98.5533 67.6224 98.2128 67.4278 98.2128 67.214C98.2128 66.7865 98.6013 66.5638 98.6013 66.446C98.5821 66.2035 98.2909 66.398 98.2128 66.3296C98.1162 66.2131 98.456 65.5142 98.3299 65.4169C98.2813 65.3689 97.9415 65.7766 97.8538 65.6601C97.7565 65.543 97.64 64.3878 97.4653 63.6211C97.3008 62.8736 97.1255 62.3302 97.1063 62.1068C97.0871 61.8931 95.7661 58.126 95.4461 57.2134C95.1882 56.4422 94.9712 55.658 94.7959 54.864C94.6986 54.4076 94.6307 53.4752 94.5821 53.5724C94.5335 53.6697 94.5629 54.1452 94.4848 54.126C94.417 54.1062 94.1744 52.4467 94.097 52.1843C94.0291 51.9219 93.6208 51.0323 93.521 50.3884C93.4237 49.7376 93.2106 48.0384 93.0647 46.8832C92.9187 45.728 92.8509 45.2524 92.8509 44.9632C92.8748 44.2556 92.8358 43.5473 92.7344 42.8467C92.5424 41.623 92.1584 40.1376 91.8218 39.2742C91.1715 37.6428 89.4429 33.4681 89.1338 32.4294C89.1338 32.167 89.4736 32.3129 89.4736 32.3129C89.4736 32.3129 90.3178 34.4294 90.9392 36.0601C91.5415 37.6915 92.1143 39.1283 92.2602 39.2742C92.3767 39.4195 93.2893 41.0214 93.697 43.6428C94.1047 46.2643 94.2499 48.6816 94.4931 50.2931C94.6096 51.0611 94.7069 51.8758 94.9495 52.6912C95.2112 53.575 95.6189 54.4876 96.1533 55.8854C96.6096 57.0604 96.9495 58.0409 97.1338 58.8857C97.3475 59.9635 97.3475 60.7788 97.4736 61.3132C97.5907 61.7696 97.7648 62.6816 98.1731 64.0012C98.5815 65.3209 99.1824 67.0208 99.5901 68.0787C100.387 70.1952 100.742 71.9622 100.862 72.9043C100.969 73.8752 101.328 77.2345 101.231 78.2438V78.2438L101.233 78.2425Z" fill="#A88F33"/>
<path fill-rule="evenodd" clip-rule="evenodd" d="M81.6222 13.728L81.5736 13.8444C81.5736 13.8444 81.7188 13.8931 81.69 14.0876C81.6921 14.3538 81.6759 14.6198 81.6414 14.8838C81.5934 15.2236 81.4961 15.4854 81.4769 15.6992C81.4769 16.1555 81.5448 16.6796 80.9009 17.9808C80.7089 18.3398 80.5905 18.6502 80.4932 18.864C80.2507 19.3881 80.202 19.4662 79.9883 19.7088C80.3281 19.5168 81.5518 18.7488 82.1726 18.864C81.7457 19.1065 81.0948 19.5827 80.6872 20.2041C80.7844 20.2233 81.1921 20.3014 81.8392 20.2041C82.9169 20.039 84.1208 19.6505 85.1787 19.728C86.3345 19.7958 85.8782 18.3398 85.8782 18.3398L84.5444 15.408L82.0203 13.632L81.6222 13.7286V13.728Z" fill="#BE9C44"/>
<path fill-rule="evenodd" clip-rule="evenodd" d="M88.2046 35.6896C88.2046 35.6896 87.0782 34.5632 86.6219 30.6976C86.1656 26.814 86.2629 21.0976 86.2629 21.0976L85.3502 18.8646C85.3502 18.8646 85.1582 17.3792 84.6802 16.8262C84.2021 16.2732 83.2632 15.3408 82.8357 14.8844C82.4082 14.4281 81.923 13.8067 81.6318 13.7094C81.7771 13.4668 82.428 12.0979 84.9227 12.0787C87.4174 12.0595 88.1867 13.4476 88.4472 13.9526C88.7077 14.4576 89.884 16.6406 90.3205 20.8006C90.7282 24.9555 90.748 25.2665 90.6802 26.7033C90.6315 27.4995 90.3691 29.344 89.9122 31.3145C89.4949 32.9849 89.0386 34.8492 88.2034 35.6934L88.2046 35.6896Z" fill="#A17C34"/>
<path fill-rule="evenodd" clip-rule="evenodd" d="M84.6721 39.0003C85.0475 39.0274 85.4225 38.9428 85.7499 38.7571C86.1089 38.7379 87.41 38.903 88.4097 37.6313C88.4775 37.9219 88.6529 38.7091 88.1959 39.408C88.4391 39.1648 88.7982 39.0681 88.8468 39.0003C88.866 39.3593 89.2059 40.4659 87.7691 43.1552C88.1569 42.7283 88.6132 42.7475 89.0209 42.6989C89.0407 43.2038 89.3121 44.9024 88.594 45.8157C88.1185 46.4371 87.3415 46.2425 87.3415 46.2425C87.3529 46.1069 87.3529 45.9705 87.3415 45.8349C87.3223 45.5725 87.2251 45.3107 87.2935 45.136C86.9181 44.9645 86.5761 44.7276 86.2836 44.4365C85.4388 43.6403 84.3419 42.2816 84.2644 41.2717C84.1671 40.1453 85.1771 39.9027 85.1771 39.9027C85.0925 39.827 85.0203 39.7385 84.9633 39.6403C84.9147 39.4758 84.866 39.2134 84.6721 39.0003V39.0003V39.0003Z" fill="#8C6228"/>
<path fill-rule="evenodd" clip-rule="evenodd" d="M77.1844 26.7866C77.1844 26.7866 77.1358 26.7188 76.874 27.0292C76.9227 26.7188 76.9713 26.4269 76.9905 26.1453C77.1144 25.8846 77.2747 25.6429 77.4667 25.4273C77.3207 25.7178 77.2235 25.9802 77.2235 25.9802C77.2235 25.9802 77.5831 25.3101 78.1073 24.9025C78.4663 24.6113 78.9227 24.4756 79.1166 24.2036C79.3303 23.9124 79.2817 23.8637 79.3303 23.8151C79.3303 23.8151 79.8065 23.5047 80.5348 22.5914C80.6315 22.4749 80.7774 22.3489 80.8747 22.2324C81.0391 22.1645 81.4276 21.9898 81.8839 21.7562C82.3601 21.4945 82.8939 21.1354 83.2241 20.9882C83.8743 20.697 84.5643 20.7265 84.8843 20.2695C85.1268 20.2017 85.3886 19.4733 85.3406 18.8525C85.6996 18.9978 87.5441 20.1434 88.1758 22.6484C88.6321 24.425 87.8161 27.1629 87.4763 28.4839C87.1364 29.8049 87.0884 30.7847 86.6123 31.3863C86.01 32.1831 84.0689 33.3063 83.5927 33.8625C83.1851 34.3188 81.962 35.474 82.01 36.3085C82.0587 36.93 82.8254 37.2685 82.9911 37.3863C83.1569 37.5041 83.1556 37.6487 83.4667 37.5783C83.7777 37.5079 83.8935 37.3645 84.0203 37.3645C84.1655 37.3837 84.1655 37.4132 84.2334 37.4132C84.2826 37.4117 84.3315 37.4051 84.3793 37.3933C84.3793 37.3933 84.3307 38.2772 82.2628 38.5453C82.1169 38.5652 81.9716 38.6132 81.7867 38.6426C82.0299 38.5261 82.1751 38.5261 82.4375 38.1671C82.1463 38.1185 81.3111 38.0698 81.0974 38.002C81.1652 37.8855 81.3886 37.5745 81.5729 37.4292C81.738 37.2839 81.5537 37.2372 81.4084 37.3127C81.1583 37.4829 80.9183 37.6675 80.6897 37.8657C80.4471 38.0794 80.2334 38.3706 79.8449 38.6337C79.7284 38.2452 79.7476 37.5073 80.2046 36.9735C80.0875 36.9927 79.8641 37.3325 79.651 37.2647C79.6124 36.9106 79.6354 36.5524 79.7188 36.2061C79.8353 35.769 80.4663 35.0023 80.4663 35.0023L83.5147 29.5553L84.1649 25.4292L77.1844 26.7853V26.7853V26.7866Z" fill="#92723A"/>
<path fill-rule="evenodd" clip-rule="evenodd" d="M77.0196 27.0196C77.0196 27.0196 76.8545 27.1361 77.1847 27.3594C77.1361 27.4273 77.0196 27.6698 76.8737 27.835C76.7092 28.027 76.5338 28.146 76.466 28.3111C76.3207 28.651 76.2042 28.8839 76.2042 29.0298C76.2042 29.1758 76.1556 30.1076 75.7479 30.7092C75.602 30.923 75.4369 31.282 75.3204 31.5246C75.0778 31.9514 74.8641 32.2926 74.8154 32.4846C74.7188 32.8244 74.651 33.7562 74.651 33.7562C74.651 33.7562 74.8647 33.4938 74.9422 33.3972C74.825 33.6398 74.699 33.9015 74.5146 34.0961C74.6311 33.9988 74.971 33.7562 75.5438 33.2513C76.3399 32.5818 77.5828 31.4554 79.0977 30.5633C78.6407 30.7284 78.2529 30.7284 77.9425 30.777C78.185 30.5345 80.3694 27.9713 81.515 27.7287C81.5845 27.6405 81.6192 27.5298 81.6122 27.4177L80.6311 27.321L78.6407 27.7479L78.3502 26.2119L77.0196 27.0177V27.0196Z" fill="#B18E3E"/>
<path fill-rule="evenodd" clip-rule="evenodd" d="M80.1846 35.7575C80.1846 35.7575 79.9222 36.0192 79.6796 36.6701C79.4929 36.4751 79.3328 36.2563 79.2035 36.0192C78.8444 35.4176 78.2915 34.6503 77 35.0874C76.9808 34.6797 76.9513 34.466 77 34.1748C77.2137 34.1268 77.864 33.6026 78.5142 32.8352C78.9712 32.3111 79.398 31.7088 79.6892 30.9421C79.8812 30.7962 80.2134 30.5536 80.6492 30.272C81.2707 29.8452 82.0182 29.2621 82.1347 28.6119C81.8435 28.7284 81.222 29.0196 80.2896 28.9716C80.6492 28.8064 81.2022 28.6317 81.1344 27.913C81.2803 27.8157 81.3968 27.7479 81.3968 27.7479C81.2873 27.7114 81.1722 27.6949 81.0569 27.6992C81.0371 27.6314 81.0083 27.5348 80.8432 27.5828C80.678 27.6308 80.6512 27.6314 80.6294 27.6992C80.5616 27.7191 80.3382 27.6992 80.1731 27.8164C80.008 27.9335 79.5516 28.3207 79.3769 28.3885C79.4448 28.272 79.5414 28.098 79.5414 28.098C79.5414 28.098 79.0659 28.146 78.726 28.29C78.1046 28.5037 77.3865 28.8922 76.6582 29.2704C76.726 29.154 76.7555 29.0784 76.8035 29.0567C76.8515 29.0349 76.9686 29.0087 76.9686 28.9888C76.9686 28.969 76.9206 28.7968 76.9494 28.7271C77.1671 28.2658 77.4241 27.8241 77.7174 27.4068C78.0572 26.9498 78.1251 26.2996 78.1251 26.2996L79.6105 25.552L83.7852 24.592L86.4944 24.7572L86.1545 26.6311L84.5545 29.9028L83.1856 32.8832L81.622 34.7092L80.1852 35.7575V35.7575H80.1846Z" fill="#543E26"/>
<path fill-rule="evenodd" clip-rule="evenodd" d="M86.9518 27.648C86.9518 27.648 85.3205 29.6672 84.8642 29.9783C85.1554 29.3568 86.9518 25.6576 87.6021 24.6285C87.4568 24.512 87.2622 24.512 87.7186 22.7085C87.3307 23.6205 87.1944 24.0967 86.8744 24.3392C86.5544 24.5818 86.5147 24.5043 86.2984 24.5043C86.3393 24.4304 86.356 24.3457 86.3464 24.2618C86.3464 24.2618 84.9774 24.0967 84.0424 24.0967C83.1074 24.0967 81.2565 24.6016 80.2267 25.0093C79.4114 25.3491 78.955 25.3491 78.6638 25.5623C78.3726 25.8048 78.2075 26.0672 78.0616 26.1351C77.9451 26.2029 77.3922 26.3776 77.2654 26.5619C77.149 26.7539 76.955 26.9696 76.955 27.0183C76.955 27.0669 76.9064 27.1354 77.0523 27.0861C77.1003 27.0669 77.46 26.8723 77.8677 26.6298C78.4206 26.3194 79.0907 25.9603 79.5765 25.7466C80.9646 25.193 81.4018 25.2903 82.0226 25.1738C82.6728 25.0573 83.6053 24.7853 84.2261 24.7853C84.8475 24.7661 86.0226 24.7853 86.2946 24.8339C86.1781 24.9312 86.0808 25.0477 86.1294 25.4554C86.1294 25.5719 86.0322 25.6979 85.9374 25.9795C85.6469 26.7757 85.0933 28.096 84.7854 28.7661C84.3586 29.6781 83.8734 30.4455 83.6334 30.921C83.3934 31.3965 82.8654 32.649 82.3426 33.3191C81.8197 33.9891 81.5464 34.3968 81.3826 34.5427C81.2187 34.6887 80.0424 35.552 80.1301 35.8631C80.3438 35.7952 81.6936 35.2871 82.6734 34.1837C83.6533 33.0803 83.8485 32.4071 84.6152 31.8048C85.3819 31.2026 85.9842 30.1933 86.3432 29.3587C86.644 28.5818 86.5762 28.3392 86.9544 27.6499V27.6499L86.9518 27.648Z" fill="#806031"/>
<path fill-rule="evenodd" clip-rule="evenodd" d="M51.7962 42.7188C51.7962 42.7188 51.5824 43.602 51.0967 44.0391C50.6212 44.4667 49.7764 44.8353 49.6797 45.554C49.5632 46.2721 50.5245 46.6318 50.5245 46.6318C50.5245 46.6318 49.9997 47.4958 49.9997 48.146C49.9997 48.8161 49.9805 48.9422 50.0484 49.5828C49.9714 49.6323 49.9059 49.6978 49.8564 49.7748C49.8564 49.7748 49.9044 50.3963 50.3805 50.7841C50.8567 51.1719 51.2637 51.4055 51.5063 51.3083C51.5433 51.3874 51.5758 51.4686 51.6036 51.5515C51.6036 51.5515 51.9632 50.6388 52.2058 49.8427C52.4484 49.0273 52.6621 49.1431 52.7588 48.0462C52.8554 46.9492 53.9108 45.0657 53.9108 45.0657L54.6308 43.4561L53.4564 42.5435L51.7962 42.7182V42.7188Z" fill="#B6903C"/>
<path fill-rule="evenodd" clip-rule="evenodd" d="M53.9808 44.3008C53.7386 44.5494 53.5151 44.8155 53.312 45.0969C53.0016 45.5245 52.759 45.9123 52.3027 46.0781C51.8464 46.2438 51.5552 46.2425 51.584 46.6995C51.6128 47.1565 52.0403 47.3497 52.2829 47.5827C52.5453 47.8253 52.759 48.2329 52.6425 48.6899C52.7878 48.6221 53.0502 48.544 53.2928 48.0198C53.5353 47.4957 55.232 44.3014 55.232 44.3014H53.9808V44.3008Z" fill="#685026"/>
<path fill-rule="evenodd" clip-rule="evenodd" d="M60.6722 36.9318C60.6722 36.9318 60.8175 36.544 60.6722 36.2624C60.5263 35.9712 59.6431 35.8739 59.206 35.5437C58.7497 35.2038 58.1961 34.9677 57.7398 35.1168C57.8076 34.9517 58.0796 34.592 57.8562 34.5145C57.6425 34.4467 56.847 34.8057 56.6332 34.9709C56.4194 35.136 55.9337 35.3299 55.837 35.447C55.7404 35.5641 55.5746 35.7869 55.4774 35.6896C55.3801 35.6217 55.3321 35.447 55.167 35.5437C55.0018 35.6403 54.207 36.2912 54.0604 36.6701C53.9138 37.0489 53.5842 37.8937 52.5942 38.8544C51.6041 39.815 51.1766 40.4371 51.4678 40.7961C51.759 41.1552 51.8953 40.8934 51.9439 41.2038C51.9813 41.5085 51.9649 41.8174 51.8953 42.1165C51.7788 42.6214 51.5849 43.0969 51.8466 43.1942C52.5167 43.408 53.1676 43.0022 53.3129 43.1264C53.6041 43.3881 53.1478 44.3302 53.837 44.5145C54.5366 44.7065 55.2258 44.3494 55.2258 44.3494L57.7692 42.9805L60.2159 41.6896L61.4678 39.2134L60.7964 37.1456L60.6684 36.9318H60.6722Z" fill="#D4B968"/>
<path fill-rule="evenodd" clip-rule="evenodd" d="M58.2716 42.8449C58.2716 42.8449 57.8441 42.1947 58.3689 41.6212C58.8937 41.0478 59.6405 40.8059 59.9317 40.4468C59.8763 40.3784 59.802 40.3279 59.718 40.3015C59.9113 39.9557 60.2062 39.6775 60.5628 39.5047C60.4175 39.3595 60.2229 39.243 60.0098 39.243C59.5337 39.243 59.2418 39.5342 58.8053 39.5342C58.3785 39.5342 58.3298 39.3204 58.3298 39.3204C58.3298 39.3204 59.0485 39.2526 58.9801 38.9319C58.9122 38.5921 58.7881 38.5921 58.7881 38.5921C58.7881 38.5921 60.1762 38.0161 60.4188 37.7089C60.6613 37.4017 60.6325 37.0388 60.6812 36.8935C60.8457 36.8935 61.8069 36.3886 62.1954 36.6023C62.5839 36.8161 62.3119 37.3985 62.3119 37.3985C62.3119 37.3985 63.4876 36.5147 64.0866 35.6481C64.6108 35.6967 64.8546 35.2891 65.2386 35.2891C65.7148 35.2891 66.4623 35.9393 66.6076 37.3275C66.7049 38.1236 66.8501 38.5799 66.7049 39.9879C66.637 40.7841 66.6562 42.4839 66.8969 43.3275C67.0613 43.9975 67.4498 43.9297 67.4498 43.9297C67.3902 44.1339 67.2721 44.3161 67.11 44.4539C66.8476 44.6964 66.8188 45.3377 66.8476 45.5803C66.8863 45.7576 66.935 45.9326 66.9935 46.1044C66.9935 46.1044 66.6831 46.4635 66.605 46.7067C66.5372 46.9492 66.2172 47.1143 65.9836 47.1143C65.75 47.1143 65.8671 47.0945 65.5567 47.1143C65.2463 47.1342 65.149 47.1822 64.9545 47.1143C64.7599 47.0465 64.6146 46.9684 64.6927 46.3463C64.7605 45.7249 62.2946 44.2785 62.2946 44.2785L58.2626 42.8417V42.8417L58.2716 42.8449Z" fill="#CCA849"/>
<path fill-rule="evenodd" clip-rule="evenodd" d="M53.6409 48.9805C53.6409 48.9805 54.5241 50.1555 58.1555 50.1555C59.8835 50.1555 60.4857 49.9904 60.8435 49.8931C61.2319 49.7958 62.6879 49.2237 64.1542 47.495C65.4745 45.9322 65.1833 45.2915 65.1833 45.2915L64.4153 45.175L61.9193 45.5149L54.5337 48.6605L53.6377 48.9805H53.6409Z" fill="#585136"/>
<path fill-rule="evenodd" clip-rule="evenodd" d="M56.3497 49.2718C56.3497 49.2718 53.2041 49.9713 53.2041 47.9809C53.2041 46.0391 55.1459 44.0001 55.6316 43.641C56.1366 43.2814 57.3404 42.873 57.3404 42.873H60.2435L60.7964 44.3393L60.5539 47.5041L56.3497 49.2711V49.2718Z" fill="#252211"/>
<path fill-rule="evenodd" clip-rule="evenodd" d="M59.2529 43.4662C59.2529 43.4662 58.6513 42.9126 57.2823 43.6582C55.9134 44.4038 54.8062 45.9622 54.7383 47.3773C54.6705 48.6291 55.7674 49.5616 57.4762 49.6102C58.7479 49.6582 59.5153 49.513 59.9038 49.4182C59.8065 49.3018 59.3015 48.6707 59.3015 48.6707L59.2535 43.4669V43.4669L59.2529 43.4662Z" fill="#C3B378"/>
<path fill-rule="evenodd" clip-rule="evenodd" d="M58.6607 43.7759C58.6607 43.7759 58.5154 43.6595 58.0847 43.8924C57.7257 44.0844 57.2015 44.5919 56.7938 44.951C56.5314 45.1647 56.3663 45.2614 56.2178 45.4265C55.6156 46.1452 55.1106 47.3203 55.4025 47.9027C55.6943 48.4851 56.6549 49.1551 59.1017 48.6988L58.6537 43.7766V43.7766L58.6607 43.7759Z" fill="#E6D89C"/>
<path fill-rule="evenodd" clip-rule="evenodd" d="M57.864 44.9806C57.864 44.9806 57.4755 45.5828 57.4755 46.5441C57.4755 47.5246 58.0291 49.0874 60.0681 49.2039C61.631 49.3012 62.6793 46.9518 63.8153 46.0391C64.6793 45.3402 65.2035 45.3204 65.2035 45.3204C65.2035 45.3204 64.3203 44.3604 61.9612 43.1169C59.631 41.8644 57.0192 41.6993 55.6016 43.6218C56.2716 43.5732 58.4368 43.0196 58.4368 43.0196L59.4953 43.3594L57.864 44.9812V44.9812V44.9806Z" fill="#252211"/>
<path fill-rule="evenodd" clip-rule="evenodd" d="M60.9131 46.2521C60.8453 46.1068 60.7966 45.9123 61.0782 45.8643C61.3598 45.8163 61.4859 45.8444 61.5832 46.0563C61.6805 46.2681 61.7752 46.4447 61.6312 46.5324C61.4859 46.6099 61.107 46.5324 60.9125 46.2508L60.9131 46.2521ZM60.4568 44.8831C60.4568 44.8831 60.3595 44.951 60.4082 44.8153C60.4274 44.6508 60.5541 44.359 60.8645 44.4275C61.1749 44.4959 61.1077 44.8351 61.0565 44.9324C61.0053 45.0297 60.7461 45.1942 60.5515 45.1244C60.5015 45.1116 60.4606 45.0757 60.4413 45.0278C60.4221 44.9799 60.4269 44.9257 60.4542 44.8819L60.4568 44.8831Z" fill="#6F674D"/>
<path fill-rule="evenodd" clip-rule="evenodd" d="M34.1758 45.5039C34.1758 45.5039 34.9438 46.0799 35.8359 46.0575C36.7191 46.0377 37.8551 45.1257 38.3793 44.5426C38.6897 44.2028 38.9553 43.8438 39.2433 43.5622C39.4865 43.3196 39.651 43.2031 39.7675 43.038C39.9326 42.846 40.1073 42.485 40.195 42.3679C39.9812 42.533 39.6708 42.8249 39.3502 43.0188C39.0398 43.2108 38.3697 43.5718 38.0977 43.669C37.8359 43.7663 35.1172 45.205 35.1172 45.205L34.1758 45.5039V45.5039Z" fill="#AC924C"/>
<path fill-rule="evenodd" clip-rule="evenodd" d="M35.3496 38.3302C35.3496 38.3302 35.7765 38.039 36.6021 37.854C37.3982 37.662 39.0002 37.5142 39.0002 37.5142L40.3205 38.0902L40.8446 40.0806L39.8846 42.149L38.6616 42.917L37.2728 40.6841L35.3528 38.334V38.334L35.3496 38.3302Z" fill="#9F8E57"/>
<path fill-rule="evenodd" clip-rule="evenodd" d="M33.622 40.1068L33.165 40.4479C33.165 40.4479 33.2822 40.2341 33.3788 39.5839C33.4754 38.9337 33.981 37.3509 34.719 36.4383C35.4569 35.5257 35.4377 35.5743 35.4377 35.5743C35.3003 35.5492 35.1588 35.5844 35.0492 35.6709C35.1465 35.4559 35.7679 34.6879 36.3894 34.3039C37.0108 33.9199 37.2534 33.7989 37.9036 34.1119C38.5538 34.4249 38.719 34.5874 39.1951 34.5682C39.6713 34.549 40.0783 34.0441 40.0783 34.0441C40.0783 34.0441 40.1756 34.3545 39.8166 35.0732C39.4575 35.7919 38.0399 37.2575 38.0399 37.2575L35.0882 39.2767L33.622 40.1087V40.1087V40.1068Z" fill="#EAC970"/>
<path fill-rule="evenodd" clip-rule="evenodd" d="M35.8053 38.0877C35.8053 38.0877 37.9416 38.3789 38.5919 37.7773C38.6111 37.8451 38.6891 37.8451 38.6891 37.8938C38.6839 37.9304 38.6668 37.9644 38.6405 37.9904C38.7112 37.9791 38.7826 37.9727 38.8543 37.9712C38.9398 37.9967 39.0277 38.013 39.1167 38.0198C39.1883 38.0183 39.2597 38.0117 39.3304 38C39.3168 38.0975 39.2641 38.1853 39.1845 38.2432C39.2818 38.2432 39.3765 38.2624 39.3765 38.3398C39.3765 38.4173 39.3957 38.6509 39.2792 38.6995C39.1827 38.7262 39.08 38.7192 38.988 38.6797C38.9957 38.8635 39.0456 39.0431 39.1339 39.2045C39.3259 39.5635 39.7355 39.9725 40.2859 39.8547C40.2859 39.8547 40.5765 40.5536 39.3535 42.1069C39.189 42.3206 39.0136 42.6118 38.8005 42.8544C38.7163 43.038 38.6519 43.23 38.6085 43.4272C38.6085 43.4272 40.677 42.631 41.269 40.8154C41.8712 38.9901 41.9877 37.1942 41.8712 35.5149C41.8514 35.0387 41.7739 34.6995 41.6575 34.4563C41.3663 33.8541 40.5503 33.9514 40.2207 34.2912C39.7445 34.7674 38.9483 35.9514 37.8418 36.7667C36.7154 37.5821 36.6674 37.7267 35.8027 38.0877V38.0877H35.8053Z" fill="#D7BC6B"/>
<path fill-rule="evenodd" clip-rule="evenodd" d="M33.2432 40.7092C33.2432 40.7092 32.8355 40.9518 32.6218 41.8612C32.408 42.7931 32.8138 43.9291 33.0486 44.2881C33.2835 44.6472 33.8166 45.6283 34.9226 45.6769C35.1963 45.6755 35.467 45.6193 35.7187 45.5118C36.1048 45.3348 36.4669 45.1096 36.7965 44.8417C37.2726 44.4827 37.6605 44.1723 37.6118 44.1428C37.4954 44.0942 34.68 41.764 34.68 41.764L33.6214 40.5825L33.2426 40.7105L33.2432 40.7092Z" fill="#585136"/>
<path fill-rule="evenodd" clip-rule="evenodd" d="M35.9039 44.5728C35.9039 44.5728 36.4767 44.5248 36.8166 44.311C37.1564 44.0973 34.8262 41.7869 34.8262 41.7869L34.9913 44.2829L35.9039 44.5728Z" fill="#453A25"/>
<path fill-rule="evenodd" clip-rule="evenodd" d="M33.4268 40.5337C33.4268 40.5337 33.1356 41.0873 33.1356 41.2332C33.0869 41.7087 33.2329 43.2038 33.3493 43.6793C33.4658 44.1843 34.0969 44.951 34.9129 44.951C35.4172 44.951 36.1167 44.6406 36.1167 44.5631C36.1167 44.4659 35.398 44.3711 35.2041 44.0095C35.0876 43.8175 35.0389 43.3401 35.0121 42.8575C34.9929 42.5471 34.9929 42.2073 35.1093 42.0895C35.3717 41.7983 35.4197 40.9631 35.4197 40.9631L36.3516 39.2319H35.126L33.6597 40.1446L33.4268 40.5337Z" fill="#84754B"/>
<path fill-rule="evenodd" clip-rule="evenodd" d="M33.0684 41.0682C33.0684 41.0682 34.0284 39.7965 34.8936 39.5047C35.7589 39.2128 36.1461 39.3882 36.1461 39.3882L35.6412 40.6797L34.9224 41.4759L34.9711 41.8836C34.9711 41.8836 34.854 42.9613 35.5727 43.7088C36.2914 44.4564 36.8252 44.4276 37.1362 44.4276C37.4472 44.4276 38.34 44.1652 38.7964 43.0874C39.204 42.0781 39.5439 40.7834 38.7285 39.4855C37.9317 38.194 36.5244 38.144 36.2524 38.144C35.9804 38.144 33.8447 38.2509 33.0684 41.0663V41.0663V41.0682Z" fill="#252211"/>
<path fill-rule="evenodd" clip-rule="evenodd" d="M57.7182 45.3882C57.3592 45.223 57.699 44.2138 58.0581 43.9027C58.4171 43.5917 58.8734 43.2333 59.6702 43.184C59.9608 43.1648 60.2424 43.3491 60.1944 43.5437C60.1265 43.9027 59.6216 44.4077 59.1653 44.7667C58.5342 45.2621 58.1259 45.5725 57.7182 45.3882Z" fill="#F7F7E7"/>
<path fill-rule="evenodd" clip-rule="evenodd" d="M38.3011 39.8835C38.5635 39.8643 38.9034 40.0755 38.9712 40.3597C39.039 40.6701 38.8061 41.2915 38.3011 41.2915C37.8934 41.2915 37.6797 40.7866 37.6797 40.6413C37.6843 40.5218 37.7177 40.4053 37.777 40.3015C37.7962 40.272 37.8448 39.9322 38.3011 39.8835V39.8835Z" fill="#F8F6DE"/>
<path fill-rule="evenodd" clip-rule="evenodd" d="M34.5145 40.1069C34.5145 40.1069 33.8444 40.4173 33.534 41.0669C33.3122 41.5466 33.2451 42.0834 33.342 42.6029C33.3906 42.8455 33.6332 43.4471 33.7983 43.6609C33.9634 43.8746 34.1868 44.0205 34.3519 44.0007C34.517 43.9809 34.8562 43.5444 34.8562 43.2826C34.8562 43.0209 34.8761 41.9137 35.1961 41.3114C35.4777 40.7098 34.5164 40.1076 34.5164 40.1076V40.1076L34.5145 40.1069Z" fill="#D4C38B"/>
<path fill-rule="evenodd" clip-rule="evenodd" d="M34.6117 40.0582C34.4952 40.126 34.3013 40.2233 34.3493 40.3494C34.3979 40.4659 34.8056 40.5414 34.9515 40.8256C35.1166 41.1168 35.1166 41.4272 35.068 41.5731C35.1948 41.5128 35.3099 41.4305 35.4078 41.3299C35.6216 41.0873 35.8834 40.7577 36.1067 40.7577C36.2526 40.7577 36.3979 40.8256 36.5342 40.8256C36.748 40.8256 36.9611 40.7577 36.9906 40.5344C37.0386 40.2432 36.5829 39.9808 36.3205 40.0294C36.3691 39.8374 36.437 39.5539 36.2232 39.3593C36.0094 39.1648 35.34 39.5052 35.1941 39.6025C35.0482 39.6998 34.6117 40.0588 34.6117 40.0588V40.0588V40.0582Z" fill="#E2D59D"/>
<path fill-rule="evenodd" clip-rule="evenodd" d="M50.0389 60.4563L51.4757 60.032L51.8834 60.3232C51.8834 60.3232 52.1739 60.9446 52.6309 61.0221C52.485 61.3325 52.1061 61.5981 52.1259 61.8182C52.1458 62.0384 52.3397 62.2067 52.3397 62.2067C52.3397 62.2067 51.0482 64.3424 53.5922 66.4947C52.9899 66.7373 52.2232 67.0707 51.8155 67.2627C52.1061 67.3305 52.7275 67.4547 52.9899 67.6902C53.2523 67.9257 53.2523 68.0006 53.4949 68.1465C53.7375 68.2925 53.8827 68.4864 53.8347 68.5734C53.6696 68.4761 53.116 68.1856 53.0194 68.4569C52.9227 68.7283 50.6213 68.6221 50.6213 68.6221L46.7378 69.3696C46.7378 69.3696 46.8831 68.9811 46.4754 68.6221C45.9999 68.1952 45.4175 68.6413 44.796 68.1657C43.9807 67.5443 43.9512 66.8256 43.6895 66.5542C43.9512 66.3891 44.4856 66.1465 45.7573 65.9782C45.7087 65.8809 45.5435 65.5897 45.6408 65.328C45.7573 64.9881 46.2424 64.7744 46.0971 64.368C46.3109 64.3193 46.4075 64.3193 46.9419 63.6493C47.4469 62.9792 47.7573 62.8339 48.1458 62.7853C48.5343 62.7366 48.7672 62.7853 49.4859 62.1152C49.9903 61.6397 49.8258 61.232 49.8258 61.232C49.8258 61.232 50.1554 61.1251 50.0395 60.455V60.455L50.0389 60.4563Z" fill="#CBAC5A"/>
<path fill-rule="evenodd" clip-rule="evenodd" d="M45.7962 60.6721C45.8154 60.5748 45.8935 60.5262 46.4176 60.5748C46.9418 60.6235 50.2621 60.2644 51.1652 60.2158C52.0778 60.1479 55.2912 60.1959 56.8548 60.5262C58.4183 60.8564 60.0004 61.2449 60.7671 61.4388C61.5351 61.6526 61.777 61.7294 61.7476 61.8267C61.7284 61.9239 61.5556 62.0187 61.4564 61.9918C61.3597 61.9726 58.8157 61.1956 58.0298 61.0318C57.2439 60.8679 54.5245 60.4295 53.0378 60.4558C51.6496 60.4756 51.096 60.4366 49.9216 60.5723C48.7466 60.7182 46.8048 60.9121 46.2224 60.8347C45.6464 60.7668 45.7655 60.7668 45.7949 60.6695V60.6695L45.7962 60.6721Z" fill="#D6BC6F"/>
<path fill-rule="evenodd" clip-rule="evenodd" d="M53.6119 68.2817C53.6119 68.2817 55.6023 69.3594 56.321 70.6797C56.8451 71.6602 56.0106 72.146 56.0106 72.146C56.0106 72.146 57.137 72.146 56.9911 72.7674C56.9232 73.1553 55.0493 74.2036 53.7968 74.7572C52.5251 75.3108 52.5738 75.282 51.9523 75.3786C51.3501 75.4759 49.6995 75.1866 49.3597 75.6698C49.0199 76.153 49.1677 76.6509 49.2624 76.7284C49.3597 76.7962 50.1463 76.8935 50.1463 76.8935C50.1463 76.8935 49.9811 77.3498 48.3504 77.3985C46.7197 77.4471 46.3114 77.5629 46.2141 77.7383C46.1168 77.9028 46.5245 77.8061 47.2727 77.9303C48.0202 78.0468 49.0685 78.1223 49.0685 78.1223C49.0685 78.1223 48.7287 78.4135 47.8455 78.6465C46.8355 78.9082 45.2528 79.1514 44.7773 79.4426C45.0199 79.6077 45.3795 79.8503 45.5453 79.8695C45.1376 79.9668 44.5642 80.1805 44.4675 80.258C44.6128 80.3553 44.8074 80.4717 44.8074 80.4717C44.8074 80.4717 43.9914 81.4522 43.5159 81.6954C43.0403 81.9386 40.3024 83.2097 39.3603 82.9671C37.0109 82.3457 36.7197 79.7729 36.1469 79.5789C35.2829 79.2877 34.8752 79.8695 34.1079 79.4618C34.4477 79.2193 34.6327 79.074 34.9917 78.9089C34.6032 78.7169 32.5936 77.4426 32.5936 77.4426C32.3835 76.9846 32.1502 76.5375 31.8947 76.1031C31.5063 75.433 30.9347 74.5396 30.5059 73.753C29.5741 72.025 29.5255 71.2289 28.6807 70.2484C28.8266 70.0564 29.3309 70.0833 29.3309 70.0833L36.4093 72.4135L48.9603 72.777L52.2243 68.1172L53.6125 68.2823L53.6119 68.2817Z" fill="#DFC677"/>
<path fill-rule="evenodd" clip-rule="evenodd" d="M35.0195 75.3883C35.0953 75.4726 35.1836 75.5447 35.2813 75.602C35.5245 75.7671 35.8835 75.9617 36.1261 76.2523C36.2234 76.107 36.4659 75.8446 36.8941 76.2523C37.3223 76.6599 37.8541 76.3694 38.185 76.466C38.5248 76.5831 38.544 76.6311 38.544 76.6311C38.544 76.6311 38.736 76.466 39.1655 76.2913C39.4279 76.194 39.7383 76.1262 40.0781 76.0295C40.3885 75.9617 40.7283 75.8644 40.9619 75.8644C41.1757 76.0097 41.9424 76.8244 45.0202 75.6219C47.9232 74.4955 48.5927 74.3694 49.0784 74.5435C49.1271 74.427 49.1757 74.2036 49.9232 74.2331C49.9232 73.9227 49.3018 72.8641 49.3018 72.8641L45.8746 71.6897H44L38.3789 72.7188L35.264 74.4961L35.0215 75.3921L35.0195 75.3883Z" fill="#C4A859"/>
<path fill-rule="evenodd" clip-rule="evenodd" d="M33.1455 73.4177C33.1455 73.4177 33.2133 73.9419 33.9903 74.4955C34.7583 75.0484 34.9996 75.3787 34.9996 75.3787C34.9996 75.3787 35.1455 75.1867 35.262 74.9908C35.3785 74.7771 35.4757 74.5345 35.6697 74.4667C36.0581 74.3016 36.9413 74.612 37.1359 74.5633C37.301 74.5153 37.2524 74.1755 37.4271 74.1755C37.8348 74.1556 38.0965 74.4372 38.2425 74.4372C38.3884 74.4372 38.7468 74.418 38.7954 74.3406C38.8441 74.2632 38.8633 73.4568 39.4169 73.0683C40.0191 72.6414 40.757 72.8257 40.9529 72.923C40.9529 73.0683 40.9721 73.428 41.3605 73.4472C41.749 73.4664 41.7874 73.3985 42.1285 73.515C42.4697 73.6315 42.8761 73.4958 43.0604 74.068C43.2255 74.02 43.614 73.9713 43.5167 73.4177C43.7087 73.2724 43.8764 73.1752 44.2847 72.6024C44.382 72.4571 44.5465 72.292 44.6732 72.0782C45.013 72.0782 45.4207 72.0104 45.9641 72.4859C45.7989 72.6024 45.7017 72.6779 45.6537 72.7963C45.7958 72.937 45.9255 73.0897 46.0415 73.2526C46.1874 73.4446 46.2847 73.6801 46.469 73.7288C46.8767 73.8452 47.5468 73.6801 48.2943 73.7288C49.013 73.7774 49.6146 74.0392 49.877 74.2043C49.9743 74.1563 49.9743 74.1364 50.2169 74.1851C50.4594 74.2337 50.6437 74.2529 50.382 73.9425C50.5273 74.0104 50.6924 74.1563 50.8383 74.0104C50.9842 73.8644 51.1001 73.6513 51.5077 73.6027C51.9154 73.554 52.0613 73.6219 52.2265 73.195C52.4402 72.6708 51.7023 72.6708 51.7023 72.6708C51.7023 72.6708 52.0421 72.3598 52.421 71.9521C52.8773 71.5252 53.4015 70.9716 53.5276 70.292C53.7413 69.0395 52.5183 68.875 52.5183 68.875L46.5861 70.7003L39.3337 70.3406L33.1493 73.4184V73.4184L33.1455 73.4177Z" fill="#927D49"/>
<path fill-rule="evenodd" clip-rule="evenodd" d="M27.8153 56.2816C27.8153 56.2816 27.6233 56.5242 27.5049 57.097C27.3865 57.6698 27.4371 57.602 27.3398 58.0096C27.2425 58.4173 26.0476 62.4756 26.4956 63.8445C26.9436 65.2135 27.7193 65.7184 28.2044 66.825C28.3017 67.0676 28.3964 67.2135 28.447 67.4272C28.6121 68.1453 28.4668 68.6989 28.6608 69.4176C28.7286 69.6602 28.904 69.9418 29.1657 70.233C29.7417 70.8346 30.6806 71.4074 31.0857 71.8151C31.6579 72.4173 32.4739 73.641 33.5126 73.7568C34.0662 73.8247 34.8528 73.5917 35.503 73.2039C36.079 72.8442 36.4348 72.3399 37.039 72.0519C37.4659 71.8381 37.9222 71.7607 38.3299 71.6634C39.1747 71.4983 39.942 71.4714 40.3984 71.5661C41.0972 71.712 42.7478 72.217 43.6624 72.217C44.377 72.2055 45.0876 72.1077 45.7788 71.9258C47.167 71.5181 48.8464 70.8186 49.9536 70.5082C50.6038 70.3162 51.128 70.2656 51.6624 70.1492C52.575 69.9354 53.3417 69.6442 53.7788 69.0906C53.4876 68.7508 53.1286 68.2266 51.1862 68.2458C48.9827 68.2944 46.4387 69.5175 45.1862 69.712C43.9337 69.9066 43.3904 70.0711 41.992 69.5661C40.6211 69.056 40.5756 68.7188 40.5756 68.7188C40.5756 68.7188 39.1363 67.712 38.534 65.1456C37.9318 62.5792 38.534 60.7092 40.0976 58.9319C40.5052 58.4756 40.408 58.0679 40.408 58.0679C40.408 58.0679 41.4371 56.6797 41.1555 55.3799C40.8451 54.0884 38.8547 54.3508 38.8547 54.3508L27.816 56.2816V56.2816H27.8153Z" fill="#6E6342"/>
<path fill-rule="evenodd" clip-rule="evenodd" d="M29.4762 60.6023C29.3906 60.7632 29.3504 60.9444 29.3597 61.1265C29.3789 61.3882 29.457 61.7281 30.2429 62.4954C30.913 63.1649 30.7671 63.9124 30.7671 63.9124C30.7671 63.9124 31.1044 63.9802 32.0196 63.5521C32.7383 63.2122 32.9796 63.8145 32.9796 63.8145C33.1888 63.7047 33.4156 63.6324 33.6497 63.6007C33.8617 63.5812 34.067 63.5156 34.2513 63.4087C34.2513 63.4087 35.0961 64.2727 35.834 64.6804C36.5041 65.0401 36.8925 65.2826 37.2228 65.0401C37.5332 64.8263 37.5332 64.3892 37.5133 64.1953C37.4363 64.0163 37.3388 63.8468 37.2228 63.6903C37.009 63.3799 36.6692 63.0202 36.6468 62.7303C36.5981 62.0609 37.1517 61.2641 37.0346 61.0701C36.9175 60.8762 36.4817 60.8276 35.4039 61.2161C34.2877 61.5847 29.4717 60.6042 29.4717 60.6042V60.6042L29.4762 60.6023Z" fill="#39331F"/>
<path fill-rule="evenodd" clip-rule="evenodd" d="M32.0194 64.942C32.0194 64.942 31.4665 64.4179 31.6604 61.8739C31.8951 61.8705 32.1295 61.8932 32.3593 61.9417C32.3593 61.9417 32.6607 63.9129 32.0194 64.942Z" fill="#292311"/>
<path fill-rule="evenodd" clip-rule="evenodd" d="M28.0779 54.3397C28.155 54.2826 28.2266 54.2184 28.2916 54.1477C28.0996 54.5068 27.2132 55.9436 27.932 58.206C28.6507 60.4581 30.4561 62.1375 32.6795 62.2156C34.9028 62.2937 36.0715 61.2057 37.4078 59.5749C37.932 58.9247 38.5342 58.1087 39.068 57.5557C39.8641 56.6911 40.4856 56.4485 40.4856 55.614C40.4856 53.9052 38.7377 53.1378 36.1649 52.3711C33.5921 51.6044 31.2715 51.6991 30.0676 52.2239C28.8932 52.7961 28.3883 53.3983 28.0772 54.3404V54.3404L28.0779 54.3397Z" fill="#252211"/>
<path fill-rule="evenodd" clip-rule="evenodd" d="M36.3398 65.7087L36.5318 65.6114C36.5318 65.6114 36.5798 64.8434 36.8909 64.8639C37.2013 64.9126 37.3472 65.3209 37.3177 65.4662C37.2985 65.6114 37.2211 65.8546 36.9101 65.8252C36.5024 65.8348 36.3379 65.7087 36.3379 65.7087H36.3398Z" fill="#3F3824"/>
<path fill-rule="evenodd" clip-rule="evenodd" d="M35.4756 62.4467C35.4756 62.4467 35.6676 62.3788 35.9025 62.6118C36.0945 62.6118 36.9316 62.5145 37.194 62.6796C37.4564 62.8448 37.5338 62.99 37.5338 62.99C37.5338 62.99 36.5533 63.2038 36.0189 62.99C35.4756 62.8057 35.4756 62.4467 35.4756 62.4467H35.4756Z" fill="#2D2815"/>
<path fill-rule="evenodd" clip-rule="evenodd" d="M39.7969 62.592C39.7969 62.5433 39.2727 62.1843 38.7191 62.0672C38.6218 62.048 38.602 62.1158 38.5271 62.1158C38.4785 62.0966 38.4593 61.9507 38.4593 61.9507L38.1444 62.1164C38.1444 62.1164 38.0957 62.1843 38.2609 62.3084C38.4061 62.4249 38.6493 62.5222 38.7172 62.7161C38.785 62.91 38.785 62.9779 38.8145 63.0073C38.8337 63.0265 39.1735 63.0073 39.3386 62.91C39.5037 62.8128 39.8148 62.654 39.7949 62.59V62.59L39.7969 62.592Z" fill="#82764F"/>
<path fill-rule="evenodd" clip-rule="evenodd" d="M34.8936 64.5633C34.8936 64.5633 34.9902 63.8939 35.6411 63.8644C36.3105 63.8158 36.4372 64.466 36.4372 64.466L36.0488 64.8545C36.0488 64.8449 35.7576 64.4372 34.8968 64.5633H34.8936Z" fill="#2D2816"/>
<path fill-rule="evenodd" clip-rule="evenodd" d="M39.1168 61.6793C39.1168 61.6793 38.7571 62.0678 37.9616 62.1843C37.8937 62.087 37.7478 61.8931 37.9616 61.5827C38.1753 61.2723 38.4179 61.175 38.6604 61.2717C38.879 61.3071 39.057 61.4662 39.1168 61.6793Z" fill="#574F35"/>
<path fill-rule="evenodd" clip-rule="evenodd" d="M40.5824 62.1554C40.6023 62.0581 40.5344 62.0389 40.5824 61.9903C40.6304 61.9417 40.8935 61.845 40.9421 61.893C40.9613 61.9129 40.9421 61.9903 40.9421 62.085C40.9421 62.1797 40.9421 62.277 40.8935 62.3468C40.8256 62.4441 40.6317 62.4927 40.5344 62.4639C40.4372 62.4351 40.418 62.2988 40.418 62.2719C40.466 62.2527 40.5824 62.2041 40.5824 62.1554ZM42.24 61.1071C42.24 61.0585 42.4052 60.9612 42.5024 60.9612C42.6477 60.9612 42.6477 61.0777 42.6676 61.1071C42.7156 61.1263 42.7156 61.0873 42.7642 61.1749C42.8128 61.2626 42.8813 61.4175 42.832 61.5148C42.7828 61.6121 42.5895 61.6793 42.5415 61.6601C42.4736 61.6114 42.2599 61.1749 42.24 61.1071V61.1071Z" fill="#82764F"/>
<path fill-rule="evenodd" clip-rule="evenodd" d="M38.9033 62.3788C38.9033 62.3788 39.1171 62.4268 39.4083 62.67C39.311 62.7379 39.1651 62.8153 39.1651 62.8153C39.1651 62.8153 39.1459 62.5919 38.9033 62.3782V62.3788Z" fill="#6E6342"/>
<path fill-rule="evenodd" clip-rule="evenodd" d="M38.4276 60.2424C38.379 60.1944 38.5729 60.078 38.6894 60.0972C38.8058 60.1164 38.8545 60.1944 38.9806 60.2136C39.1066 60.2328 39.1265 60.165 39.1726 60.1164C39.2186 60.0677 39.3863 60.0972 39.4151 60.1164C39.4331 60.1377 39.4493 60.1604 39.4638 60.1842C39.4679 60.1095 39.5029 60.04 39.5604 59.9922C39.6358 59.9368 39.7325 59.9189 39.8228 59.9436C39.842 60.0114 39.9393 60.254 39.9201 60.3026C39.9009 60.3512 39.6097 60.4197 39.5604 60.3704C39.609 60.4876 39.8228 60.7301 39.8516 60.7781C39.8804 60.8261 39.6378 60.9432 39.5412 60.924C39.4055 60.9144 38.5703 60.4287 38.425 60.2444L38.4276 60.2424ZM39.6993 58.6309C39.6813 58.582 39.6469 58.5408 39.602 58.5144C39.5342 58.4952 39.3108 58.5144 39.3108 58.6309C39.3108 58.7474 39.5028 59.3989 39.7185 59.7381C39.9617 60.078 40.1262 60.3589 40.2913 60.437C40.3988 60.486 40.526 60.4435 40.5825 60.3397C40.6017 60.2911 40.6503 59.932 40.6311 59.0872C40.6119 58.2424 40.5825 57.4271 40.5338 57.3784C40.4852 57.3298 40.2913 57.3304 40.2234 57.4271C40.1556 57.5237 39.7185 58.4856 39.6986 58.6309V58.6309H39.6993Z" fill="#585136"/>
<path fill-rule="evenodd" clip-rule="evenodd" d="M38.8355 63.602C38.8355 63.602 38.4957 63.3882 38.1655 63.5341C37.8551 63.68 37.8743 64.2528 37.8743 64.2528C38.016 64.3084 38.1761 64.2902 38.3018 64.2042C38.5155 64.0589 38.7869 63.8164 38.8355 63.6026V63.602Z" fill="#574F35"/>
<path fill-rule="evenodd" clip-rule="evenodd" d="M39.4762 64.3692C39.457 64.1772 39.2842 64.1772 39.2842 64.078C39.3087 63.9804 39.3967 63.9122 39.4973 63.9128C39.5946 63.9128 39.6893 64.0293 39.8083 64.1048C39.9248 64.1727 40.0995 64.2968 40.1187 64.4447C40.1379 64.5925 39.9267 64.9976 39.6919 64.9976C39.457 64.9976 39.5267 64.5605 39.4781 64.3666L39.4762 64.3692ZM41.3501 64.1068C41.3501 64.1068 40.9616 64.2232 40.9904 64.1068C41.0192 63.9903 41.1075 63.9615 41.2336 63.9615C41.2977 63.8944 41.3838 63.8528 41.4762 63.8444C41.529 63.8418 41.5809 63.8591 41.6215 63.893C41.6215 63.893 41.8839 63.7765 41.9613 63.8444C42.0387 63.9122 41.9811 63.9122 42.0291 63.9903C42.0903 64.0769 42.1304 64.1766 42.1463 64.2815C42.1463 64.3589 41.8551 64.524 41.6215 64.4952C41.3501 64.437 41.3981 64.1554 41.3501 64.1068V64.1068ZM43.6119 63.6696C43.6119 63.6696 43.7283 63.7375 43.6317 63.8156C43.5639 63.8834 43.224 64.0076 42.9322 64.0293C42.641 64.0293 42.3792 64.0773 42.3792 63.9807C42.3792 63.884 42.6218 63.6895 42.7671 63.6408C42.8261 63.5669 42.9157 63.524 43.0103 63.5244C43.1267 63.5244 43.5824 63.4757 43.7091 63.4565C43.8256 63.4367 43.9229 63.5045 43.8544 63.6018C43.8256 63.6696 43.6119 63.6696 43.6119 63.6696V63.6696ZM44.2819 60.6719C44.2819 60.6719 44.136 60.9823 43.9715 60.9823C43.8064 60.9631 43.8064 60.9144 43.8064 60.8658C43.8064 60.798 43.9715 60.6232 43.9517 60.5746C43.9037 60.5746 43.7866 60.5746 43.8064 60.4581C43.8064 60.3608 43.9715 60.2444 44.1168 60.2661C44.2266 60.1759 44.3633 60.1248 44.5053 60.1208C44.6704 60.1208 44.8157 60.1688 44.8157 60.2661C44.8157 60.3634 44.6237 60.5765 44.5533 60.6258C44.4759 60.7032 44.3786 60.7538 44.2819 60.6738V60.6719ZM42.0682 66.4095C42.0682 66.4095 41.8762 66.4293 41.8762 66.526C41.8762 66.5746 41.9242 66.5746 41.9927 66.5458C42.0321 66.5436 42.0712 66.5369 42.1091 66.526C42.1283 66.5458 42.1283 66.6424 42.2743 66.6424C42.3941 66.6263 42.5096 66.5867 42.6141 66.526C42.7306 66.478 42.8279 66.4287 42.8279 66.334C42.7792 66.1688 42.6819 66.0908 42.5367 66.0908C42.4622 66.0861 42.388 66.1029 42.3229 66.1394C42.3229 66.1394 42.2743 66.0421 42.1091 66.1394C41.944 66.2367 41.9632 66.2367 42.0119 66.2853C42.0989 66.3628 42.0701 66.4133 42.0701 66.4133L42.0682 66.4095ZM40.9712 67.4194C40.9712 67.3708 41.2138 67.2735 41.2816 67.3029C41.3495 67.3221 41.5434 67.6908 41.5434 67.7298C41.5434 67.7784 41.3008 67.8949 41.2035 67.8949C41.1063 67.8949 40.9418 67.7298 40.9418 67.7029C40.9418 67.6837 41.0583 67.6549 41.0583 67.6351C41.0871 67.5871 40.9712 67.47 40.9712 67.4213V67.4194ZM40.2032 66.0018C40.2519 65.9826 40.2519 65.934 40.3197 65.8853C40.3627 65.8567 40.4166 65.8496 40.4656 65.8661C40.5003 65.8043 40.5609 65.7613 40.6307 65.749C40.7472 65.7298 40.8445 65.749 40.8227 65.7976C40.8227 65.9436 40.92 66.0402 40.92 66.1567C40.92 66.2732 40.8522 66.4191 40.6096 66.5164C40.3671 66.5842 40.0368 66.5842 39.9882 66.565C39.9395 66.5458 39.8909 66.3512 39.9395 66.254C39.9882 66.1567 40.1239 66.0504 40.2019 66.0018V66.0018H40.2032Z" fill="#82764F"/>
<path fill-rule="evenodd" clip-rule="evenodd" d="M40.5118 66.0679C40.5118 66.0679 40.3467 66.1652 40.3467 66.2138C40.332 66.2608 40.3255 66.3099 40.3275 66.3591C40.3275 66.3879 40.5412 66.3399 40.57 66.3104C40.5796 66.2912 40.5118 66.1184 40.5118 66.0679Z" fill="#6E6342"/>
<path fill-rule="evenodd" clip-rule="evenodd" d="M39.0682 65.6116C39.1648 65.6314 39.3299 65.6116 39.456 65.6602C39.5533 65.7088 39.6211 65.8061 39.5239 65.9226C39.4266 66.0391 39.3319 66.2138 39.1162 66.1844C38.8736 66.1652 38.6407 66.0391 38.6407 65.9418C38.6324 65.8175 38.6744 65.6951 38.7571 65.602C38.8544 65.5245 38.9024 65.5732 39.0675 65.6116V65.6116H39.0682Z" fill="#585136"/>
<path fill-rule="evenodd" clip-rule="evenodd" d="M38.9515 65.7087C38.9515 65.7087 38.6411 65.9513 38.563 66.0684C38.4657 66.1849 37.9902 66.7865 37.8449 66.9126C37.8932 66.8275 37.9482 66.7463 38.0094 66.67C37.8174 66.7928 37.6734 66.9779 37.6017 67.1942C37.4852 67.5539 38.2526 67.7478 38.7569 67.8937C39.2612 68.0396 39.4564 68.0857 39.4564 68.0857C39.2708 67.8067 39.1113 67.511 38.9803 67.2025C38.7883 66.7462 38.6891 66.6975 38.8151 66.4838C38.9124 66.27 39.0583 66.1247 39.0583 65.9596C39.0001 65.806 38.9515 65.7087 38.9515 65.7087Z" fill="#574F35"/>
<path fill-rule="evenodd" clip-rule="evenodd" d="M27.8831 66.4762C27.9538 66.4892 28.0262 66.4892 28.0969 66.4762C28.2422 66.4563 29.757 65.9002 31.3398 66C32.5246 66.0716 33.699 66.2646 34.8444 66.576C36.8348 67.1002 39.3103 68.1389 40.9122 68.7315C41.3391 68.896 41.757 69.1879 42.0642 69.3037C43.2879 69.7799 43.3359 69.7799 44.0546 69.9059C44.8994 70.0224 45.7634 69.7408 46.6665 69.5469C47.773 69.3037 49.6662 69.1872 51.3263 68.9447C51.8631 68.8703 52.3926 68.7501 52.909 68.5856C52.909 68.5856 51.5887 69.9059 48.4233 70.3815C47.1438 70.5758 45.8436 70.5921 44.5596 70.4301C43.5497 70.3328 42.8802 70.1869 42.3753 70.0416C41.8025 69.8765 40.6274 69.4394 39.181 69.0816C38.1711 68.8192 37.0447 68.6253 35.7538 68.3827C32.5692 67.7997 29.1132 67.1303 27.8818 66.48L27.8831 66.4762Z" fill="#252211"/>
<path fill-rule="evenodd" clip-rule="evenodd" d="M24.3102 60.4761C23.5422 61.1263 22.7275 61.7478 21.932 62.3494L19.5339 64.1919C18.7185 64.7935 17.9224 65.415 17.1064 66.0172C16.2904 66.6194 15.4756 67.1916 14.6104 67.7452C15.3784 67.095 16.1931 66.4927 17.0084 65.9007C17.8238 65.3087 18.6692 64.7282 19.4558 64.1279L21.8539 62.2828C22.6788 61.6812 23.475 61.0598 24.3102 60.4774V60.4761ZM20.0676 67.2722C20.0676 67.2722 20.9316 66.5535 22.0094 65.5442C23.3489 64.2924 24.9899 62.6898 25.514 62.3993L20.067 67.2729L20.0676 67.2722Z" fill="#CFB66C"/>
<path fill-rule="evenodd" clip-rule="evenodd" d="M20.0674 67.2716C20.4949 66.8447 20.9512 66.4275 21.4075 66.0191L22.1064 65.4175C22.3202 65.2255 22.5634 65.0099 22.7765 64.7961C23.2034 64.3692 23.6213 63.9123 24.0482 63.4758C24.2598 63.2563 24.4835 63.0488 24.7183 62.8543C24.8356 62.7505 24.966 62.6622 25.1061 62.5919C25.2232 62.5241 25.3493 62.3999 25.5138 62.3782C25.4171 62.5241 25.3007 62.5919 25.2034 62.718C25.0869 62.8153 24.9896 62.9318 24.893 63.0284C24.6792 63.2422 24.4367 63.4361 24.2229 63.6307C23.7666 64.0191 23.2911 64.3987 22.8347 64.8051C22.3784 65.2115 21.9515 65.6499 21.4946 66.0575C20.9999 66.4755 20.5435 66.8831 20.0674 67.2735V67.2716ZM25.8735 63.3881C25.8735 63.3881 22.7087 66.4857 22.0578 66.99L25.8735 63.3881Z" fill="#CFB66C"/>
<path fill-rule="evenodd" clip-rule="evenodd" d="M25.8743 63.3882C25.5896 63.7177 25.2843 64.029 24.9604 64.32L24.0004 65.2327C23.69 65.5431 23.3981 65.8541 23.0685 66.1645C22.7287 66.4557 22.4183 66.7405 22.0586 67.0093L22.9904 66.0967C23.3015 65.7863 23.6413 65.5245 23.9716 65.2135L24.9034 64.3008C25.2234 63.9808 25.5344 63.6698 25.8743 63.3882V63.3882ZM26.0196 65.0675C25.7278 65.8817 25.3841 66.6763 24.9904 67.4464C24.1751 69.0778 22.952 71.1162 22.4176 72.1555L26.0196 65.0675Z" fill="#CFB66C"/>
<path fill-rule="evenodd" clip-rule="evenodd" d="M26.0191 65.0681C26.0191 65.4272 25.9218 65.7382 25.8053 66.0486C25.6918 66.3593 25.5623 66.6639 25.4175 66.9612C25.2716 67.2524 25.1064 67.5635 24.9413 67.8451C24.7762 68.1267 24.5823 68.4172 24.4364 68.7091L23.4559 70.4371C23.116 71.0131 22.7858 71.5923 22.4268 72.1459C22.6693 71.5244 22.9996 70.942 23.3106 70.3692C23.6504 69.7932 23.9608 69.2172 24.2706 68.6214C24.4218 68.3245 24.5579 68.0201 24.6783 67.7094C24.8236 67.3984 24.9688 67.1072 25.086 66.8256C25.2312 66.5152 25.3477 66.2233 25.4936 65.9424C25.6581 65.6409 25.7944 65.3497 26.0178 65.0681L26.0191 65.0681Z" fill="#CFB66C"/>
<path fill-rule="evenodd" clip-rule="evenodd" d="M29.4762 73.0291C29.4762 73.0291 28.5162 74.3007 28.6122 75.9123C28.874 75.0681 29.2042 73.7766 29.4762 73.0291ZM30.3889 74.3039C30.3889 74.3039 30.049 77.7599 29.7674 79.4591C30.1655 77.495 30.2429 77.6601 30.3889 74.3039ZM36.7479 79.6633C36.7479 79.6633 35.3111 83.8873 35.2817 85.0611C35.5927 83.854 36.1943 81.3881 36.7479 79.6601V79.6633Z" fill="#DEC270"/>
<path fill-rule="evenodd" clip-rule="evenodd" d="M40.1064 72.7681C40.1064 72.7681 42.4367 76.6125 44.1845 79.8938C43.7116 78.2426 42.6236 75.2141 40.1064 72.7681Z" fill="#CBAF59"/>
<path fill-rule="evenodd" clip-rule="evenodd" d="M46.3691 78.4275C47.6486 80.689 48.8023 83.0194 49.8251 85.408C49.6312 83.7574 49.1064 80.9325 46.3691 78.4275Z" fill="#E3C677"/>
<path fill-rule="evenodd" clip-rule="evenodd" d="M64.7767 84.0961C65.1645 83.8535 65.9319 82.5326 66.602 82.203C67.2714 81.8631 67.7764 81.7953 68.3786 81.1252C68.9802 80.4257 69.1466 79.9988 70.4657 79.4459C72.3108 78.6491 71.0417 77.6199 71.0417 77.6199C71.2449 77.4203 71.4622 77.2355 71.6919 77.067C72.1681 76.7079 72.721 76.2708 72.673 75.5035C72.6052 74.2126 72.3626 72.3387 71.3041 71.2513C72.3332 71.0375 74.3037 70.8923 75.5281 70.5819C76.945 70.2222 77.5959 69.7172 77.5959 69.7172C77.5959 69.7172 76.7805 68.3291 78.1009 66.9313C79.4212 65.5335 80.4989 64.6983 81.2951 63.1348C80.3825 63.0183 78.9911 62.5332 75.4404 63.8823C75.6321 63.9725 75.8171 64.0762 75.994 64.1927C75.994 64.1927 73.8097 64.795 73.0135 65.4651C71.6247 66.6395 71.45 67.6007 69.9453 68.3195C68.4407 69.0382 66.9258 68.8436 65.674 69.426C64.4221 70.0084 64.2372 70.5038 63.7802 70.7175C63.8775 70.834 63.761 71.0279 63.9453 71.1931C63.8289 71.3582 63.1492 72.4647 62.4599 72.4647C62.5277 72.7271 63.1101 72.9211 63.1101 72.9211C63.1101 72.9211 62.6833 73.2321 61.5959 73.3095C62.1489 73.8855 62.6737 74.5134 64.1201 75.426C64.0036 75.6686 63.5178 76.0283 63.7124 76.4846C63.9261 76.9409 64.4804 77.5623 66.6929 78.0673C65.5665 78.1153 64.2468 78.3777 62.4689 78.1351C60.6922 77.9214 60.401 77.7953 59.3041 78.0673C59.4205 78.1838 59.7309 78.1838 60.0029 78.4942C59.7117 78.5134 57.8865 78.2804 57.265 79.0964C56.6148 79.9406 56.3332 81.3294 56.3818 82.2612C56.042 82.4263 55.7117 82.7175 55.8769 83.3198C56.042 83.922 56.906 84.1159 57.4596 84.4942C58.0125 84.9019 58.0612 85.0471 58.586 84.9505C59.1389 84.834 59.9543 84.2811 60.4305 84.2811C60.9066 84.2811 61.2458 84.6401 61.2458 84.6401C61.2458 84.6401 62.5373 84.0186 62.6634 84.1351C62.7799 84.2516 62.6826 84.9991 62.8087 85.1156C62.9367 85.2033 64.3914 84.3393 64.7799 84.0961H64.7767Z" fill="#ECD592"/>
<path fill-rule="evenodd" clip-rule="evenodd" d="M93.0007 45.243C86.9329 29.5732 71.9325 26.6702 71.9325 26.6702H29.1364L29.3015 42.6311H37.8244V78.2721H29.1357V94.2042H70.7479C80.7767 94.2042 88.8157 84.1262 88.8157 84.1262C101.689 65.8548 93.0001 45.243 93.0001 45.243H93.0007ZM70.9713 73.3882C70.9713 73.3882 67.7073 78.0974 64.1559 78.0974H57.0519L56.8836 42.6702H66.0004C66.0004 42.6702 70.2244 43.5534 73.1754 51.9124C73.1754 51.9124 77.0877 63.8804 70.9713 73.3882V73.3882Z" fill="white" fill-opacity="0.8"/>
</svg>
