<svg width="120" height="120" viewBox="0 0 120 120" fill="none" xmlns="http://www.w3.org/2000/svg">
<g clip-path="url(#clip0_1746_4381)">
<path d="M60 0C26.8627 0 0 26.8627 0 60C0 93.1373 26.8627 120 60 120C93.1373 120 120 93.1373 120 60C120 26.8627 93.1373 0 60 0Z" fill="#102623"/>
<path d="M104 60.0912C104 89.0815 86.1959 98.3838 76.8151 90.1008C69.0936 83.347 66.7962 69.075 55.182 67.6096C40.4409 65.7619 39.1646 85.3224 29.4649 85.3224C18.1697 85.3224 16 68.9476 16 60.5372C16 51.9356 18.4249 40.212 28.0609 40.212C39.2923 40.212 39.9304 56.9691 53.9696 56.0771C67.9449 55.1214 68.2001 37.6634 77.2621 30.2087C85.1747 23.7734 104 30.7184 104 60.0912Z" fill="#97FCE4"/>
</g>
<defs>
<clipPath id="clip0_1746_4381">
<path d="M0 60C0 26.8629 26.8629 0 60 0V0C93.1371 0 120 26.8629 120 60V60C120 93.1371 93.1371 120 60 120V120C26.8629 120 0 93.1371 0 60V60Z" fill="white"/>
</clipPath>
</defs>
</svg>
