<svg width="120" height="120" viewBox="0 0 120 120" fill="none" xmlns="http://www.w3.org/2000/svg">
<g clip-path="url(#clip0_1746_4401)">
<g clip-path="url(#clip1_1746_4401)">
<path d="M59.9999 0C93.1372 0 120 26.863 120 60C120 93.137 93.1372 120 59.9999 120C26.8629 120 0 93.137 0 60C0 26.863 26.8629 0 59.9999 0Z" fill="#00C6FC"/>
<path d="M21.1297 42.8728H14.5498V49.4479H21.1297V42.8728Z" fill="#0068B5"/>
<path d="M20.966 77.1289V53.426H14.7139V77.1055H20.966V77.1289ZM62.365 77.3629V71.56C61.4518 71.56 60.679 71.5132 60.117 71.4197C59.4615 71.326 58.9697 71.0921 58.642 70.7645C58.314 70.437 58.1033 69.9688 57.9863 69.3372C57.8926 68.7521 57.8457 67.9799 57.8457 67.0441V58.7843H62.365V53.426H57.8457V44.2068H51.5938V67.1142C51.5938 69.0563 51.7576 70.6943 52.0854 72.0046C52.4133 73.2916 52.9753 74.3444 53.7481 75.1401C54.5208 75.9356 55.5511 76.4973 56.7921 76.8482C58.0565 77.1991 59.6487 77.3629 61.5455 77.3629H62.365ZM98.1443 77.1289V42.3816H91.8923V77.1289H98.1443ZM45.5759 55.7658C43.8432 53.8939 41.4079 52.9579 38.317 52.9579C36.8184 52.9579 35.4368 53.2621 34.2193 53.8706C32.9783 54.4789 31.948 55.3212 31.1049 56.3976L30.7771 56.8422V56.4443V53.426H24.6189V77.1055H30.824V64.4935V65.3594C30.824 65.219 30.824 65.0785 30.824 64.9381C30.8942 62.7153 31.4328 61.0773 32.4631 60.0244C33.5636 58.9013 34.8983 58.3397 36.4204 58.3397C38.2235 58.3397 39.6048 58.9013 40.5181 59.9775C41.4078 61.0539 41.8762 62.5749 41.8762 64.517V64.5872V77.1055H48.1751V63.6747C48.1985 60.3051 47.3087 57.6377 45.5759 55.7658ZM88.6609 65.2423C88.6609 63.5341 88.3565 61.9431 87.7711 60.4456C87.1623 58.9715 86.3194 57.661 85.2656 56.538C84.1884 55.4147 82.9006 54.549 81.402 53.9172C79.9034 53.2854 78.2409 52.9814 76.4379 52.9814C74.7286 52.9814 73.1128 53.3089 71.6142 53.9408C70.1156 54.5959 68.8044 55.4616 67.7037 56.5613C66.6032 57.661 65.7135 58.9715 65.0813 60.469C64.4256 61.9665 64.1212 63.581 64.1212 65.2892C64.1212 66.9972 64.4256 68.6117 65.0345 70.1094C65.6431 71.6069 66.5095 72.9171 67.5867 74.0169C68.6638 75.1166 69.9985 76.0058 71.544 76.6376C73.0894 77.2928 74.7988 77.6203 76.6251 77.6203C81.9171 77.6203 85.1954 75.2103 87.1623 72.964L82.6665 69.5478C81.7297 70.6708 79.4819 72.1918 76.6719 72.1918C74.9158 72.1918 73.464 71.7941 72.3636 70.9751C71.2629 70.1796 70.5137 69.0563 70.1156 67.6759L70.0454 67.4651H88.6609V65.2423ZM70.0922 63.0662C70.0922 61.3347 72.0825 58.3164 76.3675 58.2928C80.6528 58.2928 82.6665 61.3113 82.6665 63.0429L70.0922 63.0662ZM105.263 74.1339C105.146 73.8532 104.982 73.6191 104.771 73.4086C104.56 73.1979 104.326 73.0342 104.045 72.9171C103.764 72.8001 103.46 72.7299 103.155 72.7299C102.827 72.7299 102.546 72.8001 102.265 72.9171C101.984 73.0342 101.75 73.1979 101.54 73.4086C101.329 73.6191 101.165 73.8532 101.048 74.1339C100.931 74.4146 100.861 74.7189 100.861 75.0231C100.861 75.3507 100.931 75.6314 101.048 75.9123C101.165 76.193 101.329 76.4271 101.54 76.6376C101.75 76.8482 101.984 77.012 102.265 77.1289C102.546 77.2459 102.851 77.3161 103.155 77.3161C103.483 77.3161 103.764 77.2459 104.045 77.1289C104.326 77.012 104.56 76.8482 104.771 76.6376C104.982 76.4271 105.146 76.193 105.263 75.9123C105.38 75.6314 105.45 75.3272 105.45 75.0231C105.45 74.7189 105.38 74.4146 105.263 74.1339ZM104.888 75.7718C104.794 76.0058 104.654 76.2164 104.49 76.3802C104.326 76.5439 104.115 76.6845 103.881 76.778C103.647 76.8715 103.413 76.9183 103.132 76.9183C102.874 76.9183 102.617 76.8715 102.382 76.778C102.148 76.6845 101.938 76.5439 101.774 76.3802C101.61 76.2164 101.469 76.0058 101.376 75.7718C101.282 75.5379 101.235 75.3038 101.235 75.0231C101.235 74.7657 101.282 74.5083 101.376 74.2743C101.469 74.0402 101.61 73.8297 101.774 73.666C101.938 73.5021 102.148 73.3617 102.382 73.2682C102.617 73.1745 102.851 73.1277 103.132 73.1277C103.389 73.1277 103.647 73.1745 103.881 73.2682C104.115 73.3617 104.326 73.5021 104.49 73.666C104.654 73.8297 104.794 74.0402 104.888 74.2743C104.982 74.5083 105.028 74.7422 105.028 75.0231C105.028 75.3038 104.982 75.5379 104.888 75.7718ZM103.577 75.2336C103.764 75.2103 103.905 75.1401 104.022 75.0231C104.139 74.9061 104.209 74.7422 104.209 74.5083C104.209 74.2509 104.139 74.0637 103.975 73.9234C103.834 73.7828 103.577 73.7126 103.272 73.7126H102.242V76.3567H102.734V75.2805H103.085L103.741 76.3567H104.256L103.577 75.2336ZM103.319 74.8359C103.249 74.8359 103.179 74.8359 103.085 74.8359H102.734V74.0871H103.085C103.155 74.0871 103.225 74.0871 103.319 74.0871C103.389 74.0871 103.46 74.1106 103.53 74.1339C103.6 74.1572 103.647 74.2041 103.67 74.2509C103.717 74.2976 103.717 74.368 103.717 74.4615C103.717 74.555 103.694 74.6254 103.67 74.672C103.624 74.7189 103.577 74.7657 103.53 74.789C103.46 74.8124 103.389 74.8359 103.319 74.8359Z" fill="white"/>
</g>
</g>
<defs>
<clipPath id="clip0_1746_4401">
<path d="M0 60C0 26.8629 26.8629 0 60 0V0C93.1371 0 120 26.8629 120 60V60C120 93.1371 93.1371 120 60 120V120C26.8629 120 0 93.1371 0 60V60Z" fill="white"/>
</clipPath>
<clipPath id="clip1_1746_4401">
<rect width="120" height="120" fill="white"/>
</clipPath>
</defs>
</svg>
