<svg width="120" height="120" viewBox="0 0 120 120" fill="none" xmlns="http://www.w3.org/2000/svg">
<path d="M0 60C0 26.8629 26.8629 0 60 0V0C93.1371 0 120 26.8629 120 60V60C120 93.1371 93.1371 120 60 120V120C26.8629 120 0 93.1371 0 60V60Z" fill="#345D9D"/>
<path d="M61.0167 62.0338L54.7697 83.0992H88.1836C88.6307 83.0835 89.0656 83.2462 89.3926 83.5514C89.7196 83.8566 89.9118 84.2793 89.927 84.7263V85.2784L87.0214 95.3026C86.7576 96.2789 85.8528 96.9424 84.8422 96.9006H33.7044L42.2758 67.6997L32.6875 70.6052L34.8667 63.9224L44.455 61.0169L56.5131 20.0483C56.7862 19.0784 57.685 18.4192 58.6922 18.4503H71.622C72.069 18.4346 72.5039 18.5973 72.8309 18.9025C73.1579 19.2077 73.3501 19.6303 73.3653 20.0774V20.6294L63.1958 55.2057L72.7842 52.3001L70.7503 59.2735L61.0167 62.0338Z" fill="white"/>
</svg>
