<svg width="120" height="120" viewBox="0 0 120 120" fill="none" xmlns="http://www.w3.org/2000/svg">
<g clip-path="url(#clip0_1746_4409)">
<path d="M59.9999 0C93.1372 0 120 26.863 120 60C120 93.137 93.1372 120 59.9999 120C26.8629 120 0 93.137 0 60C0 26.863 26.8629 0 59.9999 0Z" fill="white"/>
<path d="M58.5922 58.5865H31.5703V31.5688H58.5922V58.5865Z" fill="#F1511B"/>
<path d="M88.4304 58.5865H61.4062V31.5688H88.4282V58.5865H88.4304Z" fill="#80CC28"/>
<path d="M58.5922 88.4295H31.5703V61.4119H58.5922V88.4295Z" fill="#00ADEF"/>
<path d="M88.4304 88.4295H61.4062V61.4119H88.4282V88.4295H88.4304Z" fill="#FBBC09"/>
</g>
<defs>
<clipPath id="clip0_1746_4409">
<path d="M0 60C0 26.8629 26.8629 0 60 0V0C93.1371 0 120 26.8629 120 60V60C120 93.1371 93.1371 120 60 120V120C26.8629 120 0 93.1371 0 60V60Z" fill="white"/>
</clipPath>
</defs>
</svg>
