<svg width="120" height="120" viewBox="0 0 120 120" fill="none" xmlns="http://www.w3.org/2000/svg">
<g clip-path="url(#clip0_1746_4408)">
<path d="M59.9999 0C93.1372 0 120 26.863 120 60C120 93.137 93.1372 120 59.9999 120C26.8629 120 0 93.137 0 60C0 26.863 26.8629 0 59.9999 0Z" fill="#FA6710"/>
<path d="M57.2595 33.7563H62.0866V26.707H69.6851V34.4907C71.7408 35.0556 73.467 35.9659 74.826 37.2276C78.7962 40.4603 79.7001 49.1228 77.0983 53.749C76.1693 55.4563 74.7413 56.9158 72.8016 58.1116C76.1974 58.7864 79.0411 60.0825 81.0278 62.6059L81.0309 62.6029C86.4637 70.5183 82.5625 82.6645 72.9523 84.9149C71.923 85.2287 70.8306 85.4453 69.6851 85.6116V93.2917H62.0866V85.8943H57.2595V93.2917H49.6641V85.8943H43.7102V33.7563H49.6641V26.707H57.2595V33.7563ZM67.5445 65.6285C65.8655 64.3574 60.4357 64.2192 57.2438 64.3165V75.38C60.4294 75.4772 65.8718 75.336 67.5445 74.0681V74.0711C70.5134 72.53 70.4977 67.1695 67.5445 65.6285ZM42.6963 59.5952V59.4831H42.7529C42.734 59.5204 42.7151 59.5579 42.6963 59.5952ZM57.2438 54.4268H60.081C64.9049 54.4268 67.3122 52.5186 67.3122 48.6864V48.6707C67.3122 44.8385 64.908 42.9303 60.081 42.9303H57.2438V54.4268Z" fill="black"/>
</g>
<defs>
<clipPath id="clip0_1746_4408">
<path d="M0 60C0 26.8629 26.8629 0 60 0V0C93.1371 0 120 26.8629 120 60V60C120 93.1371 93.1371 120 60 120V120C26.8629 120 0 93.1371 0 60V60Z" fill="white"/>
</clipPath>
</defs>
</svg>
