<svg width="120" height="120" viewBox="0 0 120 120" fill="none" xmlns="http://www.w3.org/2000/svg">
<rect width="120" height="120" rx="60" fill="url(#paint0_linear_1746_4391)"/>
<path d="M1.89264 75.0068L19.5693 75.0068C23.7921 75.0068 25.7307 73.3386 25.7307 68.5748V58.5963C25.7307 43.7187 32.7036 35.9492 46.0333 35.9492C53.0063 35.9492 58.2962 38.4288 61.437 43.1926C64.7131 38.4288 69.7474 35.9492 76.7204 35.9492C90.0501 35.9492 97.0231 43.7187 97.0231 58.5963V84.0535H87.1046V58.5963C87.1046 49.4142 83.4229 44.996 76.7204 44.996C70.0179 44.996 66.336 49.4142 66.336 58.5963V84.0535H56.4176V58.5963C56.4176 49.4142 52.7358 44.996 46.0333 44.996C39.3309 44.996 35.6491 49.4142 35.6491 58.5963V68.5748C35.6491 79.6954 30.2841 84.0535 19.5693 84.0535H5.00229C5.00229 84.0535 4.31647 82.5114 3.27289 79.5959C2.22931 76.6805 1.89264 75.0068 1.89264 75.0068Z" fill="white"/>
<defs>
<linearGradient id="paint0_linear_1746_4391" x1="117.751" y1="2.10398" x2="4.57074" y2="113.978" gradientUnits="userSpaceOnUse">
<stop stop-color="#B502EE"/>
<stop offset="0.452759" stop-color="#0D0011"/>
<stop offset="0.557931" stop-color="#121318"/>
<stop offset="0.842737" stop-color="#232730"/>
<stop offset="1" stop-color="#343643"/>
</linearGradient>
</defs>
</svg>
