<svg width="120" height="120" viewBox="0 0 120 120" fill="none" xmlns="http://www.w3.org/2000/svg">
<path d="M0 60C0 26.8629 26.8629 0 60 0V0C93.1371 0 120 26.8629 120 60V60C120 93.1371 93.1371 120 60 120V120C26.8629 120 0 93.1371 0 60V60Z" fill="white"/>
<path d="M78.2878 29.9963L62.4534 73.5C62.2576 74.0357 61.9149 74.5054 61.4646 74.8554C61.0144 75.2053 60.4746 75.4215 59.9072 75.479V75.4998H76.6458C77.9563 75.4998 79.0783 74.6663 79.4957 73.5014L95.3357 29.9963H78.2878Z" fill="#0996C7"/>
<path d="M58.5421 74.8384C59.5129 74.8384 60.363 74.3558 60.883 73.6249C60.9371 73.5487 61.1271 73.2824 61.2616 72.9204L67.0695 56.9557L63.6719 47.6322C63.474 47.1601 63.1534 46.7495 62.7434 46.443C62.3334 46.1364 61.8489 45.9451 61.3401 45.8888C60.8313 45.8325 60.3167 45.9132 59.8496 46.1228C59.3825 46.3323 58.9799 46.6629 58.6836 47.0803C58.6281 47.1566 58.4021 47.4963 58.305 47.7848L52.4971 63.744L55.91 73.1049C56.1314 73.6194 56.4987 74.0578 56.9664 74.3658C57.4342 74.6739 57.982 74.8382 58.5421 74.8384Z" fill="#0996C7"/>
<path d="M59.7838 45.2034H42.8607C41.5502 45.2034 40.4283 46.0327 40.0053 47.2031L24.1709 90.7069H41.2188L57.0546 47.2045C57.26 46.6386 57.6293 46.1466 58.1153 45.7912C58.6013 45.4358 59.1821 45.2331 59.7838 45.2089V45.2034Z" fill="#0996C7"/>
</svg>
