<svg width="120" height="120" viewBox="0 0 120 120" fill="none" xmlns="http://www.w3.org/2000/svg">
<g clip-path="url(#clip0_1746_4410)">
<path d="M59.9999 0C93.1372 0 120 26.863 120 60C120 93.137 93.1372 120 59.9999 120C26.8629 120 0 93.137 0 60C0 26.863 26.8629 0 59.9999 0Z" fill="#76B900"/>
<path d="M50.0776 49.585V44.9512C50.5557 44.9034 50.986 44.9034 51.4642 44.9034C64.2305 44.5212 72.598 55.8908 72.598 55.8908C72.598 55.8908 63.5612 68.3591 53.8549 68.3591C52.5639 68.3591 51.3208 68.1681 50.0776 67.7381V53.6456C55.0502 54.2666 56.0543 56.4163 59.0188 61.3845L65.6649 55.7953C65.6649 55.7953 60.7879 49.4417 52.6596 49.4417C51.799 49.4417 50.9383 49.4895 50.0776 49.585ZM50.0776 34.2026V41.1295L51.4642 41.0339C69.2031 40.4129 80.774 55.5564 80.774 55.5564C80.774 55.5564 67.4819 71.751 53.6637 71.751C52.4683 71.751 51.273 71.6554 50.0776 71.4165V75.716C51.0338 75.8115 52.038 75.907 53.0421 75.907C65.9039 75.907 75.2277 69.3145 84.2645 61.5756C85.7467 62.7699 91.8669 65.6839 93.1579 66.9261C84.5992 74.0917 64.613 79.872 53.2811 79.872C52.1814 79.872 51.1773 79.8243 50.1254 79.681V85.7957H99.039V34.2026H50.0776ZM50.0776 67.7859V71.4642C38.172 69.3145 34.8728 56.9417 34.8728 56.9417C34.8728 56.9417 40.6104 50.636 50.0776 49.585V53.5979H50.0299C45.0572 52.9767 41.1364 57.6584 41.1364 57.6584C41.1364 57.6584 43.3836 65.4929 50.0776 67.7859ZM28.9439 56.4163C28.9439 56.4163 35.9726 46.0021 50.0776 44.9512V41.1772C34.4425 42.4194 20.959 55.6042 20.959 55.6042C20.959 55.6042 28.6092 77.7223 50.0776 79.7287V75.716C34.299 73.7573 28.9439 56.4163 28.9439 56.4163Z" fill="white"/>
</g>
<defs>
<clipPath id="clip0_1746_4410">
<path d="M0 60C0 26.8629 26.8629 0 60 0V0C93.1371 0 120 26.8629 120 60V60C120 93.1371 93.1371 120 60 120V120C26.8629 120 0 93.1371 0 60V60Z" fill="white"/>
</clipPath>
</defs>
</svg>
