<svg width="120" height="120" viewBox="0 0 120 120" fill="none" xmlns="http://www.w3.org/2000/svg">
<g clip-path="url(#clip0_1746_4393)">
<g clip-path="url(#clip1_1746_4393)">
<path d="M59.9999 0C93.1372 0 120 26.863 120 60C120 93.137 93.1372 120 59.9999 120C26.8629 120 0 93.137 0 60C0 26.863 26.8629 0 59.9999 0Z" fill="black"/>
<path d="M66.3333 74.5867C66.9366 76.0764 66.7519 77.997 66.4688 79.1543C65.9516 81.1982 64.56 83.291 60.4714 83.291C56.6047 83.291 54.2649 81.0749 54.2649 77.7014V71.7425H37.7389L37.7266 76.5073C37.7266 90.2349 48.5387 94.3841 60.1269 94.3841C71.2716 94.3841 80.4459 90.5796 81.8991 80.3117C82.6504 74.9929 82.0838 71.5086 81.8375 70.1913C79.2391 57.3008 55.8539 53.4471 54.1174 46.2448C53.8218 45.0136 53.908 43.6961 54.0558 42.9945C54.4867 41.0368 55.8292 38.87 59.6835 38.87C63.2794 38.87 65.4096 41.0984 65.4096 44.4597C65.4096 45.5924 65.4096 48.264 65.4096 48.264H80.766V43.9426C80.766 30.5226 68.7223 28.4297 60.0035 28.4297C49.0435 28.4297 40.0908 32.0494 38.4529 42.0711C38.0098 44.8413 37.9481 47.3036 38.5885 50.394C41.2855 62.9644 63.1562 66.6088 66.3333 74.5867Z" fill="white"/>
</g>
</g>
<defs>
<clipPath id="clip0_1746_4393">
<path d="M0 60C0 26.8629 26.8629 0 60 0V0C93.1371 0 120 26.8629 120 60V60C120 93.1371 93.1371 120 60 120V120C26.8629 120 0 93.1371 0 60V60Z" fill="white"/>
</clipPath>
<clipPath id="clip1_1746_4393">
<rect width="120" height="120" fill="white"/>
</clipPath>
</defs>
</svg>
