<svg width="120" height="120" viewBox="0 0 120 120" fill="none" xmlns="http://www.w3.org/2000/svg">
<g clip-path="url(#clip0_1746_4392)">
<g clip-path="url(#clip1_1746_4392)">
<path d="M59.9999 0C93.1372 0 120 26.863 120 60C120 93.137 93.1372 120 59.9999 120C26.8629 120 0 93.137 0 60C0 26.863 26.8629 0 59.9999 0Z" fill="white"/>
<path d="M47.0375 41.5454C43.6056 42.1933 38.5191 45.3082 38.5378 50.8132C38.5484 55.8123 42.6392 58.8444 42.6525 65.3929C42.6714 70.3226 39.954 73.6437 37.0146 75.4822C38.2032 75.3775 39.5042 75.3084 40.9337 75.3054C43.9375 75.2979 45.7472 75.5838 45.8595 75.6027L61.2527 56.7196C56.9774 50.3209 51.9846 45.3564 47.0375 41.5454Z" fill="#E31837"/>
<path d="M59.9665 92.5417C61.9075 89.5255 62.1511 84.7192 62.3144 79.8271C62.4992 75.2588 63.4495 71.8226 69.5612 71.8011C70.9131 71.7985 72.2034 71.9832 74.5378 71.9779C83.4899 71.94 89.334 68.8575 92.9694 66.8343C85.5432 62.1 74.7011 57.2642 61.2516 56.7209C60.3736 59.1937 53.5578 78.1411 53.041 79.6719C53.1188 79.763 54.3127 81.0983 55.8037 83.7076C58.0044 87.291 59.1849 90.3258 59.9665 92.5417Z" fill="#E31837"/>
<path d="M27.4563 77.0691C26.6773 77.0717 26.2891 76.5555 26.1847 75.6586C26.0857 74.7701 22.2335 39.5595 21.6631 34.2313C21.5802 33.4525 21.3874 32.0234 21.3848 31.5149C21.3821 30.696 21.9175 30.2678 22.5466 30.2652C24.3697 30.2576 34.3122 32.5854 44.8598 39.9797C41.8188 40.8335 36.3228 43.994 36.3469 50.5372C36.3681 56.3313 40.5151 59.5186 40.5364 65.3286C40.5713 74.7783 29.7051 77.0636 27.4563 77.0691Z" fill="#F58025"/>
<path d="M60.8496 95.0522C61.0154 95.4914 61.1708 95.8605 61.3287 96.1174C61.5723 96.5271 61.8856 96.7144 62.2765 96.7144C62.5201 96.7117 62.8199 96.6286 63.1545 96.4793C63.9656 96.1045 96.1091 81.1474 100.957 78.9127C101.659 78.5759 102.994 77.9787 103.431 77.7219C103.886 77.4625 104.095 77.0846 104.095 76.6995C104.092 76.4826 104.03 76.2657 103.907 76.0675C103.3 75.0881 100.192 71.7884 94.9928 68.1836C90.8648 70.4557 84.4184 73.9695 74.8292 74.007C72.4787 74.0123 71.9486 73.8545 70.3424 73.8598C65.663 73.875 64.493 75.8777 64.3217 79.9804C64.2952 80.7564 64.2792 81.7974 64.2335 82.9429C64.0861 86.6092 63.6525 91.6668 60.8496 95.0522Z" fill="#F58025"/>
</g>
</g>
<defs>
<clipPath id="clip0_1746_4392">
<path d="M0 60C0 26.8629 26.8629 0 60 0V0C93.1371 0 120 26.8629 120 60V60C120 93.1371 93.1371 120 60 120V120C26.8629 120 0 93.1371 0 60V60Z" fill="white"/>
</clipPath>
<clipPath id="clip1_1746_4392">
<rect width="120" height="120" fill="white"/>
</clipPath>
</defs>
</svg>
