<svg width="120" height="120" viewBox="0 0 120 120" fill="none" xmlns="http://www.w3.org/2000/svg">
<g clip-path="url(#clip0_1746_4402)">
<g clip-path="url(#clip1_1746_4402)">
<path d="M59.9999 0C93.1372 0 120 26.863 120 60C120 93.137 93.1372 120 59.9999 120C26.8629 120 0 93.137 0 60C0 26.863 26.8629 0 59.9999 0Z" fill="#E10600"/>
<path d="M92.2398 75.4918V85.8216L37.6252 64.8392C28.9849 61.482 27.7598 55.2196 27.7598 49.6673C27.7598 41.0807 34.7881 34.1726 43.3639 34.1726H92.1754V54.3803H79.2793V50.7648C79.2793 48.6537 77.2482 47.0849 75.3265 47.0849H46.8458C44.6536 47.0849 42.848 48.828 42.848 51.0231C42.848 53.2182 43.8798 54.2512 45.4918 54.8322L88.0099 69.8556C88.0099 69.8556 92.2398 71.0628 92.2398 75.4918Z" fill="white"/>
<path d="M40.5908 72.9907H27.7598V85.8217H40.5908V72.9907Z" fill="white"/>
</g>
</g>
<defs>
<clipPath id="clip0_1746_4402">
<path d="M0 60C0 26.8629 26.8629 0 60 0V0C93.1371 0 120 26.8629 120 60V60C120 93.1371 93.1371 120 60 120V120C26.8629 120 0 93.1371 0 60V60Z" fill="white"/>
</clipPath>
<clipPath id="clip1_1746_4402">
<rect width="120" height="120" fill="white"/>
</clipPath>
</defs>
</svg>
