<svg width="120" height="120" viewBox="0 0 120 120" fill="none" xmlns="http://www.w3.org/2000/svg">
<path d="M0 60C0 26.8629 26.8629 0 60 0V0C93.1371 0 120 26.8629 120 60V60C120 93.1371 93.1371 120 60 120V120C26.8629 120 0 93.1371 0 60V60Z" fill="#D6002A"/>
<path d="M41.7801 67.0739C41.7801 69.6871 40.862 72.159 39.0257 74.0659C36.4125 76.6791 32.5987 77.5266 29.0674 77.6679C25.2535 77.6679 21.3691 76.7497 18.4734 74.1366C16.284 72.159 15.0127 69.334 15.0127 66.3676H21.2278C21.2278 67.9214 21.8635 69.4046 22.9935 70.464C24.4766 71.9471 26.7367 72.3003 28.7142 72.2296C30.6211 72.2296 32.9518 71.9471 34.3644 70.464C35.8475 68.8396 36.4125 65.9439 34.3644 64.4607C32.3162 62.9069 29.3499 62.9776 26.8779 62.7657C24.3354 62.5538 21.6516 62.0594 19.5328 60.5763C17.4846 59.0931 16.2134 56.8331 15.9308 54.3611C15.6483 51.3948 16.7077 48.6404 18.7559 46.5922C21.1572 44.1909 24.7592 43.1315 28.1492 43.0609C31.6099 42.9903 35.3531 43.9084 37.8957 46.3097C39.8732 48.146 41.2151 50.6886 41.2857 53.443H35.0706C35 52.2423 34.435 51.0417 33.5875 50.1236C32.3162 48.7817 30.1268 48.2873 28.3611 48.3579C26.4542 48.3579 24.406 48.7816 23.0641 50.1942C21.4397 51.9598 21.5103 54.9968 23.7704 56.1268C24.9004 56.6918 26.3129 56.7624 27.5842 56.9037C28.9967 57.0449 30.3386 57.1862 31.7512 57.3275C34.3644 57.6806 36.9775 58.4575 38.9551 60.2938C40.862 61.9888 41.7801 64.4607 41.7801 67.0739ZM68.0532 77.0322L65.7225 74.3484C61.8381 77.8091 55.7642 78.9392 50.9616 76.6791C46.3709 74.5603 43.9696 69.1927 45.7352 64.3901C46.6534 61.8475 48.8428 59.9406 51.1028 58.5281C48.8428 56.1268 47.2184 53.5136 47.5715 50.1236C47.9246 47.1572 49.9728 44.6147 52.7272 43.5553C55.6935 42.4253 59.3661 42.6371 62.1206 44.3322C64.8044 45.9566 66.0756 48.8523 65.7931 51.8892C65.5106 55.703 62.6149 58.2456 59.5074 60.0113L65.2987 66.297C65.9344 65.0964 66.005 63.5426 66.1463 62.2007C66.2875 60.8588 66.2169 59.4462 66.2169 58.1043H74.8333V62.7657H70.9489C70.8076 65.3789 70.3839 68.0627 68.9007 70.2521L75.0452 76.9616L68.0532 77.0322ZM54.5635 62.2713C53.0097 63.2601 51.3147 64.2488 50.7497 66.1558C50.2553 67.8508 50.6791 69.8283 51.9503 71.0996C54.4223 73.6422 59.7899 73.3597 62.1206 70.7465L54.5635 62.2713ZM60.4255 51.3948C60.4255 49.9823 59.7899 48.711 58.448 48.146C57.1061 47.5104 55.411 47.7223 54.2104 48.5698C53.0097 49.4173 52.7272 51.0417 53.151 52.3836C53.6454 54.008 54.9873 55.2087 56.1173 56.3387C58.1655 55.2087 60.4255 54.008 60.4255 51.3948ZM104.497 54.2905C104.497 57.3275 103.508 60.3644 101.177 62.3419C98.8463 64.3195 95.7388 65.0257 92.7018 65.0257H85.6392V76.9616H79.6359V43.6259H92.7018C95.6681 43.6259 98.8463 44.3322 101.177 46.2391C103.579 48.2166 104.497 51.2536 104.497 54.2905ZM98.4226 54.3611C98.4226 52.8074 97.9282 51.2536 96.7275 50.1942C95.5975 49.2054 93.9731 48.9229 92.4899 48.9229H85.6392V59.7288H92.4899C93.9731 59.7288 95.5975 59.5169 96.7275 58.4575C97.9282 57.3981 98.4226 55.8443 98.4226 54.3611Z" fill="white"/>
</svg>
