<svg width="120" height="120" viewBox="0 0 120 120" fill="none" xmlns="http://www.w3.org/2000/svg">
<g clip-path="url(#clip0_1746_4413)">
<path d="M0 60C0 26.8629 26.8629 0 60 0V0C93.1371 0 120 26.8629 120 60V60C120 93.1371 93.1371 120 60 120V120C26.8629 120 0 93.1371 0 60V60Z" fill="black"/>
<path d="M40.1559 45.668H22.6865L43.267 60.7444C46.2582 58.7103 49.7281 56.5565 52.8393 54.7617L40.1559 45.668ZM65.5223 64.4535C62.5311 66.4875 59.5396 68.7611 56.6682 70.9149L72.2229 82.282H89.8122L65.5223 64.4535Z" fill="white"/>
<path d="M173.45 24.2507C77.7272 29.7548 33.4556 70.6762 23.5244 80.3683L21.4902 82.2826H39.1989C87.0604 34.3016 155.861 25.8062 173.45 24.2507Z" fill="white"/>
</g>
<defs>
<clipPath id="clip0_1746_4413">
<path d="M0 60C0 26.8629 26.8629 0 60 0V0C93.1371 0 120 26.8629 120 60V60C120 93.1371 93.1371 120 60 120V120C26.8629 120 0 93.1371 0 60V60Z" fill="white"/>
</clipPath>
</defs>
</svg>
