<svg width="120" height="120" viewBox="0 0 120 120" fill="none" xmlns="http://www.w3.org/2000/svg">
<path d="M0 60C0 26.8629 26.8629 0 60 0V0C93.1371 0 120 26.8629 120 60V60C120 93.1371 93.1371 120 60 120V120C26.8629 120 0 93.1371 0 60V60Z" fill="#70BF4E"/>
<path d="M47.6766 28.4884C48.5992 27.9302 49.5217 27.3721 50.4443 27C50.8133 27.9302 51.3668 28.8605 51.7358 29.7907C49.7062 30.907 47.6766 31.8372 45.8315 33.1395C40.6652 36.3023 35.8679 40.0233 31.8087 44.6744C28.672 48.3954 26.0889 52.8605 25.5353 57.8837C25.3508 60.8605 25.9043 64.0233 27.7494 66.4419C29.41 68.4884 31.9932 69.9768 34.5763 70.3488C37.5285 70.907 40.6652 70.5349 43.4329 69.7907C49.1527 68.3023 54.319 65.5116 59.3008 62.5349C62.2529 60.6744 65.2051 58.814 67.6038 56.2093C68.5263 55.093 69.2644 53.7907 69.2644 52.3023C69.2644 51.186 68.5263 50.0698 67.6038 49.6977C66.6812 49.1395 65.3896 48.9535 64.2826 49.1395C62.8065 49.5116 61.3304 50.2558 59.8543 51C55.6106 53.2326 51.9203 56.2093 47.6766 58.4419C45.0935 59.7442 42.3258 61.0465 39.3736 61.0465C37.5285 61.0465 35.6834 60.3023 34.5763 58.814C33.6538 57.6977 33.2848 56.3954 33.4693 54.907C33.6538 52.6744 34.5763 50.4419 35.8679 48.7674C38.2666 45.4186 41.5878 43 45.0935 40.9535C50.9978 37.0465 57.4557 33.8837 64.2826 32.0233C67.9728 31.093 71.663 30.5349 75.3532 30.7209C80.704 30.907 86.0548 32.5814 90.4831 35.7442C95.6494 39.4651 99.5241 45.4186 99.8931 51.9302C100.447 57.3256 98.7861 62.7209 96.3874 67.5581C94.5423 71.2791 91.9592 74.6279 89.1915 77.6047C86.9774 80.0233 84.5787 82.2558 82.1801 84.3023C79.0434 87.093 75.5377 89.5116 72.032 91.7442C68.5263 93.9767 64.6516 95.8372 60.7769 97.5116C59.6698 98.0698 58.3782 98.6279 57.2712 99C56.5331 95.6512 55.4261 92.3023 54.688 88.9535C57.8247 87.4651 60.9614 86.1628 64.0981 84.4884C67.6038 82.6279 70.925 80.2093 74.0616 77.7907C76.8293 75.5581 79.4124 73.3256 81.8111 70.7209C85.8703 66.4419 89.1915 60.8605 89.9295 54.907C90.1141 52.6744 90.1141 50.6279 89.5605 48.3954C88.2689 43.9302 85.1323 40.0233 80.8885 37.7907C77.3828 35.9302 73.3236 35.186 69.4489 35.5581C63.729 35.9302 58.3782 38.1628 53.3964 40.7674C50.9978 42.0698 48.7837 43.3721 46.5695 44.8605C44.3554 46.1628 42.3258 47.6512 40.6652 49.6977C39.9272 50.6279 39.3736 51.7442 39.3736 52.8605C39.3736 53.6047 39.9272 54.5349 40.6652 54.7209C41.9568 55.2791 43.4329 54.7209 44.7244 54.1628C50.8133 51.186 55.9796 46.5349 62.4375 44.3023C65.5741 43.186 69.2644 43 72.401 44.3023C74.9842 45.4186 77.0138 47.8372 77.5673 50.6279C77.7518 52.3023 77.7518 53.9767 77.1983 55.4651C76.2758 57.8837 74.7997 59.9302 72.9546 61.7907C70.7404 64.0233 68.1573 65.8837 65.5741 67.5581C61.8839 69.6047 58.3782 72.0233 54.5035 73.6977C51.1823 75.1861 47.4921 76.4884 43.9864 77.4186C39.9272 78.5349 35.6834 78.7209 31.6242 77.7907C27.5649 76.8605 24.2437 74.6279 22.3986 71.4651C20.738 68.8605 20 65.6977 20 62.7209C20.1845 59.1861 20.9226 55.6512 22.3986 52.4884C24.9818 47.093 28.8565 42.2558 33.4693 38.3488C37.8975 34.4419 42.6948 31.093 47.8611 28.3023L47.6766 28.4884Z" fill="white"/>
</svg>
