<svg width="120" height="120" viewBox="0 0 120 120" fill="none" xmlns="http://www.w3.org/2000/svg">
<path d="M60 0.5C92.8609 0.5 119.5 27.1391 119.5 60C119.5 92.8609 92.8609 119.5 60 119.5C27.1391 119.5 0.5 92.8609 0.5 60C0.5 27.1391 27.1391 0.5 60 0.5Z" fill="white"/>
<path d="M60 0.5C92.8609 0.5 119.5 27.1391 119.5 60C119.5 92.8609 92.8609 119.5 60 119.5C27.1391 119.5 0.5 92.8609 0.5 60C0.5 27.1391 27.1391 0.5 60 0.5Z" stroke="#EAECF1"/>
<path fill-rule="evenodd" clip-rule="evenodd" d="M76.6516 53.7012L76.6503 53.7045C79.669 57.4896 81.4729 62.2834 81.4729 67.4978C81.4729 72.7894 79.6149 77.6484 76.5149 81.4592L76.2479 81.7872L76.1772 81.3702C76.117 81.0157 76.0463 80.6576 75.964 80.2967C74.4127 73.48 69.3578 67.6347 61.038 62.9018C55.42 59.7144 52.2042 55.8767 51.3599 51.5161C50.8146 48.6964 51.2199 45.8642 52.0034 43.4383C52.7867 41.0133 53.9517 38.9815 54.9415 37.7582L58.1785 33.8C58.7461 33.106 59.8081 33.106 60.3758 33.8L76.6516 53.7012ZM81.7706 49.7475L60.079 23.2219C59.6647 22.7154 58.8894 22.7154 58.4752 23.2219L36.7827 49.7463L36.7127 49.8353C32.7209 54.7888 30.332 61.0837 30.332 67.9364C30.332 83.8958 43.2908 96.8339 59.277 96.8339C75.2632 96.8339 88.222 83.8958 88.222 67.9364C88.222 61.0839 85.8331 54.7888 81.8415 49.8353L81.7706 49.7475ZM41.973 53.6159L43.9142 51.2422L43.9728 51.6802C44.0193 52.0271 44.0756 52.3759 44.1424 52.7261C45.3978 59.313 49.8825 64.8055 57.3806 69.0592C63.898 72.7685 67.6928 77.0341 68.7862 81.7122C69.2423 83.6646 69.3237 85.5855 69.1262 87.2649L69.1138 87.3687L69.0199 87.4147C66.0781 88.8518 62.7713 89.6583 59.2764 89.6583C47.0179 89.6583 37.0798 79.7371 37.0798 67.4978C37.0798 62.2429 38.9119 57.4143 41.973 53.6159Z" fill="#008DFF"/>
</svg>
