<svg width="120" height="120" viewBox="0 0 120 120" fill="none" xmlns="http://www.w3.org/2000/svg">
<path d="M0 60C0 26.8629 26.8629 0 60 0V0C93.1371 0 120 26.8629 120 60V60C120 93.1371 93.1371 120 60 120V120C26.8629 120 0 93.1371 0 60V60Z" fill="#E31937"/>
<path d="M60.0006 101.742L70.1018 44.9584C79.7193 44.9584 82.764 46.0116 83.1908 50.3095C83.1908 50.3095 89.6499 47.8901 92.8936 43.0229C80.203 37.1312 67.4272 36.875 67.4272 36.875L59.9721 45.9547H60.0006L52.574 36.875C52.574 36.875 39.798 37.1312 27.1074 43.0229C30.3513 47.9186 36.8103 50.3095 36.8103 50.3095C37.2371 46.0116 40.2817 44.9584 49.8424 44.93L60.0006 101.742Z" fill="white"/>
<path d="M59.9999 34.2544C70.2719 34.169 82.0235 35.8484 94.0596 41.0856C95.6815 38.1823 96.0799 36.9014 96.0799 36.9014C82.934 31.6927 70.6133 29.9281 59.9999 29.8711C49.4149 29.9281 37.0942 31.6927 23.9199 36.9014C23.9199 36.9014 24.5174 38.467 25.9401 41.0856C37.9763 35.8198 49.7279 34.169 59.9999 34.2544Z" fill="white"/>
</svg>
