<svg width="120" height="120" viewBox="0 0 120 120" fill="none" xmlns="http://www.w3.org/2000/svg">
<path d="M0 60C0 26.8629 26.8629 0 60 0V0C93.1371 0 120 26.8629 120 60V60C120 93.1371 93.1371 120 60 120V120C26.8629 120 0 93.1371 0 60V60Z" fill="white"/>
<path d="M100.283 30H97.4821C97.3571 30 97.2559 30.1018 97.2559 30.2276V90.4761C97.2559 90.6019 97.3571 90.7037 97.4821 90.7037H100.283C100.408 90.7037 100.509 90.6019 100.509 90.4761V30.2276C100.509 30.1018 100.408 30 100.283 30Z" fill="#00E5D1"/>
<path d="M39.1207 41.2787L22.3055 31.3465C22.3055 31.3465 22.2359 31.3203 22.1925 31.3203H19.2175C19.0957 31.3203 19 31.4166 19 31.5303V89.1794C19 89.293 19.0957 89.3893 19.2175 89.3893H22.1838C22.236 89.3893 22.2794 89.372 22.323 89.3457L39.1468 75.8695C39.199 75.8256 39.2251 75.7732 39.2251 75.7119V41.4619C39.2251 41.3918 39.1816 41.3217 39.1207 41.2867L39.1207 41.2787Z" fill="#2266FF"/>
<path d="M46.8711 31.04C46.8711 31.04 46.784 30.9961 46.7406 30.9961H43.7741C43.6523 30.9961 43.5566 31.0924 43.5566 31.2061V89.5216C43.5566 89.6356 43.6523 89.7319 43.7741 89.7319H46.7232C46.7839 89.7319 46.8364 89.7054 46.8797 89.6618L59.4151 75.9931C59.4151 75.9931 59.4761 75.9057 59.4761 75.853V41.2869C59.4761 41.2256 59.4499 41.1644 59.3977 41.1205L46.8711 31.04Z" fill="#3C8CFF"/>
<path d="M68.1414 30.7253C68.1414 30.7253 68.0456 30.6641 67.9847 30.6641H65.0358C64.9141 30.6641 64.8184 30.7604 64.8184 30.874V89.8377C64.8184 89.9517 64.9141 90.0477 65.0358 90.0477H67.9673C68.0371 90.0477 68.0978 90.0129 68.1414 89.9602L76.3359 76.1516C76.3359 76.1516 76.3795 76.0727 76.3795 76.0291V41.0531C76.3795 41.0004 76.3533 40.948 76.3186 40.9044L68.1414 30.7253Z" fill="#48C3F0"/>
<path d="M86.0436 30.4372C86 30.3759 85.9305 30.332 85.861 30.332H82.9467C82.825 30.332 82.7207 30.4372 82.7207 30.5597V90.144C82.7207 90.2665 82.825 90.3716 82.9467 90.3716H85.8436C85.9305 90.3716 86.0088 90.3192 86.0436 90.2491L90.1147 76.3178C90.1147 76.3178 90.1321 76.2565 90.1321 76.2303V40.8168C90.1321 40.8168 90.1235 40.7382 90.0973 40.7032L86.0436 30.4372Z" fill="#40E1E1"/>
</svg>
