<svg width="120" height="120" viewBox="0 0 120 120" fill="none" xmlns="http://www.w3.org/2000/svg">
<g clip-path="url(#clip0_1746_4412)">
<path d="M59.9999 0C93.1372 0 120 26.863 120 60C120 93.137 93.1372 120 59.9999 120C26.8629 120 0 93.137 0 60C0 26.863 26.8629 0 59.9999 0Z" fill="#ADABB8"/>
<path d="M45.2439 51.4459H75.1363L70.7777 39.7515C70.6081 39.2717 70.2984 38.8539 69.8886 38.5523L45.2439 51.4459ZM45.1616 37.5657C46.222 34.7206 48.5508 32.8948 51.1183 32.8948H68.7914C71.3609 32.8948 73.6921 34.7206 74.7502 37.5657L79.1066 49.2601C80.4121 52.7687 78.3021 56.748 75.1363 56.748H44.7778C41.6118 56.748 39.4997 52.7687 40.8051 49.2601L45.1616 37.5657ZM21.3627 81.8044H51.1942L46.84 70.11C46.6694 69.6295 46.3581 69.2118 45.9466 68.9108L21.3627 81.8044ZM21.2804 67.9242C22.3408 65.079 24.6718 63.2532 27.2371 63.2532H44.8537C47.4211 63.2532 49.75 65.079 50.8104 67.9242L55.1668 79.6186C56.4744 83.1272 54.3623 87.1064 51.192 87.1064H20.8921C17.7263 87.1064 15.6164 83.1272 16.9239 79.6186L21.2804 67.9242ZM99.1064 81.8044H69.0732L93.8587 68.913C94.2448 69.1862 94.5591 69.5982 94.7521 70.1121L99.1064 81.8044ZM74.9432 63.2532C72.3758 63.2532 70.0468 65.079 68.9887 67.9242L64.6301 79.6186C63.3268 83.1272 65.4368 87.1064 68.6048 87.1064H99.1064C102.272 87.1064 104.385 83.1272 103.077 79.6186L98.7182 67.9242C97.6666 65.079 95.3332 63.2532 92.7679 63.2532H74.9432Z" fill="white"/>
</g>
<defs>
<clipPath id="clip0_1746_4412">
<path d="M0 60C0 26.8629 26.8629 0 60 0V0C93.1371 0 120 26.8629 120 60V60C120 93.1371 93.1371 120 60 120V120C26.8629 120 0 93.1371 0 60V60Z" fill="white"/>
</clipPath>
</defs>
</svg>
