<svg width="120" height="120" viewBox="0 0 120 120" fill="none" xmlns="http://www.w3.org/2000/svg">
<path d="M0 60C0 26.8629 26.8629 0 60 0V0C93.1371 0 120 26.8629 120 60V60C120 93.1371 93.1371 120 60 120V120C26.8629 120 0 93.1371 0 60V60Z" fill="#D59B02"/>
<path d="M45.9996 58.8125C48.1016 58.8126 49.9999 60.0709 50.819 62.0068L57.1676 77.0127C58.6271 80.4629 56.0944 84.284 52.3483 84.2842H20.3941C16.6799 84.284 14.1482 80.5221 15.5465 77.0811L21.6441 62.0752C22.4458 60.1028 24.3628 58.8127 26.4918 58.8125H45.9996ZM93.4293 58.8125C95.5314 58.8125 97.4295 60.0709 98.2486 62.0068L104.597 77.0127C106.057 80.463 103.524 84.2841 99.7779 84.2842H67.8238C64.1097 84.2838 61.5779 80.5221 62.9762 77.0811L69.0738 62.0752C69.8755 60.1029 71.7925 58.8128 73.9215 58.8125H93.4293ZM21.5191 78.3906H52.0504L46.7389 64.9863L21.5191 78.3906ZM68.9488 78.3906H99.4801L94.1686 64.9863L68.9488 78.3906ZM68.6266 25.6836C70.7286 25.6837 72.6268 26.942 73.4459 28.8779L79.7945 43.8838C81.254 47.334 78.7214 51.1551 74.9752 51.1553H43.0211C39.3068 51.1551 36.7752 47.3932 38.1734 43.9521L44.2711 28.9463C45.0728 26.9739 46.9897 25.6838 49.1188 25.6836H68.6266ZM44.1461 45.2617H74.6774L69.3658 31.8574L44.1461 45.2617Z" fill="white"/>
</svg>
